<?xml version="1.0" encoding="UTF-8" standalone="no"?>
<!-- Created with Inkscape (http://www.inkscape.org/) -->

<svg
   xmlns:dc="http://purl.org/dc/elements/1.1/"
   xmlns:cc="http://creativecommons.org/ns#"
   xmlns:rdf="http://www.w3.org/1999/02/22-rdf-syntax-ns#"
   xmlns:svg="http://www.w3.org/2000/svg"
   xmlns="http://www.w3.org/2000/svg"
   xmlns:sodipodi="http://sodipodi.sourceforge.net/DTD/sodipodi-0.dtd"
   xmlns:inkscape="http://www.inkscape.org/namespaces/inkscape"
   width="92.685318mm"
   height="201.65541mm"
   viewBox="0 0 328.41254 714.52704"
   id="svg2"
   version="1.1"
   inkscape:version="0.91 r13725"
   sodipodi:docname="beaming_eg.svg">
  <defs
     id="defs4">
    <marker
       inkscape:stockid="Arrow2Mend"
       orient="auto"
       refY="0"
       refX="0"
       id="marker7008"
       style="overflow:visible"
       inkscape:isstock="true">
      <path
         inkscape:connector-curvature="0"
         id="path7010"
         style="fill:#000000;fill-opacity:1;fill-rule:evenodd;stroke:#000000;stroke-width:0.625;stroke-linejoin:round;stroke-opacity:1"
         d="M 8.7185878,4.0337352 -2.2072895,0.01601326 8.7185884,-4.0017078 c -1.7454984,2.3720609 -1.7354408,5.6174519 -6e-7,8.035443 z"
         transform="scale(-0.6,-0.6)" />
    </marker>
    <marker
       inkscape:isstock="true"
       style="overflow:visible"
       id="marker5560"
       refX="0"
       refY="0"
       orient="auto"
       inkscape:stockid="Arrow2Mend">
      <path
         transform="scale(-0.6,-0.6)"
         d="M 8.7185878,4.0337352 -2.2072895,0.01601326 8.7185884,-4.0017078 c -1.7454984,2.3720609 -1.7354408,5.6174519 -6e-7,8.035443 z"
         style="fill:#ff0909;fill-opacity:1;fill-rule:evenodd;stroke:#ff0909;stroke-width:0.625;stroke-linejoin:round;stroke-opacity:1"
         id="path5562"
         inkscape:connector-curvature="0" />
    </marker>
    <marker
       inkscape:stockid="Arrow2Mend"
       orient="auto"
       refY="0"
       refX="0"
       id="marker5478"
       style="overflow:visible"
       inkscape:isstock="true">
      <path
         inkscape:connector-curvature="0"
         id="path5480"
         style="fill:#ff0909;fill-opacity:1;fill-rule:evenodd;stroke:#ff0909;stroke-width:0.625;stroke-linejoin:round;stroke-opacity:1"
         d="M 8.7185878,4.0337352 -2.2072895,0.01601326 8.7185884,-4.0017078 c -1.7454984,2.3720609 -1.7354408,5.6174519 -6e-7,8.035443 z"
         transform="scale(-0.6,-0.6)" />
    </marker>
    <marker
       inkscape:isstock="true"
       style="overflow:visible"
       id="marker6098"
       refX="0"
       refY="0"
       orient="auto"
       inkscape:stockid="Arrow2Mend"
       inkscape:collect="always">
      <path
         transform="scale(-0.6,-0.6)"
         d="M 8.7185878,4.0337352 -2.2072895,0.01601326 8.7185884,-4.0017078 c -1.7454984,2.3720609 -1.7354408,5.6174519 -6e-7,8.035443 z"
         style="fill:#000000;fill-opacity:1;fill-rule:evenodd;stroke:#000000;stroke-width:0.625;stroke-linejoin:round;stroke-opacity:1"
         id="path6100"
         inkscape:connector-curvature="0" />
    </marker>
    <inkscape:perspective
       id="perspective4136"
       inkscape:persp3d-origin="372.04724 : 350.78738 : 1"
       inkscape:vp_z="372.04725 : 175.3937 : 0"
       inkscape:vp_y="15.707317 : 999.87659 : 0"
       inkscape:vp_x="-372.04724 : 175.3937 : 0"
       sodipodi:type="inkscape:persp3d" />
    <clipPath
       clipPathUnits="userSpaceOnUse"
       id="clipPath15656">
      <path
         d="m 236.16,38.016 c 35.28686,0 69.13322,14.01962 94.0848,38.9712 24.95158,24.95158 38.9712,58.79794 38.9712,94.0848 0,35.28686 -14.01962,69.13322 -38.9712,94.0848 -24.95158,24.95158 -58.79794,38.9712 -94.0848,38.9712 -35.28686,0 -69.13322,-14.01962 -94.0848,-38.9712 -24.95158,-24.95158 -38.9712,-58.79794 -38.9712,-94.0848 0,-35.28686 14.01962,-69.13322 38.9712,-94.0848 C 167.02678,52.03562 200.87314,38.016 236.16,38.016 Z"
         id="path15658"
         inkscape:connector-curvature="0" />
    </clipPath>
    <clipPath
       clipPathUnits="userSpaceOnUse"
       id="clipPath15672">
      <path
         d="m 236.16,38.016 c 35.28686,0 69.13322,14.01962 94.0848,38.9712 24.95158,24.95158 38.9712,58.79794 38.9712,94.0848 0,35.28686 -14.01962,69.13322 -38.9712,94.0848 -24.95158,24.95158 -58.79794,38.9712 -94.0848,38.9712 -35.28686,0 -69.13322,-14.01962 -94.0848,-38.9712 -24.95158,-24.95158 -38.9712,-58.79794 -38.9712,-94.0848 0,-35.28686 14.01962,-69.13322 38.9712,-94.0848 C 167.02678,52.03562 200.87314,38.016 236.16,38.016 Z"
         id="path15674"
         inkscape:connector-curvature="0" />
    </clipPath>
    <clipPath
       clipPathUnits="userSpaceOnUse"
       id="clipPath15688">
      <path
         d="m 236.16,38.016 c 35.28686,0 69.13322,14.01962 94.0848,38.9712 24.95158,24.95158 38.9712,58.79794 38.9712,94.0848 0,35.28686 -14.01962,69.13322 -38.9712,94.0848 -24.95158,24.95158 -58.79794,38.9712 -94.0848,38.9712 -35.28686,0 -69.13322,-14.01962 -94.0848,-38.9712 -24.95158,-24.95158 -38.9712,-58.79794 -38.9712,-94.0848 0,-35.28686 14.01962,-69.13322 38.9712,-94.0848 C 167.02678,52.03562 200.87314,38.016 236.16,38.016 Z"
         id="path15690"
         inkscape:connector-curvature="0" />
    </clipPath>
    <clipPath
       clipPathUnits="userSpaceOnUse"
       id="clipPath15704">
      <path
         d="m 236.16,38.016 c 35.28686,0 69.13322,14.01962 94.0848,38.9712 24.95158,24.95158 38.9712,58.79794 38.9712,94.0848 0,35.28686 -14.01962,69.13322 -38.9712,94.0848 -24.95158,24.95158 -58.79794,38.9712 -94.0848,38.9712 -35.28686,0 -69.13322,-14.01962 -94.0848,-38.9712 -24.95158,-24.95158 -38.9712,-58.79794 -38.9712,-94.0848 0,-35.28686 14.01962,-69.13322 38.9712,-94.0848 C 167.02678,52.03562 200.87314,38.016 236.16,38.016 Z"
         id="path15706"
         inkscape:connector-curvature="0" />
    </clipPath>
    <clipPath
       clipPathUnits="userSpaceOnUse"
       id="clipPath15720">
      <path
         d="m 236.16,38.016 c 35.28686,0 69.13322,14.01962 94.0848,38.9712 24.95158,24.95158 38.9712,58.79794 38.9712,94.0848 0,35.28686 -14.01962,69.13322 -38.9712,94.0848 -24.95158,24.95158 -58.79794,38.9712 -94.0848,38.9712 -35.28686,0 -69.13322,-14.01962 -94.0848,-38.9712 -24.95158,-24.95158 -38.9712,-58.79794 -38.9712,-94.0848 0,-35.28686 14.01962,-69.13322 38.9712,-94.0848 C 167.02678,52.03562 200.87314,38.016 236.16,38.016 Z"
         id="path15722"
         inkscape:connector-curvature="0" />
    </clipPath>
    <clipPath
       clipPathUnits="userSpaceOnUse"
       id="clipPath15736">
      <path
         d="m 236.16,38.016 c 35.28686,0 69.13322,14.01962 94.0848,38.9712 24.95158,24.95158 38.9712,58.79794 38.9712,94.0848 0,35.28686 -14.01962,69.13322 -38.9712,94.0848 -24.95158,24.95158 -58.79794,38.9712 -94.0848,38.9712 -35.28686,0 -69.13322,-14.01962 -94.0848,-38.9712 -24.95158,-24.95158 -38.9712,-58.79794 -38.9712,-94.0848 0,-35.28686 14.01962,-69.13322 38.9712,-94.0848 C 167.02678,52.03562 200.87314,38.016 236.16,38.016 Z"
         id="path15738"
         inkscape:connector-curvature="0" />
    </clipPath>
    <clipPath
       clipPathUnits="userSpaceOnUse"
       id="clipPath15752">
      <path
         d="m 236.16,38.016 c 35.28686,0 69.13322,14.01962 94.0848,38.9712 24.95158,24.95158 38.9712,58.79794 38.9712,94.0848 0,35.28686 -14.01962,69.13322 -38.9712,94.0848 -24.95158,24.95158 -58.79794,38.9712 -94.0848,38.9712 -35.28686,0 -69.13322,-14.01962 -94.0848,-38.9712 -24.95158,-24.95158 -38.9712,-58.79794 -38.9712,-94.0848 0,-35.28686 14.01962,-69.13322 38.9712,-94.0848 C 167.02678,52.03562 200.87314,38.016 236.16,38.016 Z"
         id="path15754"
         inkscape:connector-curvature="0" />
    </clipPath>
    <clipPath
       clipPathUnits="userSpaceOnUse"
       id="clipPath15768">
      <path
         d="m 236.16,38.016 c 35.28686,0 69.13322,14.01962 94.0848,38.9712 24.95158,24.95158 38.9712,58.79794 38.9712,94.0848 0,35.28686 -14.01962,69.13322 -38.9712,94.0848 -24.95158,24.95158 -58.79794,38.9712 -94.0848,38.9712 -35.28686,0 -69.13322,-14.01962 -94.0848,-38.9712 -24.95158,-24.95158 -38.9712,-58.79794 -38.9712,-94.0848 0,-35.28686 14.01962,-69.13322 38.9712,-94.0848 C 167.02678,52.03562 200.87314,38.016 236.16,38.016 Z"
         id="path15770"
         inkscape:connector-curvature="0" />
    </clipPath>
    <clipPath
       clipPathUnits="userSpaceOnUse"
       id="clipPath15784">
      <path
         d="m 236.16,38.016 c 35.28686,0 69.13322,14.01962 94.0848,38.9712 24.95158,24.95158 38.9712,58.79794 38.9712,94.0848 0,35.28686 -14.01962,69.13322 -38.9712,94.0848 -24.95158,24.95158 -58.79794,38.9712 -94.0848,38.9712 -35.28686,0 -69.13322,-14.01962 -94.0848,-38.9712 -24.95158,-24.95158 -38.9712,-58.79794 -38.9712,-94.0848 0,-35.28686 14.01962,-69.13322 38.9712,-94.0848 C 167.02678,52.03562 200.87314,38.016 236.16,38.016 Z"
         id="path15786"
         inkscape:connector-curvature="0" />
    </clipPath>
    <clipPath
       clipPathUnits="userSpaceOnUse"
       id="clipPath15800">
      <path
         d="m 236.16,38.016 c 35.28686,0 69.13322,14.01962 94.0848,38.9712 24.95158,24.95158 38.9712,58.79794 38.9712,94.0848 0,35.28686 -14.01962,69.13322 -38.9712,94.0848 -24.95158,24.95158 -58.79794,38.9712 -94.0848,38.9712 -35.28686,0 -69.13322,-14.01962 -94.0848,-38.9712 -24.95158,-24.95158 -38.9712,-58.79794 -38.9712,-94.0848 0,-35.28686 14.01962,-69.13322 38.9712,-94.0848 C 167.02678,52.03562 200.87314,38.016 236.16,38.016 Z"
         id="path15802"
         inkscape:connector-curvature="0" />
    </clipPath>
    <clipPath
       clipPathUnits="userSpaceOnUse"
       id="clipPath15816">
      <path
         d="m 236.16,38.016 c 35.28686,0 69.13322,14.01962 94.0848,38.9712 24.95158,24.95158 38.9712,58.79794 38.9712,94.0848 0,35.28686 -14.01962,69.13322 -38.9712,94.0848 -24.95158,24.95158 -58.79794,38.9712 -94.0848,38.9712 -35.28686,0 -69.13322,-14.01962 -94.0848,-38.9712 -24.95158,-24.95158 -38.9712,-58.79794 -38.9712,-94.0848 0,-35.28686 14.01962,-69.13322 38.9712,-94.0848 C 167.02678,52.03562 200.87314,38.016 236.16,38.016 Z"
         id="path15818"
         inkscape:connector-curvature="0" />
    </clipPath>
    <clipPath
       clipPathUnits="userSpaceOnUse"
       id="clipPath15832">
      <path
         d="m 236.16,38.016 c 35.28686,0 69.13322,14.01962 94.0848,38.9712 24.95158,24.95158 38.9712,58.79794 38.9712,94.0848 0,35.28686 -14.01962,69.13322 -38.9712,94.0848 -24.95158,24.95158 -58.79794,38.9712 -94.0848,38.9712 -35.28686,0 -69.13322,-14.01962 -94.0848,-38.9712 -24.95158,-24.95158 -38.9712,-58.79794 -38.9712,-94.0848 0,-35.28686 14.01962,-69.13322 38.9712,-94.0848 C 167.02678,52.03562 200.87314,38.016 236.16,38.016 Z"
         id="path15834"
         inkscape:connector-curvature="0" />
    </clipPath>
    <clipPath
       clipPathUnits="userSpaceOnUse"
       id="clipPath15848">
      <path
         d="m 236.16,38.016 c 35.28686,0 69.13322,14.01962 94.0848,38.9712 24.95158,24.95158 38.9712,58.79794 38.9712,94.0848 0,35.28686 -14.01962,69.13322 -38.9712,94.0848 -24.95158,24.95158 -58.79794,38.9712 -94.0848,38.9712 -35.28686,0 -69.13322,-14.01962 -94.0848,-38.9712 -24.95158,-24.95158 -38.9712,-58.79794 -38.9712,-94.0848 0,-35.28686 14.01962,-69.13322 38.9712,-94.0848 C 167.02678,52.03562 200.87314,38.016 236.16,38.016 Z"
         id="path15850"
         inkscape:connector-curvature="0" />
    </clipPath>
    <clipPath
       clipPathUnits="userSpaceOnUse"
       id="clipPath15864">
      <path
         d="m 236.16,38.016 c 35.28686,0 69.13322,14.01962 94.0848,38.9712 24.95158,24.95158 38.9712,58.79794 38.9712,94.0848 0,35.28686 -14.01962,69.13322 -38.9712,94.0848 -24.95158,24.95158 -58.79794,38.9712 -94.0848,38.9712 -35.28686,0 -69.13322,-14.01962 -94.0848,-38.9712 -24.95158,-24.95158 -38.9712,-58.79794 -38.9712,-94.0848 0,-35.28686 14.01962,-69.13322 38.9712,-94.0848 C 167.02678,52.03562 200.87314,38.016 236.16,38.016 Z"
         id="path15866"
         inkscape:connector-curvature="0" />
    </clipPath>
    <clipPath
       clipPathUnits="userSpaceOnUse"
       id="clipPath15880">
      <path
         d="m 236.16,38.016 c 35.28686,0 69.13322,14.01962 94.0848,38.9712 24.95158,24.95158 38.9712,58.79794 38.9712,94.0848 0,35.28686 -14.01962,69.13322 -38.9712,94.0848 -24.95158,24.95158 -58.79794,38.9712 -94.0848,38.9712 -35.28686,0 -69.13322,-14.01962 -94.0848,-38.9712 -24.95158,-24.95158 -38.9712,-58.79794 -38.9712,-94.0848 0,-35.28686 14.01962,-69.13322 38.9712,-94.0848 C 167.02678,52.03562 200.87314,38.016 236.16,38.016 Z"
         id="path15882"
         inkscape:connector-curvature="0" />
    </clipPath>
    <clipPath
       clipPathUnits="userSpaceOnUse"
       id="clipPath15900">
      <path
         d="m 236.16,38.016 c 35.28686,0 69.13322,14.01962 94.0848,38.9712 24.95158,24.95158 38.9712,58.79794 38.9712,94.0848 0,35.28686 -14.01962,69.13322 -38.9712,94.0848 -24.95158,24.95158 -58.79794,38.9712 -94.0848,38.9712 -35.28686,0 -69.13322,-14.01962 -94.0848,-38.9712 -24.95158,-24.95158 -38.9712,-58.79794 -38.9712,-94.0848 0,-35.28686 14.01962,-69.13322 38.9712,-94.0848 C 167.02678,52.03562 200.87314,38.016 236.16,38.016 Z"
         id="path15902"
         inkscape:connector-curvature="0" />
    </clipPath>
    <clipPath
       clipPathUnits="userSpaceOnUse"
       id="clipPath16178">
      <path
         d="m 236.16,38.016 c 35.28686,0 69.13322,14.01962 94.0848,38.9712 24.95158,24.95158 38.9712,58.79794 38.9712,94.0848 0,35.28686 -14.01962,69.13322 -38.9712,94.0848 -24.95158,24.95158 -58.79794,38.9712 -94.0848,38.9712 -35.28686,0 -69.13322,-14.01962 -94.0848,-38.9712 -24.95158,-24.95158 -38.9712,-58.79794 -38.9712,-94.0848 0,-35.28686 14.01962,-69.13322 38.9712,-94.0848 C 167.02678,52.03562 200.87314,38.016 236.16,38.016 Z"
         id="path16180"
         inkscape:connector-curvature="0" />
    </clipPath>
    <clipPath
       clipPathUnits="userSpaceOnUse"
       id="clipPath16194">
      <path
         d="m 236.16,38.016 c 35.28686,0 69.13322,14.01962 94.0848,38.9712 24.95158,24.95158 38.9712,58.79794 38.9712,94.0848 0,35.28686 -14.01962,69.13322 -38.9712,94.0848 -24.95158,24.95158 -58.79794,38.9712 -94.0848,38.9712 -35.28686,0 -69.13322,-14.01962 -94.0848,-38.9712 -24.95158,-24.95158 -38.9712,-58.79794 -38.9712,-94.0848 0,-35.28686 14.01962,-69.13322 38.9712,-94.0848 C 167.02678,52.03562 200.87314,38.016 236.16,38.016 Z"
         id="path16196"
         inkscape:connector-curvature="0" />
    </clipPath>
    <clipPath
       clipPathUnits="userSpaceOnUse"
       id="clipPath16210">
      <path
         d="m 236.16,38.016 c 35.28686,0 69.13322,14.01962 94.0848,38.9712 24.95158,24.95158 38.9712,58.79794 38.9712,94.0848 0,35.28686 -14.01962,69.13322 -38.9712,94.0848 -24.95158,24.95158 -58.79794,38.9712 -94.0848,38.9712 -35.28686,0 -69.13322,-14.01962 -94.0848,-38.9712 -24.95158,-24.95158 -38.9712,-58.79794 -38.9712,-94.0848 0,-35.28686 14.01962,-69.13322 38.9712,-94.0848 C 167.02678,52.03562 200.87314,38.016 236.16,38.016 Z"
         id="path16212"
         inkscape:connector-curvature="0" />
    </clipPath>
    <clipPath
       clipPathUnits="userSpaceOnUse"
       id="clipPath16226">
      <path
         d="m 236.16,38.016 c 35.28686,0 69.13322,14.01962 94.0848,38.9712 24.95158,24.95158 38.9712,58.79794 38.9712,94.0848 0,35.28686 -14.01962,69.13322 -38.9712,94.0848 -24.95158,24.95158 -58.79794,38.9712 -94.0848,38.9712 -35.28686,0 -69.13322,-14.01962 -94.0848,-38.9712 -24.95158,-24.95158 -38.9712,-58.79794 -38.9712,-94.0848 0,-35.28686 14.01962,-69.13322 38.9712,-94.0848 C 167.02678,52.03562 200.87314,38.016 236.16,38.016 Z"
         id="path16228"
         inkscape:connector-curvature="0" />
    </clipPath>
    <clipPath
       clipPathUnits="userSpaceOnUse"
       id="clipPath16242">
      <path
         d="m 236.16,38.016 c 35.28686,0 69.13322,14.01962 94.0848,38.9712 24.95158,24.95158 38.9712,58.79794 38.9712,94.0848 0,35.28686 -14.01962,69.13322 -38.9712,94.0848 -24.95158,24.95158 -58.79794,38.9712 -94.0848,38.9712 -35.28686,0 -69.13322,-14.01962 -94.0848,-38.9712 -24.95158,-24.95158 -38.9712,-58.79794 -38.9712,-94.0848 0,-35.28686 14.01962,-69.13322 38.9712,-94.0848 C 167.02678,52.03562 200.87314,38.016 236.16,38.016 Z"
         id="path16244"
         inkscape:connector-curvature="0" />
    </clipPath>
    <clipPath
       clipPathUnits="userSpaceOnUse"
       id="clipPath16258">
      <path
         d="m 236.16,38.016 c 35.28686,0 69.13322,14.01962 94.0848,38.9712 24.95158,24.95158 38.9712,58.79794 38.9712,94.0848 0,35.28686 -14.01962,69.13322 -38.9712,94.0848 -24.95158,24.95158 -58.79794,38.9712 -94.0848,38.9712 -35.28686,0 -69.13322,-14.01962 -94.0848,-38.9712 -24.95158,-24.95158 -38.9712,-58.79794 -38.9712,-94.0848 0,-35.28686 14.01962,-69.13322 38.9712,-94.0848 C 167.02678,52.03562 200.87314,38.016 236.16,38.016 Z"
         id="path16260"
         inkscape:connector-curvature="0" />
    </clipPath>
    <clipPath
       clipPathUnits="userSpaceOnUse"
       id="clipPath16274">
      <path
         d="m 236.16,38.016 c 35.28686,0 69.13322,14.01962 94.0848,38.9712 24.95158,24.95158 38.9712,58.79794 38.9712,94.0848 0,35.28686 -14.01962,69.13322 -38.9712,94.0848 -24.95158,24.95158 -58.79794,38.9712 -94.0848,38.9712 -35.28686,0 -69.13322,-14.01962 -94.0848,-38.9712 -24.95158,-24.95158 -38.9712,-58.79794 -38.9712,-94.0848 0,-35.28686 14.01962,-69.13322 38.9712,-94.0848 C 167.02678,52.03562 200.87314,38.016 236.16,38.016 Z"
         id="path16276"
         inkscape:connector-curvature="0" />
    </clipPath>
    <clipPath
       clipPathUnits="userSpaceOnUse"
       id="clipPath16290">
      <path
         d="m 236.16,38.016 c 35.28686,0 69.13322,14.01962 94.0848,38.9712 24.95158,24.95158 38.9712,58.79794 38.9712,94.0848 0,35.28686 -14.01962,69.13322 -38.9712,94.0848 -24.95158,24.95158 -58.79794,38.9712 -94.0848,38.9712 -35.28686,0 -69.13322,-14.01962 -94.0848,-38.9712 -24.95158,-24.95158 -38.9712,-58.79794 -38.9712,-94.0848 0,-35.28686 14.01962,-69.13322 38.9712,-94.0848 C 167.02678,52.03562 200.87314,38.016 236.16,38.016 Z"
         id="path16292"
         inkscape:connector-curvature="0" />
    </clipPath>
    <clipPath
       clipPathUnits="userSpaceOnUse"
       id="clipPath16306">
      <path
         d="m 236.16,38.016 c 35.28686,0 69.13322,14.01962 94.0848,38.9712 24.95158,24.95158 38.9712,58.79794 38.9712,94.0848 0,35.28686 -14.01962,69.13322 -38.9712,94.0848 -24.95158,24.95158 -58.79794,38.9712 -94.0848,38.9712 -35.28686,0 -69.13322,-14.01962 -94.0848,-38.9712 -24.95158,-24.95158 -38.9712,-58.79794 -38.9712,-94.0848 0,-35.28686 14.01962,-69.13322 38.9712,-94.0848 C 167.02678,52.03562 200.87314,38.016 236.16,38.016 Z"
         id="path16308"
         inkscape:connector-curvature="0" />
    </clipPath>
    <clipPath
       clipPathUnits="userSpaceOnUse"
       id="clipPath16322">
      <path
         d="m 236.16,38.016 c 35.28686,0 69.13322,14.01962 94.0848,38.9712 24.95158,24.95158 38.9712,58.79794 38.9712,94.0848 0,35.28686 -14.01962,69.13322 -38.9712,94.0848 -24.95158,24.95158 -58.79794,38.9712 -94.0848,38.9712 -35.28686,0 -69.13322,-14.01962 -94.0848,-38.9712 -24.95158,-24.95158 -38.9712,-58.79794 -38.9712,-94.0848 0,-35.28686 14.01962,-69.13322 38.9712,-94.0848 C 167.02678,52.03562 200.87314,38.016 236.16,38.016 Z"
         id="path16324"
         inkscape:connector-curvature="0" />
    </clipPath>
    <clipPath
       clipPathUnits="userSpaceOnUse"
       id="clipPath16338">
      <path
         d="m 236.16,38.016 c 35.28686,0 69.13322,14.01962 94.0848,38.9712 24.95158,24.95158 38.9712,58.79794 38.9712,94.0848 0,35.28686 -14.01962,69.13322 -38.9712,94.0848 -24.95158,24.95158 -58.79794,38.9712 -94.0848,38.9712 -35.28686,0 -69.13322,-14.01962 -94.0848,-38.9712 -24.95158,-24.95158 -38.9712,-58.79794 -38.9712,-94.0848 0,-35.28686 14.01962,-69.13322 38.9712,-94.0848 C 167.02678,52.03562 200.87314,38.016 236.16,38.016 Z"
         id="path16340"
         inkscape:connector-curvature="0" />
    </clipPath>
    <clipPath
       clipPathUnits="userSpaceOnUse"
       id="clipPath16354">
      <path
         d="m 236.16,38.016 c 35.28686,0 69.13322,14.01962 94.0848,38.9712 24.95158,24.95158 38.9712,58.79794 38.9712,94.0848 0,35.28686 -14.01962,69.13322 -38.9712,94.0848 -24.95158,24.95158 -58.79794,38.9712 -94.0848,38.9712 -35.28686,0 -69.13322,-14.01962 -94.0848,-38.9712 -24.95158,-24.95158 -38.9712,-58.79794 -38.9712,-94.0848 0,-35.28686 14.01962,-69.13322 38.9712,-94.0848 C 167.02678,52.03562 200.87314,38.016 236.16,38.016 Z"
         id="path16356"
         inkscape:connector-curvature="0" />
    </clipPath>
    <clipPath
       clipPathUnits="userSpaceOnUse"
       id="clipPath16370">
      <path
         d="m 236.16,38.016 c 35.28686,0 69.13322,14.01962 94.0848,38.9712 24.95158,24.95158 38.9712,58.79794 38.9712,94.0848 0,35.28686 -14.01962,69.13322 -38.9712,94.0848 -24.95158,24.95158 -58.79794,38.9712 -94.0848,38.9712 -35.28686,0 -69.13322,-14.01962 -94.0848,-38.9712 -24.95158,-24.95158 -38.9712,-58.79794 -38.9712,-94.0848 0,-35.28686 14.01962,-69.13322 38.9712,-94.0848 C 167.02678,52.03562 200.87314,38.016 236.16,38.016 Z"
         id="path16372"
         inkscape:connector-curvature="0" />
    </clipPath>
    <clipPath
       clipPathUnits="userSpaceOnUse"
       id="clipPath16386">
      <path
         d="m 236.16,38.016 c 35.28686,0 69.13322,14.01962 94.0848,38.9712 24.95158,24.95158 38.9712,58.79794 38.9712,94.0848 0,35.28686 -14.01962,69.13322 -38.9712,94.0848 -24.95158,24.95158 -58.79794,38.9712 -94.0848,38.9712 -35.28686,0 -69.13322,-14.01962 -94.0848,-38.9712 -24.95158,-24.95158 -38.9712,-58.79794 -38.9712,-94.0848 0,-35.28686 14.01962,-69.13322 38.9712,-94.0848 C 167.02678,52.03562 200.87314,38.016 236.16,38.016 Z"
         id="path16388"
         inkscape:connector-curvature="0" />
    </clipPath>
    <clipPath
       clipPathUnits="userSpaceOnUse"
       id="clipPath16402">
      <path
         d="m 236.16,38.016 c 35.28686,0 69.13322,14.01962 94.0848,38.9712 24.95158,24.95158 38.9712,58.79794 38.9712,94.0848 0,35.28686 -14.01962,69.13322 -38.9712,94.0848 -24.95158,24.95158 -58.79794,38.9712 -94.0848,38.9712 -35.28686,0 -69.13322,-14.01962 -94.0848,-38.9712 -24.95158,-24.95158 -38.9712,-58.79794 -38.9712,-94.0848 0,-35.28686 14.01962,-69.13322 38.9712,-94.0848 C 167.02678,52.03562 200.87314,38.016 236.16,38.016 Z"
         id="path16404"
         inkscape:connector-curvature="0" />
    </clipPath>
    <clipPath
       clipPathUnits="userSpaceOnUse"
       id="clipPath16418">
      <path
         d="m 236.16,38.016 c 35.28686,0 69.13322,14.01962 94.0848,38.9712 24.95158,24.95158 38.9712,58.79794 38.9712,94.0848 0,35.28686 -14.01962,69.13322 -38.9712,94.0848 -24.95158,24.95158 -58.79794,38.9712 -94.0848,38.9712 -35.28686,0 -69.13322,-14.01962 -94.0848,-38.9712 -24.95158,-24.95158 -38.9712,-58.79794 -38.9712,-94.0848 0,-35.28686 14.01962,-69.13322 38.9712,-94.0848 C 167.02678,52.03562 200.87314,38.016 236.16,38.016 Z"
         id="path16420"
         inkscape:connector-curvature="0" />
    </clipPath>
    <clipPath
       clipPathUnits="userSpaceOnUse"
       id="clipPath16438">
      <path
         d="m 236.16,38.016 c 35.28686,0 69.13322,14.01962 94.0848,38.9712 24.95158,24.95158 38.9712,58.79794 38.9712,94.0848 0,35.28686 -14.01962,69.13322 -38.9712,94.0848 -24.95158,24.95158 -58.79794,38.9712 -94.0848,38.9712 -35.28686,0 -69.13322,-14.01962 -94.0848,-38.9712 -24.95158,-24.95158 -38.9712,-58.79794 -38.9712,-94.0848 0,-35.28686 14.01962,-69.13322 38.9712,-94.0848 C 167.02678,52.03562 200.87314,38.016 236.16,38.016 Z"
         id="path16440"
         inkscape:connector-curvature="0" />
    </clipPath>
    <clipPath
       clipPathUnits="userSpaceOnUse"
       id="clipPath67972">
      <path
         d="m 236.16,38.016 c 35.28686,0 69.13322,14.01962 94.0848,38.9712 24.95158,24.95158 38.9712,58.79794 38.9712,94.0848 0,35.28686 -14.01962,69.13322 -38.9712,94.0848 -24.95158,24.95158 -58.79794,38.9712 -94.0848,38.9712 -35.28686,0 -69.13322,-14.01962 -94.0848,-38.9712 -24.95158,-24.95158 -38.9712,-58.79794 -38.9712,-94.0848 0,-35.28686 14.01962,-69.13322 38.9712,-94.0848 C 167.02678,52.03562 200.87314,38.016 236.16,38.016 Z"
         id="path67974"
         inkscape:connector-curvature="0" />
    </clipPath>
    <clipPath
       clipPathUnits="userSpaceOnUse"
       id="clipPath67988">
      <path
         d="m 236.16,38.016 c 35.28686,0 69.13322,14.01962 94.0848,38.9712 24.95158,24.95158 38.9712,58.79794 38.9712,94.0848 0,35.28686 -14.01962,69.13322 -38.9712,94.0848 -24.95158,24.95158 -58.79794,38.9712 -94.0848,38.9712 -35.28686,0 -69.13322,-14.01962 -94.0848,-38.9712 -24.95158,-24.95158 -38.9712,-58.79794 -38.9712,-94.0848 0,-35.28686 14.01962,-69.13322 38.9712,-94.0848 C 167.02678,52.03562 200.87314,38.016 236.16,38.016 Z"
         id="path67990"
         inkscape:connector-curvature="0" />
    </clipPath>
    <clipPath
       clipPathUnits="userSpaceOnUse"
       id="clipPath68004">
      <path
         d="m 236.16,38.016 c 35.28686,0 69.13322,14.01962 94.0848,38.9712 24.95158,24.95158 38.9712,58.79794 38.9712,94.0848 0,35.28686 -14.01962,69.13322 -38.9712,94.0848 -24.95158,24.95158 -58.79794,38.9712 -94.0848,38.9712 -35.28686,0 -69.13322,-14.01962 -94.0848,-38.9712 -24.95158,-24.95158 -38.9712,-58.79794 -38.9712,-94.0848 0,-35.28686 14.01962,-69.13322 38.9712,-94.0848 C 167.02678,52.03562 200.87314,38.016 236.16,38.016 Z"
         id="path68006"
         inkscape:connector-curvature="0" />
    </clipPath>
    <clipPath
       clipPathUnits="userSpaceOnUse"
       id="clipPath68020">
      <path
         d="m 236.16,38.016 c 35.28686,0 69.13322,14.01962 94.0848,38.9712 24.95158,24.95158 38.9712,58.79794 38.9712,94.0848 0,35.28686 -14.01962,69.13322 -38.9712,94.0848 -24.95158,24.95158 -58.79794,38.9712 -94.0848,38.9712 -35.28686,0 -69.13322,-14.01962 -94.0848,-38.9712 -24.95158,-24.95158 -38.9712,-58.79794 -38.9712,-94.0848 0,-35.28686 14.01962,-69.13322 38.9712,-94.0848 C 167.02678,52.03562 200.87314,38.016 236.16,38.016 Z"
         id="path68022"
         inkscape:connector-curvature="0" />
    </clipPath>
    <clipPath
       clipPathUnits="userSpaceOnUse"
       id="clipPath68036">
      <path
         d="m 236.16,38.016 c 35.28686,0 69.13322,14.01962 94.0848,38.9712 24.95158,24.95158 38.9712,58.79794 38.9712,94.0848 0,35.28686 -14.01962,69.13322 -38.9712,94.0848 -24.95158,24.95158 -58.79794,38.9712 -94.0848,38.9712 -35.28686,0 -69.13322,-14.01962 -94.0848,-38.9712 -24.95158,-24.95158 -38.9712,-58.79794 -38.9712,-94.0848 0,-35.28686 14.01962,-69.13322 38.9712,-94.0848 C 167.02678,52.03562 200.87314,38.016 236.16,38.016 Z"
         id="path68038"
         inkscape:connector-curvature="0" />
    </clipPath>
    <clipPath
       clipPathUnits="userSpaceOnUse"
       id="clipPath68052">
      <path
         d="m 236.16,38.016 c 35.28686,0 69.13322,14.01962 94.0848,38.9712 24.95158,24.95158 38.9712,58.79794 38.9712,94.0848 0,35.28686 -14.01962,69.13322 -38.9712,94.0848 -24.95158,24.95158 -58.79794,38.9712 -94.0848,38.9712 -35.28686,0 -69.13322,-14.01962 -94.0848,-38.9712 -24.95158,-24.95158 -38.9712,-58.79794 -38.9712,-94.0848 0,-35.28686 14.01962,-69.13322 38.9712,-94.0848 C 167.02678,52.03562 200.87314,38.016 236.16,38.016 Z"
         id="path68054"
         inkscape:connector-curvature="0" />
    </clipPath>
    <clipPath
       clipPathUnits="userSpaceOnUse"
       id="clipPath68068">
      <path
         d="m 236.16,38.016 c 35.28686,0 69.13322,14.01962 94.0848,38.9712 24.95158,24.95158 38.9712,58.79794 38.9712,94.0848 0,35.28686 -14.01962,69.13322 -38.9712,94.0848 -24.95158,24.95158 -58.79794,38.9712 -94.0848,38.9712 -35.28686,0 -69.13322,-14.01962 -94.0848,-38.9712 -24.95158,-24.95158 -38.9712,-58.79794 -38.9712,-94.0848 0,-35.28686 14.01962,-69.13322 38.9712,-94.0848 C 167.02678,52.03562 200.87314,38.016 236.16,38.016 Z"
         id="path68070"
         inkscape:connector-curvature="0" />
    </clipPath>
    <clipPath
       clipPathUnits="userSpaceOnUse"
       id="clipPath68084">
      <path
         d="m 236.16,38.016 c 35.28686,0 69.13322,14.01962 94.0848,38.9712 24.95158,24.95158 38.9712,58.79794 38.9712,94.0848 0,35.28686 -14.01962,69.13322 -38.9712,94.0848 -24.95158,24.95158 -58.79794,38.9712 -94.0848,38.9712 -35.28686,0 -69.13322,-14.01962 -94.0848,-38.9712 -24.95158,-24.95158 -38.9712,-58.79794 -38.9712,-94.0848 0,-35.28686 14.01962,-69.13322 38.9712,-94.0848 C 167.02678,52.03562 200.87314,38.016 236.16,38.016 Z"
         id="path68086"
         inkscape:connector-curvature="0" />
    </clipPath>
    <clipPath
       clipPathUnits="userSpaceOnUse"
       id="clipPath68100">
      <path
         d="m 236.16,38.016 c 35.28686,0 69.13322,14.01962 94.0848,38.9712 24.95158,24.95158 38.9712,58.79794 38.9712,94.0848 0,35.28686 -14.01962,69.13322 -38.9712,94.0848 -24.95158,24.95158 -58.79794,38.9712 -94.0848,38.9712 -35.28686,0 -69.13322,-14.01962 -94.0848,-38.9712 -24.95158,-24.95158 -38.9712,-58.79794 -38.9712,-94.0848 0,-35.28686 14.01962,-69.13322 38.9712,-94.0848 C 167.02678,52.03562 200.87314,38.016 236.16,38.016 Z"
         id="path68102"
         inkscape:connector-curvature="0" />
    </clipPath>
    <clipPath
       clipPathUnits="userSpaceOnUse"
       id="clipPath68116">
      <path
         d="m 236.16,38.016 c 35.28686,0 69.13322,14.01962 94.0848,38.9712 24.95158,24.95158 38.9712,58.79794 38.9712,94.0848 0,35.28686 -14.01962,69.13322 -38.9712,94.0848 -24.95158,24.95158 -58.79794,38.9712 -94.0848,38.9712 -35.28686,0 -69.13322,-14.01962 -94.0848,-38.9712 -24.95158,-24.95158 -38.9712,-58.79794 -38.9712,-94.0848 0,-35.28686 14.01962,-69.13322 38.9712,-94.0848 C 167.02678,52.03562 200.87314,38.016 236.16,38.016 Z"
         id="path68118"
         inkscape:connector-curvature="0" />
    </clipPath>
    <clipPath
       clipPathUnits="userSpaceOnUse"
       id="clipPath68132">
      <path
         d="m 236.16,38.016 c 35.28686,0 69.13322,14.01962 94.0848,38.9712 24.95158,24.95158 38.9712,58.79794 38.9712,94.0848 0,35.28686 -14.01962,69.13322 -38.9712,94.0848 -24.95158,24.95158 -58.79794,38.9712 -94.0848,38.9712 -35.28686,0 -69.13322,-14.01962 -94.0848,-38.9712 -24.95158,-24.95158 -38.9712,-58.79794 -38.9712,-94.0848 0,-35.28686 14.01962,-69.13322 38.9712,-94.0848 C 167.02678,52.03562 200.87314,38.016 236.16,38.016 Z"
         id="path68134"
         inkscape:connector-curvature="0" />
    </clipPath>
    <clipPath
       clipPathUnits="userSpaceOnUse"
       id="clipPath68148">
      <path
         d="m 236.16,38.016 c 35.28686,0 69.13322,14.01962 94.0848,38.9712 24.95158,24.95158 38.9712,58.79794 38.9712,94.0848 0,35.28686 -14.01962,69.13322 -38.9712,94.0848 -24.95158,24.95158 -58.79794,38.9712 -94.0848,38.9712 -35.28686,0 -69.13322,-14.01962 -94.0848,-38.9712 -24.95158,-24.95158 -38.9712,-58.79794 -38.9712,-94.0848 0,-35.28686 14.01962,-69.13322 38.9712,-94.0848 C 167.02678,52.03562 200.87314,38.016 236.16,38.016 Z"
         id="path68150"
         inkscape:connector-curvature="0" />
    </clipPath>
    <clipPath
       clipPathUnits="userSpaceOnUse"
       id="clipPath68164">
      <path
         d="m 236.16,38.016 c 35.28686,0 69.13322,14.01962 94.0848,38.9712 24.95158,24.95158 38.9712,58.79794 38.9712,94.0848 0,35.28686 -14.01962,69.13322 -38.9712,94.0848 -24.95158,24.95158 -58.79794,38.9712 -94.0848,38.9712 -35.28686,0 -69.13322,-14.01962 -94.0848,-38.9712 -24.95158,-24.95158 -38.9712,-58.79794 -38.9712,-94.0848 0,-35.28686 14.01962,-69.13322 38.9712,-94.0848 C 167.02678,52.03562 200.87314,38.016 236.16,38.016 Z"
         id="path68166"
         inkscape:connector-curvature="0" />
    </clipPath>
    <clipPath
       clipPathUnits="userSpaceOnUse"
       id="clipPath68180">
      <path
         d="m 236.16,38.016 c 35.28686,0 69.13322,14.01962 94.0848,38.9712 24.95158,24.95158 38.9712,58.79794 38.9712,94.0848 0,35.28686 -14.01962,69.13322 -38.9712,94.0848 -24.95158,24.95158 -58.79794,38.9712 -94.0848,38.9712 -35.28686,0 -69.13322,-14.01962 -94.0848,-38.9712 -24.95158,-24.95158 -38.9712,-58.79794 -38.9712,-94.0848 0,-35.28686 14.01962,-69.13322 38.9712,-94.0848 C 167.02678,52.03562 200.87314,38.016 236.16,38.016 Z"
         id="path68182"
         inkscape:connector-curvature="0" />
    </clipPath>
    <clipPath
       clipPathUnits="userSpaceOnUse"
       id="clipPath68322">
      <path
         d="m 236.16,38.016 c 35.28686,0 69.13322,14.01962 94.0848,38.9712 24.95158,24.95158 38.9712,58.79794 38.9712,94.0848 0,35.28686 -14.01962,69.13322 -38.9712,94.0848 -24.95158,24.95158 -58.79794,38.9712 -94.0848,38.9712 -35.28686,0 -69.13322,-14.01962 -94.0848,-38.9712 -24.95158,-24.95158 -38.9712,-58.79794 -38.9712,-94.0848 0,-35.28686 14.01962,-69.13322 38.9712,-94.0848 C 167.02678,52.03562 200.87314,38.016 236.16,38.016 Z"
         id="path68324"
         inkscape:connector-curvature="0" />
    </clipPath>
    <clipPath
       clipPathUnits="userSpaceOnUse"
       id="clipPath68338">
      <path
         d="m 236.16,38.016 c 35.28686,0 69.13322,14.01962 94.0848,38.9712 24.95158,24.95158 38.9712,58.79794 38.9712,94.0848 0,35.28686 -14.01962,69.13322 -38.9712,94.0848 -24.95158,24.95158 -58.79794,38.9712 -94.0848,38.9712 -35.28686,0 -69.13322,-14.01962 -94.0848,-38.9712 -24.95158,-24.95158 -38.9712,-58.79794 -38.9712,-94.0848 0,-35.28686 14.01962,-69.13322 38.9712,-94.0848 C 167.02678,52.03562 200.87314,38.016 236.16,38.016 Z"
         id="path68340"
         inkscape:connector-curvature="0" />
    </clipPath>
    <clipPath
       clipPathUnits="userSpaceOnUse"
       id="clipPath68354">
      <path
         d="m 236.16,38.016 c 35.28686,0 69.13322,14.01962 94.0848,38.9712 24.95158,24.95158 38.9712,58.79794 38.9712,94.0848 0,35.28686 -14.01962,69.13322 -38.9712,94.0848 -24.95158,24.95158 -58.79794,38.9712 -94.0848,38.9712 -35.28686,0 -69.13322,-14.01962 -94.0848,-38.9712 -24.95158,-24.95158 -38.9712,-58.79794 -38.9712,-94.0848 0,-35.28686 14.01962,-69.13322 38.9712,-94.0848 C 167.02678,52.03562 200.87314,38.016 236.16,38.016 Z"
         id="path68356"
         inkscape:connector-curvature="0" />
    </clipPath>
    <clipPath
       clipPathUnits="userSpaceOnUse"
       id="clipPath68370">
      <path
         d="m 236.16,38.016 c 35.28686,0 69.13322,14.01962 94.0848,38.9712 24.95158,24.95158 38.9712,58.79794 38.9712,94.0848 0,35.28686 -14.01962,69.13322 -38.9712,94.0848 -24.95158,24.95158 -58.79794,38.9712 -94.0848,38.9712 -35.28686,0 -69.13322,-14.01962 -94.0848,-38.9712 -24.95158,-24.95158 -38.9712,-58.79794 -38.9712,-94.0848 0,-35.28686 14.01962,-69.13322 38.9712,-94.0848 C 167.02678,52.03562 200.87314,38.016 236.16,38.016 Z"
         id="path68372"
         inkscape:connector-curvature="0" />
    </clipPath>
    <clipPath
       clipPathUnits="userSpaceOnUse"
       id="clipPath68386">
      <path
         d="m 236.16,38.016 c 35.28686,0 69.13322,14.01962 94.0848,38.9712 24.95158,24.95158 38.9712,58.79794 38.9712,94.0848 0,35.28686 -14.01962,69.13322 -38.9712,94.0848 -24.95158,24.95158 -58.79794,38.9712 -94.0848,38.9712 -35.28686,0 -69.13322,-14.01962 -94.0848,-38.9712 -24.95158,-24.95158 -38.9712,-58.79794 -38.9712,-94.0848 0,-35.28686 14.01962,-69.13322 38.9712,-94.0848 C 167.02678,52.03562 200.87314,38.016 236.16,38.016 Z"
         id="path68388"
         inkscape:connector-curvature="0" />
    </clipPath>
    <clipPath
       clipPathUnits="userSpaceOnUse"
       id="clipPath68402">
      <path
         d="m 236.16,38.016 c 35.28686,0 69.13322,14.01962 94.0848,38.9712 24.95158,24.95158 38.9712,58.79794 38.9712,94.0848 0,35.28686 -14.01962,69.13322 -38.9712,94.0848 -24.95158,24.95158 -58.79794,38.9712 -94.0848,38.9712 -35.28686,0 -69.13322,-14.01962 -94.0848,-38.9712 -24.95158,-24.95158 -38.9712,-58.79794 -38.9712,-94.0848 0,-35.28686 14.01962,-69.13322 38.9712,-94.0848 C 167.02678,52.03562 200.87314,38.016 236.16,38.016 Z"
         id="path68404"
         inkscape:connector-curvature="0" />
    </clipPath>
    <clipPath
       clipPathUnits="userSpaceOnUse"
       id="clipPath68418">
      <path
         d="m 236.16,38.016 c 35.28686,0 69.13322,14.01962 94.0848,38.9712 24.95158,24.95158 38.9712,58.79794 38.9712,94.0848 0,35.28686 -14.01962,69.13322 -38.9712,94.0848 -24.95158,24.95158 -58.79794,38.9712 -94.0848,38.9712 -35.28686,0 -69.13322,-14.01962 -94.0848,-38.9712 -24.95158,-24.95158 -38.9712,-58.79794 -38.9712,-94.0848 0,-35.28686 14.01962,-69.13322 38.9712,-94.0848 C 167.02678,52.03562 200.87314,38.016 236.16,38.016 Z"
         id="path68420"
         inkscape:connector-curvature="0" />
    </clipPath>
    <clipPath
       clipPathUnits="userSpaceOnUse"
       id="clipPath68434">
      <path
         d="m 236.16,38.016 c 35.28686,0 69.13322,14.01962 94.0848,38.9712 24.95158,24.95158 38.9712,58.79794 38.9712,94.0848 0,35.28686 -14.01962,69.13322 -38.9712,94.0848 -24.95158,24.95158 -58.79794,38.9712 -94.0848,38.9712 -35.28686,0 -69.13322,-14.01962 -94.0848,-38.9712 -24.95158,-24.95158 -38.9712,-58.79794 -38.9712,-94.0848 0,-35.28686 14.01962,-69.13322 38.9712,-94.0848 C 167.02678,52.03562 200.87314,38.016 236.16,38.016 Z"
         id="path68436"
         inkscape:connector-curvature="0" />
    </clipPath>
    <clipPath
       clipPathUnits="userSpaceOnUse"
       id="clipPath68450">
      <path
         d="m 236.16,38.016 c 35.28686,0 69.13322,14.01962 94.0848,38.9712 24.95158,24.95158 38.9712,58.79794 38.9712,94.0848 0,35.28686 -14.01962,69.13322 -38.9712,94.0848 -24.95158,24.95158 -58.79794,38.9712 -94.0848,38.9712 -35.28686,0 -69.13322,-14.01962 -94.0848,-38.9712 -24.95158,-24.95158 -38.9712,-58.79794 -38.9712,-94.0848 0,-35.28686 14.01962,-69.13322 38.9712,-94.0848 C 167.02678,52.03562 200.87314,38.016 236.16,38.016 Z"
         id="path68452"
         inkscape:connector-curvature="0" />
    </clipPath>
    <clipPath
       clipPathUnits="userSpaceOnUse"
       id="clipPath68466">
      <path
         d="m 236.16,38.016 c 35.28686,0 69.13322,14.01962 94.0848,38.9712 24.95158,24.95158 38.9712,58.79794 38.9712,94.0848 0,35.28686 -14.01962,69.13322 -38.9712,94.0848 -24.95158,24.95158 -58.79794,38.9712 -94.0848,38.9712 -35.28686,0 -69.13322,-14.01962 -94.0848,-38.9712 -24.95158,-24.95158 -38.9712,-58.79794 -38.9712,-94.0848 0,-35.28686 14.01962,-69.13322 38.9712,-94.0848 C 167.02678,52.03562 200.87314,38.016 236.16,38.016 Z"
         id="path68468"
         inkscape:connector-curvature="0" />
    </clipPath>
    <clipPath
       clipPathUnits="userSpaceOnUse"
       id="clipPath68482">
      <path
         d="m 236.16,38.016 c 35.28686,0 69.13322,14.01962 94.0848,38.9712 24.95158,24.95158 38.9712,58.79794 38.9712,94.0848 0,35.28686 -14.01962,69.13322 -38.9712,94.0848 -24.95158,24.95158 -58.79794,38.9712 -94.0848,38.9712 -35.28686,0 -69.13322,-14.01962 -94.0848,-38.9712 -24.95158,-24.95158 -38.9712,-58.79794 -38.9712,-94.0848 0,-35.28686 14.01962,-69.13322 38.9712,-94.0848 C 167.02678,52.03562 200.87314,38.016 236.16,38.016 Z"
         id="path68484"
         inkscape:connector-curvature="0" />
    </clipPath>
    <clipPath
       clipPathUnits="userSpaceOnUse"
       id="clipPath68498">
      <path
         d="m 236.16,38.016 c 35.28686,0 69.13322,14.01962 94.0848,38.9712 24.95158,24.95158 38.9712,58.79794 38.9712,94.0848 0,35.28686 -14.01962,69.13322 -38.9712,94.0848 -24.95158,24.95158 -58.79794,38.9712 -94.0848,38.9712 -35.28686,0 -69.13322,-14.01962 -94.0848,-38.9712 -24.95158,-24.95158 -38.9712,-58.79794 -38.9712,-94.0848 0,-35.28686 14.01962,-69.13322 38.9712,-94.0848 C 167.02678,52.03562 200.87314,38.016 236.16,38.016 Z"
         id="path68500"
         inkscape:connector-curvature="0" />
    </clipPath>
    <clipPath
       clipPathUnits="userSpaceOnUse"
       id="clipPath68514">
      <path
         d="m 236.16,38.016 c 35.28686,0 69.13322,14.01962 94.0848,38.9712 24.95158,24.95158 38.9712,58.79794 38.9712,94.0848 0,35.28686 -14.01962,69.13322 -38.9712,94.0848 -24.95158,24.95158 -58.79794,38.9712 -94.0848,38.9712 -35.28686,0 -69.13322,-14.01962 -94.0848,-38.9712 -24.95158,-24.95158 -38.9712,-58.79794 -38.9712,-94.0848 0,-35.28686 14.01962,-69.13322 38.9712,-94.0848 C 167.02678,52.03562 200.87314,38.016 236.16,38.016 Z"
         id="path68516"
         inkscape:connector-curvature="0" />
    </clipPath>
  </defs>
  <sodipodi:namedview
     id="base"
     pagecolor="#ffffff"
     bordercolor="#666666"
     borderopacity="1.0"
     inkscape:pageopacity="0.0"
     inkscape:pageshadow="2"
     inkscape:zoom="0.75351718"
     inkscape:cx="129.95547"
     inkscape:cy="98.950163"
     inkscape:document-units="px"
     inkscape:current-layer="layer1"
     showgrid="false"
     fit-margin-top="0"
     fit-margin-left="0"
     fit-margin-right="0"
     fit-margin-bottom="0"
     inkscape:window-width="1280"
     inkscape:window-height="712"
     inkscape:window-x="0"
     inkscape:window-y="1"
     inkscape:window-maximized="1" />
  <metadata
     id="metadata7">
    <rdf:RDF>
      <cc:Work
         rdf:about="">
        <dc:format>image/svg+xml</dc:format>
        <dc:type
           rdf:resource="http://purl.org/dc/dcmitype/StillImage" />
        <dc:title></dc:title>
      </cc:Work>
    </rdf:RDF>
  </metadata>
  <g
     inkscape:label="Layer 1"
     inkscape:groupmode="layer"
     id="layer1"
     transform="translate(-213.10737,-189.38441)">
    <text
       xml:space="preserve"
       style="font-style:normal;font-variant:normal;font-weight:bold;font-stretch:normal;font-size:20px;line-height:125%;font-family:'Latin Modern Roman';-inkscape-font-specification:'Latin Modern Roman,  Bold';text-align:start;letter-spacing:0px;word-spacing:0px;writing-mode:lr-tb;text-anchor:start;fill:#000000;fill-opacity:1;stroke:none;stroke-width:1px;stroke-linecap:butt;stroke-linejoin:miter;stroke-opacity:1"
       x="190.0775"
       y="708.77283"
       id="text6282"
       sodipodi:linespacing="125%"><tspan
         sodipodi:role="line"
         id="tspan6284"
         x="190.0775"
         y="708.77283" /></text>
    <g
       id="g67968"
       transform="matrix(1.0559944,0,0,-1.0559944,129.8338,926.94372)">
      <g
         id="g67970"
         clip-path="url(#clipPath67972)">
        <path
           d="m 236.16,171.072 133.056,0"
           style="fill:none;stroke:#b0b0b0;stroke-width:2.36743689;stroke-linecap:square;stroke-linejoin:round;stroke-miterlimit:10;stroke-dasharray:none;stroke-opacity:1"
           id="path67976"
           inkscape:connector-curvature="0" />
      </g>
    </g>
    <g
       id="g67984"
       transform="matrix(1.0559944,0,0,-1.0559944,129.8338,926.94372)">
      <g
         id="g67986"
         clip-path="url(#clipPath67988)">
        <path
           d="m 236.16,171.072 94.0848,94.0848"
           style="fill:none;stroke:#b0b0b0;stroke-width:2.36743689;stroke-linecap:square;stroke-linejoin:round;stroke-miterlimit:10;stroke-dasharray:none;stroke-opacity:1"
           id="path67992"
           inkscape:connector-curvature="0" />
      </g>
    </g>
    <g
       id="g68000"
       transform="matrix(1.0559944,0,0,-1.0559944,129.8338,926.94372)">
      <g
         id="g68002"
         clip-path="url(#clipPath68004)">
        <path
           d="m 236.16,171.072 0,133.056"
           style="fill:none;stroke:#b0b0b0;stroke-width:2.36743689;stroke-linecap:square;stroke-linejoin:round;stroke-miterlimit:10;stroke-dasharray:none;stroke-opacity:1"
           id="path68008"
           inkscape:connector-curvature="0" />
      </g>
    </g>
    <g
       id="g68016"
       transform="matrix(1.0559944,0,0,-1.0559944,129.8338,926.94372)">
      <g
         id="g68018"
         clip-path="url(#clipPath68020)">
        <path
           d="m 236.16,171.072 -94.0848,94.0848"
           style="fill:none;stroke:#b0b0b0;stroke-width:2.36743689;stroke-linecap:square;stroke-linejoin:round;stroke-miterlimit:10;stroke-dasharray:none;stroke-opacity:1"
           id="path68024"
           inkscape:connector-curvature="0" />
      </g>
    </g>
    <g
       id="g68032"
       transform="matrix(1.0559944,0,0,-1.0559944,129.8338,926.94372)">
      <g
         id="g68034"
         clip-path="url(#clipPath68036)">
        <path
           d="m 236.16,171.072 -133.056,0"
           style="fill:none;stroke:#b0b0b0;stroke-width:2.36743689;stroke-linecap:square;stroke-linejoin:round;stroke-miterlimit:10;stroke-dasharray:none;stroke-opacity:1"
           id="path68040"
           inkscape:connector-curvature="0" />
      </g>
    </g>
    <g
       id="g68048"
       transform="matrix(1.0559944,0,0,-1.0559944,129.8338,926.94372)">
      <g
         id="g68050"
         clip-path="url(#clipPath68052)">
        <path
           d="M 236.16,171.072 142.0752,76.9872"
           style="fill:none;stroke:#b0b0b0;stroke-width:2.36743689;stroke-linecap:square;stroke-linejoin:round;stroke-miterlimit:10;stroke-dasharray:none;stroke-opacity:1"
           id="path68056"
           inkscape:connector-curvature="0" />
      </g>
    </g>
    <g
       id="g68064"
       transform="matrix(1.0559944,0,0,-1.0559944,129.8338,926.94372)">
      <g
         id="g68066"
         clip-path="url(#clipPath68068)">
        <path
           d="m 236.16,171.072 0,-133.056"
           style="fill:none;stroke:#b0b0b0;stroke-width:2.36743689;stroke-linecap:square;stroke-linejoin:round;stroke-miterlimit:10;stroke-dasharray:none;stroke-opacity:1"
           id="path68072"
           inkscape:connector-curvature="0" />
      </g>
    </g>
    <g
       id="g68080"
       transform="matrix(1.0559944,0,0,-1.0559944,129.8338,926.94372)">
      <g
         id="g68082"
         clip-path="url(#clipPath68084)">
        <path
           d="M 236.16,171.072 330.2448,76.9872"
           style="fill:none;stroke:#b0b0b0;stroke-width:2.36743689;stroke-linecap:square;stroke-linejoin:round;stroke-miterlimit:10;stroke-dasharray:none;stroke-opacity:1"
           id="path68088"
           inkscape:connector-curvature="0" />
      </g>
    </g>
    <g
       id="g68096"
       transform="matrix(1.0559944,0,0,-1.0559944,129.8338,926.94372)">
      <g
         id="g68098"
         clip-path="url(#clipPath68100)">
        <path
           d="m 258.63932,171.072 -0.12314,2.34973 -0.36809,2.32398 -0.60899,2.27278 -0.84322,2.19667 -1.06822,2.0965 -1.28151,1.97335 -1.48076,1.82859 -1.66379,1.66379 -1.82859,1.48076 -1.97335,1.28151 -2.0965,1.06822 -2.19667,0.84322 -2.27278,0.60899 -2.32398,0.36809 -2.34973,0.12314 -2.34973,-0.12314 -2.32398,-0.36809 -2.27278,-0.60899 -2.19667,-0.84322 -2.0965,-1.06822 -1.97335,-1.28151 -1.82859,-1.48076 -1.66379,-1.66379 -1.48076,-1.82859 -1.28151,-1.97335 -1.06822,-2.0965 -0.84323,-2.19667 -0.60899,-2.27278 -0.36808,-2.32398 -0.12314,-2.34973 0.12314,-2.34973 0.36808,-2.32398 0.60899,-2.27278 0.84323,-2.19667 1.06822,-2.0965 1.28151,-1.97335 1.48076,-1.82859 1.66379,-1.66379 1.82859,-1.48076 1.97335,-1.28151 2.0965,-1.06822 2.19667,-0.84323 2.27278,-0.60899 2.32398,-0.36808 2.34973,-0.12314 2.34973,0.12314 2.32398,0.36808 2.27278,0.60899 2.19667,0.84323 2.0965,1.06822 1.97335,1.28151 1.82859,1.48076 1.66379,1.66379 1.48076,1.82859 1.28151,1.97335 1.06822,2.0965 0.84322,2.19667 0.60899,2.27278 0.36809,2.32398 0.12314,2.34973 0,0"
           style="fill:none;stroke:#b0b0b0;stroke-width:2.36743689;stroke-linecap:square;stroke-linejoin:round;stroke-miterlimit:10;stroke-dasharray:none;stroke-opacity:1"
           id="path68104"
           inkscape:connector-curvature="0" />
      </g>
    </g>
    <g
       id="g68112"
       transform="matrix(1.0559944,0,0,-1.0559944,129.8338,926.94372)">
      <g
         id="g68114"
         clip-path="url(#clipPath68116)">
        <path
           d="m 281.11864,171.072 -0.0274,1.56903 -0.0821,1.56713 -0.32802,3.12087 -0.54492,3.0904 -0.75917,3.04485 -0.96972,2.98448 -1.17554,2.90957 -1.37563,2.82047 -1.56904,2.71765 -1.75478,2.60158 -1.93199,2.47283 -2.09978,2.33204 -2.25734,2.17988 -2.4039,2.01711 -2.53875,1.84451 -2.66123,1.66293 -2.77075,1.47323 -2.86677,1.27637 -2.94882,1.07328 -3.0165,0.86497 -3.06949,0.65244 -3.10753,0.43673 -3.13043,0.21891 -3.13806,0 -3.13043,-0.21891 -3.10753,-0.43673 -3.06949,-0.65244 -3.01651,-0.86497 -2.94881,-1.07328 -2.86677,-1.27637 -2.77075,-1.47323 -2.66123,-1.66293 -2.53876,-1.84451 -2.40389,-2.01711 -2.25734,-2.17988 -2.09978,-2.33204 -1.93199,-2.47283 -1.75478,-2.60158 -1.56904,-2.71765 -1.37563,-2.82047 -1.17555,-2.90957 -0.96971,-2.98448 -0.75917,-3.04485 -0.54492,-3.0904 -0.32802,-3.12087 -0.10951,-3.13616 0.10951,-3.13616 0.32802,-3.12087 0.54492,-3.0904 0.75917,-3.04485 0.96971,-2.98448 1.17555,-2.90957 1.37563,-2.82048 1.56904,-2.71764 1.75478,-2.60158 1.93199,-2.47283 2.09978,-2.33204 2.25734,-2.17988 2.40389,-2.01711 2.53876,-1.84451 2.66123,-1.66293 2.77075,-1.47323 2.86677,-1.27637 2.94881,-1.07328 3.01651,-0.86497 3.06949,-0.65244 3.10753,-0.43673 3.13043,-0.21891 3.13806,0 3.13043,0.21891 3.10753,0.43673 3.06949,0.65244 3.0165,0.86497 2.94882,1.07328 2.86677,1.27637 2.77075,1.47323 2.66123,1.66293 2.53875,1.84451 2.4039,2.01711 2.25734,2.17988 2.09978,2.33204 1.93199,2.47283 1.75478,2.60158 1.56904,2.71764 1.37563,2.82048 1.17554,2.90957 0.96972,2.98448 0.75917,3.04485 0.54492,3.0904 0.32802,3.12087 0.10951,3.13616 0,0"
           style="fill:none;stroke:#b0b0b0;stroke-width:2.36743689;stroke-linecap:square;stroke-linejoin:round;stroke-miterlimit:10;stroke-dasharray:none;stroke-opacity:1"
           id="path68120"
           inkscape:connector-curvature="0" />
      </g>
    </g>
    <g
       id="g68128"
       transform="matrix(1.0559944,0,0,-1.0559944,129.8338,926.94372)">
      <g
         id="g68130"
         clip-path="url(#clipPath68132)">
        <path
           d="m 303.59796,171.072 -0.0411,2.35355 -0.12319,2.35068 -0.49203,4.68132 -0.81738,4.63559 -1.13875,4.56728 -1.45457,4.47672 -1.76331,4.36435 -2.06346,4.23072 -2.35355,4.07647 -2.63218,3.90236 -2.89798,3.70925 -3.14967,3.49806 -3.386,3.26982 -3.60585,3.02567 -3.80813,2.76677 -3.99185,2.49438 -4.15612,2.20985 -4.30015,1.91455 -4.42323,1.60993 -4.52476,1.29745 -4.60424,0.97866 -4.66129,0.6551 -4.69564,0.32835 -4.7071,0 -4.69564,-0.32835 -4.66129,-0.6551 -4.60424,-0.97866 -4.52476,-1.29745 -4.42323,-1.60993 -4.30015,-1.91455 -4.15612,-2.20985 -3.99185,-2.49438 -3.80813,-2.76677 -3.60585,-3.02567 -3.386,-3.26982 -3.14967,-3.49806 -2.89798,-3.70925 -2.63218,-3.90236 -2.35355,-4.07647 -2.06346,-4.23072 -1.76331,-4.36435 -1.45457,-4.47672 -1.13875,-4.56728 -0.81738,-4.63559 -0.49203,-4.68132 -0.16428,-4.70423 0.16428,-4.70424 0.49203,-4.68131 0.81738,-4.63559 1.13875,-4.56728 1.45457,-4.47672 1.76331,-4.36435 2.06346,-4.23072 2.35355,-4.07647 2.63218,-3.90236 2.89798,-3.70925 3.14967,-3.49806 3.386,-3.26982 3.60585,-3.02567 3.80813,-2.76677 3.99185,-2.49438 4.15612,-2.20985 4.30015,-1.91455 4.42323,-1.60993 4.52476,-1.29745 4.60424,-0.97866 4.66129,-0.6551 4.69564,-0.32835 4.7071,0 4.69564,0.32835 4.66129,0.6551 4.60424,0.97866 4.52476,1.29745 4.42323,1.60993 4.30015,1.91455 4.15612,2.20985 3.99185,2.49438 3.80813,2.76677 3.60585,3.02567 3.386,3.26982 3.14967,3.49806 2.89798,3.70925 2.63218,3.90236 2.35355,4.07647 2.06346,4.23072 1.76331,4.36435 1.45457,4.47672 1.13875,4.56728 0.81738,4.63559 0.49203,4.68131 0.16427,4.70424 0,0"
           style="fill:none;stroke:#b0b0b0;stroke-width:2.36743689;stroke-linecap:square;stroke-linejoin:round;stroke-miterlimit:10;stroke-dasharray:none;stroke-opacity:1"
           id="path68136"
           inkscape:connector-curvature="0" />
      </g>
    </g>
    <g
       id="g68144"
       transform="matrix(1.0559944,0,0,-1.0559944,129.8338,926.94372)">
      <g
         id="g68146"
         clip-path="url(#clipPath68148)">
        <path
           d="m 326.07729,171.072 -0.0548,3.13807 -0.16426,3.13424 -0.65603,6.24176 -1.08984,6.18078 -1.51834,6.08971 -1.93943,5.96896 -2.35108,5.81913 -2.75128,5.64096 -3.13807,5.43529 -3.50957,5.20315 -3.86397,4.94567 -4.19956,4.66408 -4.51467,4.35977 -4.8078,4.03422 -5.0775,3.68902 -5.32247,3.32584 -5.5415,2.94647 -5.73353,2.55274 -5.89764,2.14656 -6.03301,1.72994 -6.13899,1.30488 -6.21505,0.87347 -6.26085,0.4378 -6.27614,0 -6.26085,-0.4378 -6.21505,-0.87347 -6.13899,-1.30488 -6.03301,-1.72994 -5.89764,-2.14656 -5.73353,-2.55274 -5.5415,-2.94647 -5.32247,-3.32584 -5.0775,-3.68902 -4.8078,-4.03422 -4.51467,-4.35977 -4.19956,-4.66408 -3.86397,-4.94567 -3.50957,-5.20315 -3.13807,-5.43529 -2.75128,-5.64096 -2.35108,-5.81913 -1.93943,-5.96896 -1.51834,-6.08971 -1.08984,-6.18078 -0.65603,-6.24176 -0.21904,-6.27231 0.21904,-6.27231 0.65603,-6.24176 1.08984,-6.18078 1.51834,-6.08971 1.93943,-5.96896 2.35108,-5.81914 2.75128,-5.64095 3.13807,-5.43529 3.50957,-5.20315 3.86397,-4.94567 4.19956,-4.66408 4.51467,-4.35977 4.8078,-4.03422 5.0775,-3.689019 5.32247,-3.325845 5.5415,-2.946468 5.73353,-2.552734 5.89764,-2.146565 6.03301,-1.729938 6.13899,-1.304882 6.21505,-0.873469 6.26085,-0.437801 6.27614,0 6.26085,0.437801 6.21505,0.873469 6.13899,1.304882 6.03301,1.729938 5.89764,2.146565 5.73353,2.552734 5.5415,2.946468 5.32247,3.325845 5.0775,3.689019 4.8078,4.03422 4.51467,4.35977 4.19956,4.66408 3.86397,4.94567 3.50957,5.20315 3.13807,5.43529 2.75128,5.64095 2.35108,5.81914 1.93943,5.96896 1.51834,6.08971 1.08984,6.18078 0.65603,6.24176 0.21904,6.27231 0,0"
           style="fill:none;stroke:#b0b0b0;stroke-width:2.36743689;stroke-linecap:square;stroke-linejoin:round;stroke-miterlimit:10;stroke-dasharray:none;stroke-opacity:1"
           id="path68152"
           inkscape:connector-curvature="0" />
      </g>
    </g>
    <g
       id="g68160"
       transform="matrix(1.0559944,0,0,-1.0559944,129.8338,926.94372)">
      <g
         id="g68162"
         clip-path="url(#clipPath68164)">
        <path
           d="m 348.55661,171.072 -0.0685,3.92258 -0.20532,3.91781 -0.34193,3.90826 -0.47812,3.89393 -0.61372,3.87489 -0.74858,3.8511 -0.88252,3.82263 -1.0154,3.7895 -1.14702,3.75176 -1.27727,3.70944 -1.40594,3.66261 -1.53291,3.61131 -1.65801,3.55561 -1.78109,3.49558 -1.90199,3.43129 -2.02059,3.36283 -2.13672,3.29026 -2.25024,3.21368 -2.36103,3.13319 -2.46894,3.04889 -2.57384,2.96086 -2.67561,2.86923 -2.77411,2.77411 -2.86923,2.67561 -2.96086,2.57384 -3.04889,2.46894 -3.13319,2.36103 -3.21368,2.25024 -3.29026,2.13672 -3.36283,2.02059 -3.43129,1.90199 -3.49558,1.78109 -3.55561,1.65801 -3.61131,1.53291 -3.66261,1.40594 -3.70944,1.27727 -3.75176,1.14702 -3.7895,1.0154 -3.82263,0.88252 -3.8511,0.74858 -3.87489,0.61372 -3.89394,0.47812 -3.90825,0.34193 -3.91781,0.20532 -3.92258,0.0685 -3.92259,-0.0685 -3.9178,-0.20532 -3.90826,-0.34193 -3.89393,-0.47812 -3.87489,-0.61372 -3.8511,-0.74858 -3.82263,-0.88252 -3.7895,-1.0154 -3.75176,-1.14702 -3.70944,-1.27727 -3.66261,-1.40594 -3.61131,-1.53291 -3.55561,-1.65801 -3.49558,-1.78109 -3.43129,-1.90199 -3.36283,-2.02059 -3.29026,-2.13672 -3.21368,-2.25024 -3.13319,-2.36103 -3.04889,-2.46894 -2.96086,-2.57384 -2.86924,-2.67561 -2.7741,-2.77411 -2.67561,-2.86923 -2.57384,-2.96086 -2.46894,-3.04889 -2.36103,-3.13319 -2.25024,-3.21368 -2.13672,-3.29026 -2.02059,-3.36283 -1.902,-3.43129 -1.78108,-3.49558 -1.65801,-3.55561 -1.53291,-3.61131 -1.40594,-3.66261 -1.27727,-3.70944 -1.14702,-3.75176 -1.0154,-3.7895 -0.88252,-3.82263 -0.74858,-3.8511 -0.61372,-3.87489 -0.47812,-3.89393 -0.34193,-3.90826 -0.20532,-3.91781 -0.0685,-3.92258 0.0685,-3.92259 0.20532,-3.9178 0.34193,-3.90826 0.47812,-3.89393 0.61372,-3.87489 0.74858,-3.8511 0.88252,-3.82263 1.0154,-3.7895 1.14702,-3.75176 1.27727,-3.70944 1.40594,-3.66261 1.53291,-3.61131 1.65801,-3.55561 1.78108,-3.49558 1.902,-3.43129 2.02059,-3.36283 2.13672,-3.29026 2.25024,-3.21368 2.36103,-3.13319 2.46894,-3.048887 2.57384,-2.960864 2.67561,-2.869234 2.7741,-2.774109 2.86924,-2.675604 2.96086,-2.573839 3.04889,-2.468939 3.13319,-2.36103 3.21368,-2.250245 3.29026,-2.136719 3.36283,-2.020588 3.43129,-1.901997 3.49558,-1.781087 3.55561,-1.658009 3.61131,-1.532909 3.66261,-1.405943 3.70944,-1.277264 3.75176,-1.147027 3.7895,-1.015395 3.82263,-0.882524 3.8511,-0.748578 3.87489,-0.613721 3.89393,-0.478116 3.90826,-0.341928 3.9178,-0.205323 3.92259,-0.06847 3.92258,0.06847 3.91781,0.205323 3.90825,0.341928 3.89394,0.478116 3.87489,0.613721 3.8511,0.748578 3.82263,0.882524 3.7895,1.015395 3.75176,1.147027 3.70944,1.277264 3.66261,1.405943 3.61131,1.532909 3.55561,1.658009 3.49558,1.781087 3.43129,1.901997 3.36283,2.020588 3.29026,2.136719 3.21368,2.250245 3.13319,2.36103 3.04889,2.468939 2.96086,2.573839 2.86923,2.675604 2.77411,2.774109 2.67561,2.869234 2.57384,2.960864 2.46894,3.048887 2.36103,3.13319 2.25024,3.21368 2.13672,3.29026 2.02059,3.36283 1.90199,3.43129 1.78109,3.49558 1.65801,3.55561 1.53291,3.61131 1.40594,3.66261 1.27727,3.70944 1.14702,3.75176 1.0154,3.7895 0.88252,3.82263 0.74858,3.8511 0.61372,3.87489 0.47812,3.89393 0.34193,3.90826 0.20532,3.9178 0.0685,3.92259 0,0"
           style="fill:none;stroke:#b0b0b0;stroke-width:2.36743689;stroke-linecap:square;stroke-linejoin:round;stroke-miterlimit:10;stroke-dasharray:none;stroke-opacity:1"
           id="path68168"
           inkscape:connector-curvature="0" />
      </g>
    </g>
    <g
       id="g68176"
       transform="matrix(1.0559944,0,0,-1.0559944,129.8338,926.94372)">
      <g
         id="g68178"
         clip-path="url(#clipPath68180)">
        <path
           d="m 362.8821,171.072 -0.0329,2.21137 -0.0987,2.20927 -0.39448,4.40385 -0.65667,4.37023 -0.91768,4.31971 -1.17697,4.2522 -1.43394,4.16756 -1.6879,4.06567 -1.93804,3.94644 -2.18351,3.8098 -2.42325,3.65573 -2.6562,3.48431 -2.88109,3.29575 -3.0966,3.09035 -3.30128,2.86859 -3.49365,2.63113 -3.67214,2.37886 -3.83517,2.11284 -3.98114,1.8344 -4.10853,1.54509 -4.21585,1.24672 -4.30177,0.9413 -4.36507,0.63109 -4.40478,0.31852 -4.42011,0.006 -4.41059,-0.3031 -4.376,-0.60658 -4.3165,-0.90136 -4.23252,-1.18459 -4.12492,-1.45347 -3.99483,-1.70537 -3.84377,-1.93782 -3.67357,-2.1486 -3.48631,-2.33577 -3.28438,-2.49777 -3.07032,-2.63336 -2.84686,-2.74176 -2.61681,-2.82257 -2.38303,-2.87584 -2.14834,-2.90201 -1.91548,-2.90197 -1.68709,-2.87694 -1.46556,-2.82849 -1.25313,-2.7585 -1.50593,-3.96464 -1.09697,-3.7082 -0.73782,-3.40844 -0.43216,-3.07799 -0.18136,-2.72917 0.0549,-3.08583 0.28335,-2.46587 0.51182,-2.26934 0.62029,-1.68575 0.54026,-0.95258 -0.33517,0.28321 -0.89728,0.50265 -1.06816,0.31704 -0.95914,0.0608 -0.85224,-0.16453 -0.62203,-0.36306 -0.27642,-0.40529 -0.0257,-0.44098 0.22771,-0.41707 0.4582,-0.33686 0.64264,-0.21155 0.92257,-0.0521 0.96055,0.16711 0.98249,0.3946 0.81792,0.57595 0.024,0.0235 -0.0164,-0.0227 0,0 -0.43494,-0.74332 -0.49234,-1.19484 -0.53593,-1.93571 -0.35595,-2.1686 -0.1836,-2.77275 0.0444,-2.49219 0.25888,-2.84685 0.52799,-3.19087 0.85175,-3.51249 1.22804,-3.79923 1.05174,-2.66915 1.25317,-2.75857 1.4656,-2.82855 1.68713,-2.877 1.91553,-2.90203 2.14839,-2.90207 2.38309,-2.87589 2.61688,-2.82262 2.84692,-2.7418 3.07039,-2.6334 3.28444,-2.49779 3.48638,-2.33579 3.67363,-2.14861 3.84384,-1.93782 3.99489,-1.70537 4.12498,-1.45346 4.23258,-1.18457 4.31655,-0.90133 4.37605,-0.60655 4.41063,-0.30306 4.42015,0.006 4.40481,0.31857 4.3651,0.63114 4.30178,0.94137 4.21586,1.24678 4.10852,1.54517 3.98114,1.83447 3.83514,2.11291 3.67212,2.37893 3.49362,2.6312 3.30124,2.86866 3.09654,3.09042 2.88103,3.29581 2.65613,3.48439 2.42319,3.65579 2.18342,3.80985 1.93797,3.94649 1.6878,4.06571 1.43385,4.1676 1.17687,4.25223 0.91758,4.31974 0.65657,4.37025 0.39437,4.40386 0.1315,4.42064 0,0"
           style="fill:none;stroke:#1f77b4;stroke-width:11.83718399;stroke-linecap:square;stroke-linejoin:round;stroke-miterlimit:10;stroke-dasharray:none;stroke-opacity:1"
           id="path68184"
           inkscape:connector-curvature="0" />
      </g>
    </g>
    <g
       id="g68186"
       transform="matrix(1.0559944,0,0,-1.0559944,129.8338,926.94372)">
      <path
         d="m 236.16,38.016 c 35.28686,0 69.13322,14.01962 94.0848,38.9712 24.95158,24.95158 38.9712,58.79794 38.9712,94.0848 0,35.28686 -14.01962,69.13322 -38.9712,94.0848 -24.95158,24.95158 -58.79794,38.9712 -94.0848,38.9712 -35.28686,0 -69.13322,-14.01962 -94.0848,-38.9712 -24.95158,-24.95158 -38.9712,-58.79794 -38.9712,-94.0848 0,-35.28686 14.01962,-69.13322 38.9712,-94.0848 C 167.02678,52.03562 200.87314,38.016 236.16,38.016 Z"
         style="fill:none;stroke:#000000;stroke-width:2.36743689;stroke-linecap:square;stroke-linejoin:miter;stroke-miterlimit:10;stroke-dasharray:none;stroke-opacity:1"
         id="path68188"
         inkscape:connector-curvature="0" />
    </g>
    <g
       id="g68318"
       transform="matrix(1.055993,0,0,-1.055993,132.58689,564.07095)">
      <g
         id="g68320"
         clip-path="url(#clipPath68322)">
        <path
           d="m 236.16,171.072 133.056,0"
           style="fill:none;stroke:#b0b0b0;stroke-width:2.36743999;stroke-linecap:square;stroke-linejoin:round;stroke-miterlimit:10;stroke-dasharray:none;stroke-opacity:1"
           id="path68326"
           inkscape:connector-curvature="0" />
      </g>
    </g>
    <g
       id="g68334"
       transform="matrix(1.055993,0,0,-1.055993,132.58689,564.07095)">
      <g
         id="g68336"
         clip-path="url(#clipPath68338)">
        <path
           d="m 236.16,171.072 94.0848,94.0848"
           style="fill:none;stroke:#b0b0b0;stroke-width:2.36743999;stroke-linecap:square;stroke-linejoin:round;stroke-miterlimit:10;stroke-dasharray:none;stroke-opacity:1"
           id="path68342"
           inkscape:connector-curvature="0" />
      </g>
    </g>
    <g
       id="g68350"
       transform="matrix(1.055993,0,0,-1.055993,132.58689,564.07095)">
      <g
         id="g68352"
         clip-path="url(#clipPath68354)">
        <path
           d="m 236.16,171.072 0,133.056"
           style="fill:none;stroke:#b0b0b0;stroke-width:2.36743999;stroke-linecap:square;stroke-linejoin:round;stroke-miterlimit:10;stroke-dasharray:none;stroke-opacity:1"
           id="path68358"
           inkscape:connector-curvature="0" />
      </g>
    </g>
    <g
       id="g68366"
       transform="matrix(1.055993,0,0,-1.055993,132.58689,564.07095)">
      <g
         id="g68368"
         clip-path="url(#clipPath68370)">
        <path
           d="m 236.16,171.072 -94.0848,94.0848"
           style="fill:none;stroke:#b0b0b0;stroke-width:2.36743999;stroke-linecap:square;stroke-linejoin:round;stroke-miterlimit:10;stroke-dasharray:none;stroke-opacity:1"
           id="path68374"
           inkscape:connector-curvature="0" />
      </g>
    </g>
    <g
       id="g68382"
       transform="matrix(1.055993,0,0,-1.055993,132.58689,564.07095)">
      <g
         id="g68384"
         clip-path="url(#clipPath68386)">
        <path
           d="m 236.16,171.072 -133.056,0"
           style="fill:none;stroke:#b0b0b0;stroke-width:2.36743999;stroke-linecap:square;stroke-linejoin:round;stroke-miterlimit:10;stroke-dasharray:none;stroke-opacity:1"
           id="path68390"
           inkscape:connector-curvature="0" />
      </g>
    </g>
    <g
       id="g68398"
       transform="matrix(1.055993,0,0,-1.055993,132.58689,564.07095)">
      <g
         id="g68400"
         clip-path="url(#clipPath68402)">
        <path
           d="M 236.16,171.072 142.0752,76.9872"
           style="fill:none;stroke:#b0b0b0;stroke-width:2.36743999;stroke-linecap:square;stroke-linejoin:round;stroke-miterlimit:10;stroke-dasharray:none;stroke-opacity:1"
           id="path68406"
           inkscape:connector-curvature="0" />
      </g>
    </g>
    <g
       id="g68414"
       transform="matrix(1.055993,0,0,-1.055993,132.58689,564.07095)">
      <g
         id="g68416"
         clip-path="url(#clipPath68418)">
        <path
           d="m 236.16,171.072 0,-133.056"
           style="fill:none;stroke:#b0b0b0;stroke-width:2.36743999;stroke-linecap:square;stroke-linejoin:round;stroke-miterlimit:10;stroke-dasharray:none;stroke-opacity:1"
           id="path68422"
           inkscape:connector-curvature="0" />
      </g>
    </g>
    <g
       id="g68430"
       transform="matrix(1.055993,0,0,-1.055993,132.58689,564.07095)">
      <g
         id="g68432"
         clip-path="url(#clipPath68434)">
        <path
           d="M 236.16,171.072 330.2448,76.9872"
           style="fill:none;stroke:#b0b0b0;stroke-width:2.36743999;stroke-linecap:square;stroke-linejoin:round;stroke-miterlimit:10;stroke-dasharray:none;stroke-opacity:1"
           id="path68438"
           inkscape:connector-curvature="0" />
      </g>
    </g>
    <g
       id="g68446"
       transform="matrix(1.055993,0,0,-1.055993,132.58689,564.07095)">
      <g
         id="g68448"
         clip-path="url(#clipPath68450)">
        <path
           d="m 263.71966,171.072 -0.15097,2.88077 -0.45128,2.8492 -0.74662,2.78643 -1.03379,2.69312 -1.30964,2.57031 -1.57113,2.41933 -1.81541,2.24185 -2.03981,2.03981 -2.24185,1.81541 -2.41933,1.57113 -2.57031,1.30964 -2.69312,1.03379 -2.78643,0.74662 -2.8492,0.45127 -2.88077,0.15098 -2.88077,-0.15098 -2.84921,-0.45127 -2.78642,-0.74662 -2.69312,-1.03379 -2.57031,-1.30964 -2.41933,-1.57113 -2.24185,-1.81541 -2.03981,-2.03981 -1.81541,-2.24185 -1.57114,-2.41933 -1.30963,-2.57031 -1.03379,-2.69312 -0.74663,-2.78643 -0.45127,-2.8492 -0.15097,-2.88077 0.15097,-2.88077 0.45127,-2.84921 0.74663,-2.78642 1.03379,-2.69312 1.30963,-2.57031 1.57114,-2.41933 1.81541,-2.24185 2.03981,-2.03981 2.24185,-1.81541 2.41933,-1.57114 2.57031,-1.30963 2.69312,-1.03379 2.78642,-0.74663 2.84921,-0.45127 2.88077,-0.15097 2.88077,0.15097 2.8492,0.45127 2.78643,0.74663 2.69312,1.03379 2.57031,1.30963 2.41933,1.57114 2.24185,1.81541 2.03981,2.03981 1.81541,2.24185 1.57113,2.41933 1.30964,2.57031 1.03379,2.69312 0.74662,2.78642 0.45128,2.84921 0.15097,2.88077 0,0"
           style="fill:none;stroke:#b0b0b0;stroke-width:2.36743999;stroke-linecap:square;stroke-linejoin:round;stroke-miterlimit:10;stroke-dasharray:none;stroke-opacity:1"
           id="path68454"
           inkscape:connector-curvature="0" />
      </g>
    </g>
    <g
       id="g68462"
       transform="matrix(1.055993,0,0,-1.055993,132.58689,564.07095)">
      <g
         id="g68464"
         clip-path="url(#clipPath68466)">
        <path
           d="m 291.27932,171.072 -0.0336,1.92364 -0.10069,1.92129 -0.40215,3.8262 -0.66807,3.78882 -0.93074,3.73299 -1.18887,3.65898 -1.44122,3.56713 -1.68653,3.4579 -1.92364,3.33184 -2.15136,3.18953 -2.36862,3.03169 -2.57433,2.85909 -2.7675,2.67254 -2.94718,2.47298 -3.11251,2.26137 -3.26267,2.03874 -3.39694,1.80619 -3.51466,1.56482 -3.61525,1.31585 -3.69824,1.06045 -3.7632,0.79989 -3.80983,0.53544 -3.8379,0.26837 -3.84728,0 -3.8379,-0.26837 -3.80983,-0.53544 -3.7632,-0.79989 -3.69824,-1.06045 -3.61525,-1.31585 -3.51466,-1.56482 -3.39694,-1.80619 -3.26267,-2.03874 -3.11251,-2.26137 -2.94718,-2.47298 -2.7675,-2.67254 -2.57433,-2.85909 -2.36862,-3.03169 -2.15136,-3.18953 -1.92364,-3.33184 -1.68653,-3.4579 -1.44122,-3.56713 -1.18887,-3.65898 -0.93074,-3.73299 -0.66807,-3.78882 -0.40215,-3.8262 -0.13427,-3.84493 0.13427,-3.84493 0.40215,-3.8262 0.66807,-3.78882 0.93074,-3.73299 1.18887,-3.65898 1.44122,-3.56713 1.68653,-3.4579 1.92364,-3.33184 2.15136,-3.18953 2.36862,-3.0317 2.57433,-2.85908 2.7675,-2.67254 2.94718,-2.47298 3.11251,-2.26137 3.26267,-2.03874 3.39694,-1.80619 3.51466,-1.56482 3.61525,-1.31585 3.69824,-1.06045 3.7632,-0.79989 3.80983,-0.53544 3.8379,-0.26837 3.84728,0 3.8379,0.26837 3.80983,0.53544 3.7632,0.79989 3.69824,1.06045 3.61525,1.31585 3.51466,1.56482 3.39694,1.80619 3.26267,2.03874 3.11251,2.26137 2.94718,2.47298 2.7675,2.67254 2.57433,2.85908 2.36862,3.0317 2.15136,3.18953 1.92364,3.33184 1.68653,3.4579 1.44122,3.56713 1.18887,3.65898 0.93074,3.73299 0.66807,3.78882 0.40215,3.8262 0.13427,3.84493 0,0"
           style="fill:none;stroke:#b0b0b0;stroke-width:2.36743999;stroke-linecap:square;stroke-linejoin:round;stroke-miterlimit:10;stroke-dasharray:none;stroke-opacity:1"
           id="path68470"
           inkscape:connector-curvature="0" />
      </g>
    </g>
    <g
       id="g68478"
       transform="matrix(1.055993,0,0,-1.055993,132.58689,564.07095)">
      <g
         id="g68480"
         clip-path="url(#clipPath68482)">
        <path
           d="m 318.83898,171.072 -0.0504,2.88545 -0.15103,2.88194 -0.60323,5.7393 -1.00211,5.68324 -1.39611,5.59949 -1.7833,5.48846 -2.16183,5.35069 -2.5298,5.18686 -2.88545,4.99775 -3.22705,4.7843 -3.55293,4.54754 -3.86149,4.28862 -4.15125,4.00881 -4.42077,3.70947 -4.66876,3.39206 -4.89401,3.05811 -5.09541,2.70928 -5.27199,2.34724 -5.42288,1.97377 -5.54736,1.59068 -5.6448,1.19984 -5.71474,0.80315 -5.75686,0.40256 -5.77091,0 -5.75685,-0.40256 -5.71474,-0.80315 -5.6448,-1.19984 -5.54736,-1.59068 -5.42288,-1.97377 -5.27199,-2.34724 -5.09541,-2.70928 -4.89401,-3.05811 -4.66876,-3.39206 -4.42078,-3.70947 -4.15124,-4.00881 -3.86149,-4.28862 -3.55293,-4.54754 -3.22705,-4.7843 -2.88546,-4.99775 -2.5298,-5.18686 -2.16182,-5.35069 -1.78331,-5.48846 -1.3961,-5.59949 -1.00211,-5.68324 -0.60323,-5.7393 -0.2014,-5.76739 0.2014,-5.76739 0.60323,-5.7393 1.00211,-5.68324 1.3961,-5.59949 1.78331,-5.48846 2.16182,-5.35069 2.5298,-5.18686 2.88546,-4.99775 3.22705,-4.7843 3.55293,-4.54754 3.86149,-4.28862 4.15124,-4.00882 4.42078,-3.70946 4.66876,-3.39206 4.89401,-3.058115 5.09541,-2.709278 5.27199,-2.347241 5.42288,-1.973767 5.54736,-1.590678 5.6448,-1.19984 5.71474,-0.803155 5.75685,-0.402558 5.77091,0 5.75686,0.402558 5.71474,0.803155 5.6448,1.19984 5.54736,1.590678 5.42288,1.973767 5.27199,2.347241 5.09541,2.709278 4.89401,3.058115 4.66876,3.39206 4.42077,3.70946 4.15125,4.00882 3.86149,4.28862 3.55293,4.54754 3.22705,4.7843 2.88545,4.99775 2.5298,5.18686 2.16183,5.35069 1.7833,5.48846 1.39611,5.59949 1.00211,5.68324 0.60323,5.7393 0.2014,5.76739 0,0"
           style="fill:none;stroke:#b0b0b0;stroke-width:2.36743999;stroke-linecap:square;stroke-linejoin:round;stroke-miterlimit:10;stroke-dasharray:none;stroke-opacity:1"
           id="path68486"
           inkscape:connector-curvature="0" />
      </g>
    </g>
    <g
       id="g68494"
       transform="matrix(1.055993,0,0,-1.055993,132.58689,564.07095)">
      <g
         id="g68496"
         clip-path="url(#clipPath68498)">
        <path
           d="m 346.39864,171.072 -0.0672,3.84727 -0.20138,3.84259 -0.33536,3.83321 -0.46894,3.81918 -0.60194,3.80049 -0.7342,3.77716 -0.86558,3.74924 -0.9959,3.71675 -1.12501,3.67972 -1.25274,3.63822 -1.37895,3.59229 -1.50347,3.54197 -1.62618,3.48735 -1.74689,3.42846 -1.86548,3.36542 -1.98179,3.29826 -2.0957,3.22708 -2.20704,3.15199 -2.3157,3.07303 -2.42153,2.99035 -2.52443,2.90402 -2.62423,2.81414 -2.72085,2.72085 -2.81414,2.62423 -2.90402,2.52443 -2.99035,2.42153 -3.07304,2.3157 -3.15198,2.20704 -3.22708,2.0957 -3.29826,1.98179 -3.36542,1.86548 -3.42846,1.74689 -3.48735,1.62618 -3.54197,1.50347 -3.59229,1.37895 -3.63822,1.25274 -3.67972,1.12501 -3.71675,0.9959 -3.74924,0.86558 -3.77716,0.73421 -3.80049,0.60193 -3.81918,0.46894 -3.83321,0.33536 -3.84259,0.20138 -3.84727,0.0672 -3.84727,-0.0672 -3.84259,-0.20138 -3.83322,-0.33536 -3.81917,-0.46894 -3.80049,-0.60193 -3.77716,-0.73421 -3.74924,-0.86558 -3.71675,-0.9959 -3.67972,-1.12501 -3.63823,-1.25274 -3.59228,-1.37895 -3.54197,-1.50347 -3.48735,-1.62618 -3.42847,-1.74689 -3.36541,-1.86548 -3.29826,-1.98179 -3.22708,-2.0957 -3.15199,-2.20704 -3.07303,-2.3157 -2.99035,-2.42153 -2.90402,-2.52443 -2.81414,-2.62423 -2.72085,-2.72085 -2.62423,-2.81414 -2.52443,-2.90402 -2.42153,-2.99035 -2.3157,-3.07303 -2.20704,-3.15199 -2.0957,-3.22708 -1.98179,-3.29826 -1.86548,-3.36542 -1.74689,-3.42846 -1.62618,-3.48735 -1.50348,-3.54197 -1.37894,-3.59229 -1.25275,-3.63822 -1.125,-3.67972 -0.9959,-3.71675 -0.86558,-3.74924 -0.7342,-3.77716 -0.60194,-3.80049 -0.46894,-3.81918 -0.33536,-3.83321 -0.20138,-3.84259 -0.0672,-3.84727 0.0672,-3.84727 0.20138,-3.84259 0.33536,-3.83322 0.46894,-3.81917 0.60194,-3.80049 0.7342,-3.77716 0.86558,-3.74924 0.9959,-3.71675 1.125,-3.67972 1.25275,-3.63823 1.37894,-3.59228 1.50348,-3.54197 1.62618,-3.48735 1.74689,-3.42846 1.86548,-3.36542 1.98179,-3.29826 2.0957,-3.22708 2.20704,-3.15199 2.3157,-3.07303 2.42153,-2.99035 2.52443,-2.904016 2.62423,-2.814146 2.72085,-2.720847 2.81414,-2.624234 2.90402,-2.524423 2.99035,-2.421536 3.07303,-2.315699 3.15199,-2.207041 3.22708,-2.095695 3.29826,-1.981794 3.36541,-1.865479 3.42847,-1.746891 3.48735,-1.626176 3.54197,-1.503478 3.59228,-1.378949 3.63823,-1.252741 3.67972,-1.125005 3.71675,-0.995899 3.74924,-0.86558 3.77716,-0.734206 3.80049,-0.601938 3.81917,-0.468936 3.83322,-0.335363 3.84259,-0.201381 3.84727,-0.06715 3.84727,0.06715 3.84259,0.201381 3.83321,0.335363 3.81918,0.468936 3.80049,0.601938 3.77716,0.734206 3.74924,0.86558 3.71675,0.995899 3.67972,1.125005 3.63822,1.252741 3.59229,1.378949 3.54197,1.503478 3.48735,1.626176 3.42846,1.746891 3.36542,1.865479 3.29826,1.981794 3.22708,2.095695 3.15198,2.207041 3.07304,2.315699 2.99035,2.421536 2.90402,2.524423 2.81414,2.624234 2.72085,2.720847 2.62423,2.814146 2.52443,2.904016 2.42153,2.99035 2.3157,3.07303 2.20704,3.15199 2.0957,3.22708 1.98179,3.29826 1.86548,3.36542 1.74689,3.42846 1.62618,3.48735 1.50347,3.54197 1.37895,3.59228 1.25274,3.63823 1.12501,3.67972 0.9959,3.71675 0.86558,3.74924 0.7342,3.77716 0.60194,3.80049 0.46894,3.81917 0.33536,3.83322 0.20138,3.84259 0.0672,3.84727 0,0"
           style="fill:none;stroke:#b0b0b0;stroke-width:2.36743999;stroke-linecap:square;stroke-linejoin:round;stroke-miterlimit:10;stroke-dasharray:none;stroke-opacity:1"
           id="path68502"
           inkscape:connector-curvature="0" />
      </g>
    </g>
    <g
       id="g68510"
       transform="matrix(1.0047708,0,0,-1.0047708,144.74239,555.30833)">
      <g
         id="g68512"
         clip-path="url(#clipPath68514)">
        <path
           d="m 369.07082,171.072 -0.0203,2.31961 -0.0608,2.3189 -0.24318,4.63284 -0.40496,4.62149 -0.56627,4.60448 -0.72688,4.58184 -0.88663,4.55357 -1.04531,4.51973 -1.20275,4.48033 -1.35874,4.43543 -1.51309,4.38507 -1.66563,4.32931 -1.81615,4.26821 -1.96448,4.20184 -2.11042,4.13027 -2.2538,4.05359 -2.39445,3.97187 -2.53216,3.88522 -2.66679,3.79374 -2.79815,3.69753 -2.92606,3.5967 -3.05038,3.49139 -3.17093,3.38169 -3.28755,3.26778 -3.4001,3.14976 -3.50843,3.02779 -3.61237,2.90202 -3.71181,2.77262 -3.80661,2.63974 -3.89663,2.50355 -3.98176,2.36422 -4.06189,2.22195 -4.13689,2.07691 -4.20669,1.92928 -4.27117,1.77926 -4.33025,1.62707 -4.38387,1.47289 -4.43194,1.31692 -4.47441,1.15938 -4.51122,1.00047 -4.54232,0.84042 -4.56768,0.67943 -4.58729,0.51771 -4.60111,0.35548 -4.60913,0.19298 -4.61137,0.0304 -4.60782,-0.13206 -4.5985,-0.29415 -4.58344,-0.45566 -4.56268,-0.6164 -4.53626,-0.77615 -4.50422,-0.93471 -4.46663,-1.09185 -4.42357,-1.24741 -4.37509,-1.40117 -4.32129,-1.55295 -4.26225,-1.70254 -4.19808,-1.8498 -4.12886,-1.99451 -4.05472,-2.13652 -3.97577,-2.27567 -3.89212,-2.41179 -3.80391,-2.54471 -3.71125,-2.67432 -3.6143,-2.80044 -3.51316,-2.92296 -3.40802,-3.04173 -3.29898,-3.15665 -3.18621,-3.26757 -3.06987,-3.37442 -2.95008,-3.47707 -2.82702,-3.57541 -2.70083,-3.66937 -2.57169,-3.75886 -2.43973,-3.8438 -2.30514,-3.92409 -2.16804,-3.99969 -2.02863,-4.07053 -1.88704,-4.13654 -1.74344,-4.19767 -1.59802,-4.25388 -1.4509,-4.3051 -1.30226,-4.35133 -1.15226,-4.39249 -1.00105,-4.42859 -0.84881,-4.45957 -0.69569,-4.48543 -0.54184,-4.50614 -0.38745,-4.52168 -0.23264,-4.53205 -0.0776,-4.53724 0.0775,-4.53724 0.23256,-4.53206 0.38737,-4.5217 0.54176,-4.50616 0.69562,-4.48545 0.84873,-4.4596 1.00098,-4.42862 1.15219,-4.39254 1.30219,-4.35137 1.45084,-4.30515 1.59796,-4.25393 1.74339,-4.19773 1.88699,-4.1366 2.02858,-4.07059 2.16801,-3.99976 2.30509,-3.92416 2.43971,-3.843866 2.57166,-3.758933 2.70082,-3.669448 2.82701,-3.575486 2.95007,-3.477139 3.06986,-3.374493 3.18622,-3.267652 3.29899,-3.15672 3.40803,-3.041806 3.51318,-2.923028 3.61432,-2.800509 3.71128,-2.674382 3.80395,-2.54478 3.89216,-2.411845 3.97581,-2.275727 4.05477,-2.136579 4.12891,-1.99456 4.19813,-1.849843 4.26231,-1.702588 4.32135,-1.552982 4.37516,-1.401201 4.42363,-1.247439 4.46671,-1.091878 4.50429,-0.93472 4.53632,-0.776162 4.56276,-0.616409 4.58351,-0.455666 4.59857,-0.294143 4.60789,-0.132048 4.61144,0.0304 4.6092,0.192991 4.60117,0.355511 4.58736,0.517734 4.56775,0.679459 4.54238,0.840455 4.51128,1.000515 4.47446,1.159421 4.43199,1.316967 4.38392,1.472939 4.33031,1.627123 4.27121,1.779325 4.20672,1.929338 4.13693,2.076964 4.06192,2.222013 3.98179,2.364288 3.89665,2.503616 3.80662,2.639804 3.71183,2.772688 3.61238,2.902094 3.50843,3.027857 3.4001,3.149826 3.28755,3.26784 3.17092,3.381762 3.05037,3.491448 2.92605,3.596767 2.79812,3.697589 2.66677,3.793799 2.53214,3.885279 2.39441,3.97193 2.25377,4.05364 2.11038,4.13032 1.96443,4.20189 1.81611,4.26826 1.66558,4.32935 1.51305,4.38511 1.35868,4.43546 1.2027,4.48036 1.04526,4.51975 0.88658,4.5536 0.72682,4.58185 0.5662,4.6045 0.40491,4.6215 0.24312,4.63284 0.0811,4.63852 0,0"
           style="fill:none;stroke:#1f77b4;stroke-width:12.44064816;stroke-linecap:square;stroke-linejoin:round;stroke-miterlimit:10;stroke-dasharray:none;stroke-opacity:1"
           id="path68518"
           inkscape:connector-curvature="0" />
      </g>
    </g>
    <g
       id="g68520"
       transform="matrix(1.055993,0,0,-1.055993,132.58689,564.07095)">
      <path
         d="m 236.16,38.016 c 35.28686,0 69.13322,14.01962 94.0848,38.9712 24.95158,24.95158 38.9712,58.79794 38.9712,94.0848 0,35.28686 -14.01962,69.13322 -38.9712,94.0848 -24.95158,24.95158 -58.79794,38.9712 -94.0848,38.9712 -35.28686,0 -69.13322,-14.01962 -94.0848,-38.9712 -24.95158,-24.95158 -38.9712,-58.79794 -38.9712,-94.0848 0,-35.28686 14.01962,-69.13322 38.9712,-94.0848 C 167.02678,52.03562 200.87314,38.016 236.16,38.016 Z"
         style="fill:none;stroke:#000000;stroke-width:2.36743999;stroke-linecap:square;stroke-linejoin:miter;stroke-miterlimit:10;stroke-dasharray:none;stroke-opacity:1"
         id="path68522"
         inkscape:connector-curvature="0" />
    </g>
    <text
       xml:space="preserve"
       style="font-style:normal;font-variant:normal;font-weight:normal;font-stretch:normal;font-size:20px;line-height:125%;font-family:'Latin Modern Roman';-inkscape-font-specification:'Latin Modern Roman, Normal';text-align:start;letter-spacing:0px;word-spacing:0px;writing-mode:lr-tb;text-anchor:start;fill:#000000;fill-opacity:1;stroke:none;stroke-width:1px;stroke-linecap:butt;stroke-linejoin:miter;stroke-opacity:1"
       x="282.88266"
       y="586.81946"
       id="text68796"
       sodipodi:linespacing="125%"><tspan
         sodipodi:role="line"
         id="tspan68798"
         x="282.88266"
         y="586.81946"
         style="font-size:40px">Directional</tspan></text>
    <text
       xml:space="preserve"
       style="font-style:normal;font-variant:normal;font-weight:normal;font-stretch:normal;font-size:20px;line-height:125%;font-family:'Latin Modern Roman';-inkscape-font-specification:'Latin Modern Roman, Normal';text-align:start;letter-spacing:0px;word-spacing:0px;writing-mode:lr-tb;text-anchor:start;fill:#000000;fill-opacity:1;stroke:none;stroke-width:1px;stroke-linecap:butt;stroke-linejoin:miter;stroke-opacity:1"
       x="305.23349"
       y="222.01285"
       id="text68800"
       sodipodi:linespacing="125%"><tspan
         sodipodi:role="line"
         id="tspan68802"
         x="305.23349"
         y="222.01285"
         style="font-size:40px">Isotropic</tspan></text>
    <path
       style="fill:none;fill-rule:evenodd;stroke:#000000;stroke-width:6.25;stroke-linecap:butt;stroke-linejoin:miter;stroke-opacity:1;stroke-miterlimit:4;stroke-dasharray:none;marker-end:url(#marker6098)"
       d="m 381.65031,383.68443 58.39283,0"
       id="path5444"
       inkscape:connector-curvature="0" />
    <path
       inkscape:connector-curvature="0"
       id="path5558"
       d="m 382.99609,383.98539 0,-60.5686"
       style="fill:none;fill-rule:evenodd;stroke:#ff0909;stroke-width:7.0371871;stroke-linecap:butt;stroke-linejoin:miter;stroke-miterlimit:4;stroke-dasharray:none;stroke-opacity:1;marker-end:url(#marker5560)" />
    <path
       inkscape:connector-curvature="0"
       id="path7004"
       d="m 377.65031,747.68443 58.39283,0"
       style="fill:none;fill-rule:evenodd;stroke:#000000;stroke-width:6.25;stroke-linecap:butt;stroke-linejoin:miter;stroke-miterlimit:4;stroke-dasharray:none;stroke-opacity:1;marker-end:url(#marker7008)" />
    <path
       style="fill:none;fill-rule:evenodd;stroke:#ff0909;stroke-width:7.0371871;stroke-linecap:butt;stroke-linejoin:miter;stroke-miterlimit:4;stroke-dasharray:none;stroke-opacity:1;marker-end:url(#marker5560)"
       d="m 378.99609,747.98539 0,-60.5686"
       id="path7006"
       inkscape:connector-curvature="0" />
  </g>
</svg>
