<?xml version="1.0" encoding="UTF-8" standalone="no"?>
<!-- Created with Inkscape (http://www.inkscape.org/) -->

<svg
   xmlns:ns0="http://www.iki.fi/pav/software/textext/"
   xmlns:dc="http://purl.org/dc/elements/1.1/"
   xmlns:cc="http://creativecommons.org/ns#"
   xmlns:rdf="http://www.w3.org/1999/02/22-rdf-syntax-ns#"
   xmlns:svg="http://www.w3.org/2000/svg"
   xmlns="http://www.w3.org/2000/svg"
   xmlns:xlink="http://www.w3.org/1999/xlink"
   xmlns:sodipodi="http://sodipodi.sourceforge.net/DTD/sodipodi-0.dtd"
   xmlns:inkscape="http://www.inkscape.org/namespaces/inkscape"
   width="142.62299mm"
   height="119.20351mm"
   viewBox="0 0 505.35704 422.37465"
   id="svg29089"
   version="1.1"
   inkscape:version="0.91 r13725"
   sodipodi:docname="bigger_scatterplot.svg">
  <sodipodi:namedview
     id="base"
     pagecolor="#ffffff"
     bordercolor="#666666"
     borderopacity="1.0"
     inkscape:pageopacity="0.0"
     inkscape:pageshadow="2"
     inkscape:zoom="1.053139"
     inkscape:cx="220.64037"
     inkscape:cy="206.83151"
     inkscape:document-units="px"
     inkscape:current-layer="layer1"
     showgrid="false"
     inkscape:window-width="1280"
     inkscape:window-height="712"
     inkscape:window-x="0"
     inkscape:window-y="1"
     inkscape:window-maximized="1"
     fit-margin-top="0"
     fit-margin-left="0"
     fit-margin-right="0"
     fit-margin-bottom="0" />
  <defs
     id="defs29091">
    <clipPath
       clipPathUnits="userSpaceOnUse"
       id="clipPath29674">
      <path
         d="m 57.6,38.016 357.12,0 0,266.112 -357.12,0 0,-266.112 z"
         id="path29676"
         inkscape:connector-curvature="0" />
    </clipPath>
    <clipPath
       clipPathUnits="userSpaceOnUse"
       id="clipPath29684">
      <path
         d="m -3.5,-3.5 7,0 0,7 -7,0 0,-7 z"
         id="path29686"
         inkscape:connector-curvature="0" />
    </clipPath>
    <clipPath
       clipPathUnits="userSpaceOnUse"
       id="clipPath29696">
      <path
         d="m -3.5,-3.5 7,0 0,7 -7,0 0,-7 z"
         id="path29698"
         inkscape:connector-curvature="0" />
    </clipPath>
    <clipPath
       clipPathUnits="userSpaceOnUse"
       id="clipPath29708">
      <path
         d="m -3.5,-3.5 7,0 0,7 -7,0 0,-7 z"
         id="path29710"
         inkscape:connector-curvature="0" />
    </clipPath>
    <clipPath
       clipPathUnits="userSpaceOnUse"
       id="clipPath29720">
      <path
         d="m -3.5,-3.5 7,0 0,7 -7,0 0,-7 z"
         id="path29722"
         inkscape:connector-curvature="0" />
    </clipPath>
    <clipPath
       clipPathUnits="userSpaceOnUse"
       id="clipPath29732">
      <path
         d="m -3.5,-3.5 7,0 0,7 -7,0 0,-7 z"
         id="path29734"
         inkscape:connector-curvature="0" />
    </clipPath>
    <clipPath
       clipPathUnits="userSpaceOnUse"
       id="clipPath29744">
      <path
         d="m -3.5,-3.5 7,0 0,7 -7,0 0,-7 z"
         id="path29746"
         inkscape:connector-curvature="0" />
    </clipPath>
    <clipPath
       clipPathUnits="userSpaceOnUse"
       id="clipPath29756">
      <path
         d="m -3.5,-3.5 7,0 0,7 -7,0 0,-7 z"
         id="path29758"
         inkscape:connector-curvature="0" />
    </clipPath>
    <clipPath
       clipPathUnits="userSpaceOnUse"
       id="clipPath29768">
      <path
         d="m -3.5,-3.5 7,0 0,7 -7,0 0,-7 z"
         id="path29770"
         inkscape:connector-curvature="0" />
    </clipPath>
    <clipPath
       clipPathUnits="userSpaceOnUse"
       id="clipPath29778">
      <path
         d="m 57.6,38.016 357.12,0 0,266.112 -357.12,0 0,-266.112 z"
         id="path29780"
         inkscape:connector-curvature="0" />
    </clipPath>
    <clipPath
       clipPathUnits="userSpaceOnUse"
       id="clipPath29788">
      <path
         d="m -3.5,-3.5 7,0 0,7 -7,0 0,-7 z"
         id="path29790"
         inkscape:connector-curvature="0" />
    </clipPath>
    <clipPath
       clipPathUnits="userSpaceOnUse"
       id="clipPath29800">
      <path
         d="m -3.5,-3.5 7,0 0,7 -7,0 0,-7 z"
         id="path29802"
         inkscape:connector-curvature="0" />
    </clipPath>
    <clipPath
       clipPathUnits="userSpaceOnUse"
       id="clipPath29812">
      <path
         d="m -3.5,-3.5 7,0 0,7 -7,0 0,-7 z"
         id="path29814"
         inkscape:connector-curvature="0" />
    </clipPath>
    <clipPath
       clipPathUnits="userSpaceOnUse"
       id="clipPath29824">
      <path
         d="m -3.5,-3.5 7,0 0,7 -7,0 0,-7 z"
         id="path29826"
         inkscape:connector-curvature="0" />
    </clipPath>
    <clipPath
       clipPathUnits="userSpaceOnUse"
       id="clipPath29836">
      <path
         d="m -3.5,-3.5 7,0 0,7 -7,0 0,-7 z"
         id="path29838"
         inkscape:connector-curvature="0" />
    </clipPath>
    <clipPath
       clipPathUnits="userSpaceOnUse"
       id="clipPath29848">
      <path
         d="m -3.5,-3.5 7,0 0,7 -7,0 0,-7 z"
         id="path29850"
         inkscape:connector-curvature="0" />
    </clipPath>
    <clipPath
       clipPathUnits="userSpaceOnUse"
       id="clipPath29860">
      <path
         d="m -3.5,-3.5 7,0 0,7 -7,0 0,-7 z"
         id="path29862"
         inkscape:connector-curvature="0" />
    </clipPath>
    <clipPath
       clipPathUnits="userSpaceOnUse"
       id="clipPath29872">
      <path
         d="m -3.5,-3.5 7,0 0,7 -7,0 0,-7 z"
         id="path29874"
         inkscape:connector-curvature="0" />
    </clipPath>
  </defs>
  <metadata
     id="metadata29094">
    <rdf:RDF>
      <cc:Work
         rdf:about="">
        <dc:format>image/svg+xml</dc:format>
        <dc:type
           rdf:resource="http://purl.org/dc/dcmitype/StillImage" />
        <dc:title></dc:title>
      </cc:Work>
    </rdf:RDF>
  </metadata>
  <g
     id="layer1"
     inkscape:groupmode="layer"
     inkscape:label="Layer 1"
     transform="translate(-99.949364,-91.287968)">
    <path
       d="m 180.52734,159.91624 c 0.99451,0 1.94842,-0.39512 2.65165,-1.09835 0.70323,-0.70323 1.09835,-1.65714 1.09835,-2.65165 0,-0.99451 -0.39512,-1.94843 -1.09835,-2.65165 -0.70323,-0.70323 -1.65714,-1.09835 -2.65165,-1.09835 -0.99451,0 -1.94842,0.39512 -2.65165,1.09835 -0.70323,0.70322 -1.09835,1.65714 -1.09835,2.65165 0,0.99451 0.39512,1.94842 1.09835,2.65165 0.70323,0.70323 1.65714,1.09835 2.65165,1.09835 z"
       style="fill:#1f77b4;fill-opacity:1;fill-rule:nonzero;stroke:#1f77b4;stroke-width:1.25;stroke-linecap:butt;stroke-linejoin:round;stroke-miterlimit:10;stroke-dasharray:none;stroke-opacity:1"
       id="path29688"
       inkscape:connector-curvature="0" />
    <path
       inkscape:connector-curvature="0"
       id="path29700"
       style="fill:#1f77b4;fill-opacity:1;fill-rule:nonzero;stroke:#1f77b4;stroke-width:1.25;stroke-linecap:butt;stroke-linejoin:round;stroke-miterlimit:10;stroke-dasharray:none;stroke-opacity:1"
       d="m 237.73994,191.99208 c 0.99451,0 1.94842,-0.39512 2.65165,-1.09835 0.70323,-0.70323 1.09835,-1.65714 1.09835,-2.65165 0,-0.99451 -0.39512,-1.94843 -1.09835,-2.65165 -0.70323,-0.70323 -1.65714,-1.09835 -2.65165,-1.09835 -0.99451,0 -1.94843,0.39512 -2.65165,1.09835 -0.70323,0.70322 -1.09835,1.65714 -1.09835,2.65165 0,0.99451 0.39512,1.94842 1.09835,2.65165 0.70322,0.70323 1.65714,1.09835 2.65165,1.09835 z" />
    <path
       d="m 294.95254,238.39479 c 0.99451,0 1.94842,-0.39512 2.65165,-1.09835 0.70323,-0.70323 1.09835,-1.65714 1.09835,-2.65165 0,-0.99451 -0.39512,-1.94842 -1.09835,-2.65165 -0.70323,-0.70323 -1.65714,-1.09835 -2.65165,-1.09835 -0.99451,0 -1.94842,0.39512 -2.65165,1.09835 -0.70323,0.70323 -1.09835,1.65714 -1.09835,2.65165 0,0.99451 0.39512,1.94842 1.09835,2.65165 0.70323,0.70323 1.65714,1.09835 2.65165,1.09835 z"
       style="fill:#1f77b4;fill-opacity:1;fill-rule:nonzero;stroke:#1f77b4;stroke-width:1.25;stroke-linecap:butt;stroke-linejoin:round;stroke-miterlimit:10;stroke-dasharray:none;stroke-opacity:1"
       id="path29712"
       inkscape:connector-curvature="0" />
    <path
       inkscape:connector-curvature="0"
       id="path29724"
       style="fill:#1f77b4;fill-opacity:1;fill-rule:nonzero;stroke:#1f77b4;stroke-width:1.25;stroke-linecap:butt;stroke-linejoin:round;stroke-miterlimit:10;stroke-dasharray:none;stroke-opacity:1"
       d="m 352.16514,294.20958 c 0.99451,0 1.94842,-0.39512 2.65165,-1.09835 0.70323,-0.70323 1.09835,-1.65714 1.09835,-2.65165 0,-0.99451 -0.39512,-1.94842 -1.09835,-2.65165 -0.70323,-0.70323 -1.65714,-1.09835 -2.65165,-1.09835 -0.99451,0 -1.94842,0.39512 -2.65165,1.09835 -0.70323,0.70323 -1.09835,1.65714 -1.09835,2.65165 0,0.99451 0.39512,1.94842 1.09835,2.65165 0.70323,0.70323 1.65714,1.09835 2.65165,1.09835 z" />
    <path
       d="m 409.37774,348.69532 c 0.99451,0 1.94842,-0.39512 2.65165,-1.09835 0.70323,-0.70323 1.09835,-1.65714 1.09835,-2.65165 0,-0.99451 -0.39512,-1.94843 -1.09835,-2.65165 -0.70323,-0.70323 -1.65714,-1.09835 -2.65165,-1.09835 -0.99451,0 -1.94842,0.39512 -2.65165,1.09835 -0.70323,0.70322 -1.09835,1.65714 -1.09835,2.65165 0,0.99451 0.39512,1.94842 1.09835,2.65165 0.70323,0.70323 1.65714,1.09835 2.65165,1.09835 z"
       style="fill:#1f77b4;fill-opacity:1;fill-rule:nonzero;stroke:#1f77b4;stroke-width:1.25;stroke-linecap:butt;stroke-linejoin:round;stroke-miterlimit:10;stroke-dasharray:none;stroke-opacity:1"
       id="path29736"
       inkscape:connector-curvature="0" />
    <path
       inkscape:connector-curvature="0"
       id="path29748"
       style="fill:#1f77b4;fill-opacity:1;fill-rule:nonzero;stroke:#1f77b4;stroke-width:1.25;stroke-linecap:butt;stroke-linejoin:round;stroke-miterlimit:10;stroke-dasharray:none;stroke-opacity:1"
       d="m 466.59034,395.39909 c 0.99451,0 1.94842,-0.39512 2.65165,-1.09835 0.70323,-0.70323 1.09835,-1.65714 1.09835,-2.65165 0,-0.99451 -0.39512,-1.94842 -1.09835,-2.65165 -0.70323,-0.70323 -1.65714,-1.09835 -2.65165,-1.09835 -0.99451,0 -1.94842,0.39512 -2.65165,1.09835 -0.70323,0.70323 -1.09835,1.65714 -1.09835,2.65165 0,0.99451 0.39512,1.94842 1.09835,2.65165 0.70323,0.70323 1.65714,1.09835 2.65165,1.09835 z" />
    <g
       transform="matrix(1.25,0,0,-1.25,523.80294,427.54133)"
       clip-path="url(#clipPath29756)"
       id="g29754">
      <path
         inkscape:connector-curvature="0"
         id="path29760"
         style="fill:#1f77b4;fill-opacity:1;fill-rule:nonzero;stroke:#1f77b4;stroke-width:1;stroke-linecap:butt;stroke-linejoin:round;stroke-miterlimit:10;stroke-dasharray:none;stroke-opacity:1"
         d="m 0,-3 c 0.795609,0 1.55874,0.316099 2.12132,0.87868 C 2.683901,-1.55874 3,-0.795609 3,0 3,0.795609 2.683901,1.55874 2.12132,2.12132 1.55874,2.683901 0.795609,3 0,3 -0.795609,3 -1.55874,2.683901 -2.12132,2.12132 -2.683901,1.55874 -3,0.795609 -3,0 -3,-0.795609 -2.683901,-1.55874 -2.12132,-2.12132 -1.55874,-2.683901 -0.795609,-3 0,-3 Z" />
    </g>
    <g
       transform="matrix(1.25,0,0,-1.25,581.01554,455.73528)"
       id="g29764">
      <g
         clip-path="url(#clipPath29768)"
         id="g29766">
        <path
           inkscape:connector-curvature="0"
           id="path29772"
           style="fill:#1f77b4;fill-opacity:1;fill-rule:nonzero;stroke:#1f77b4;stroke-width:1;stroke-linecap:butt;stroke-linejoin:round;stroke-miterlimit:10;stroke-dasharray:none;stroke-opacity:1"
           d="m 0,-3 c 0.795609,0 1.55874,0.316099 2.12132,0.87868 C 2.683901,-1.55874 3,-0.795609 3,0 3,0.795609 2.683901,1.55874 2.12132,2.12132 1.55874,2.683901 0.795609,3 0,3 -0.795609,3 -1.55874,2.683901 -2.12132,2.12132 -2.683901,1.55874 -3,0.795609 -3,0 -3,-0.795609 -2.683901,-1.55874 -2.12132,-2.12132 -1.55874,-2.683901 -0.795609,-3 0,-3 Z" />
      </g>
    </g>
    <path
       d="m 180.52734,169.43847 c 0.99451,0 1.94842,-0.39512 2.65165,-1.09835 0.70323,-0.70323 1.09835,-1.65714 1.09835,-2.65165 0,-0.99451 -0.39512,-1.94843 -1.09835,-2.65165 -0.70323,-0.70323 -1.65714,-1.09835 -2.65165,-1.09835 -0.99451,0 -1.94842,0.39512 -2.65165,1.09835 -0.70323,0.70322 -1.09835,1.65714 -1.09835,2.65165 0,0.99451 0.39512,1.94842 1.09835,2.65165 0.70323,0.70323 1.65714,1.09835 2.65165,1.09835 z"
       style="fill:#ff7f0e;fill-opacity:1;fill-rule:nonzero;stroke:#ff7f0e;stroke-width:1.25;stroke-linecap:butt;stroke-linejoin:round;stroke-miterlimit:10;stroke-dasharray:none;stroke-opacity:1"
       id="path29792"
       inkscape:connector-curvature="0" />
    <path
       inkscape:connector-curvature="0"
       id="path29804"
       style="fill:#ff7f0e;fill-opacity:1;fill-rule:nonzero;stroke:#ff7f0e;stroke-width:1.25;stroke-linecap:butt;stroke-linejoin:round;stroke-miterlimit:10;stroke-dasharray:none;stroke-opacity:1"
       d="m 237.73994,211.96889 c 0.99451,0 1.94842,-0.39512 2.65165,-1.09835 0.70323,-0.70323 1.09835,-1.65714 1.09835,-2.65165 0,-0.99451 -0.39512,-1.94843 -1.09835,-2.65165 -0.70323,-0.70323 -1.65714,-1.09835 -2.65165,-1.09835 -0.99451,0 -1.94843,0.39512 -2.65165,1.09835 -0.70323,0.70322 -1.09835,1.65714 -1.09835,2.65165 0,0.99451 0.39512,1.94842 1.09835,2.65165 0.70322,0.70323 1.65714,1.09835 2.65165,1.09835 z" />
    <path
       d="m 294.95254,246.53355 c 0.99451,0 1.94842,-0.39512 2.65165,-1.09835 0.70323,-0.70323 1.09835,-1.65714 1.09835,-2.65165 0,-0.99451 -0.39512,-1.94843 -1.09835,-2.65165 -0.70323,-0.70323 -1.65714,-1.09835 -2.65165,-1.09835 -0.99451,0 -1.94842,0.39512 -2.65165,1.09835 -0.70323,0.70322 -1.09835,1.65714 -1.09835,2.65165 0,0.99451 0.39512,1.94842 1.09835,2.65165 0.70323,0.70323 1.65714,1.09835 2.65165,1.09835 z"
       style="fill:#ff7f0e;fill-opacity:1;fill-rule:nonzero;stroke:#ff7f0e;stroke-width:1.25;stroke-linecap:butt;stroke-linejoin:round;stroke-miterlimit:10;stroke-dasharray:none;stroke-opacity:1"
       id="path29816"
       inkscape:connector-curvature="0" />
    <path
       inkscape:connector-curvature="0"
       id="path29828"
       style="fill:#ff7f0e;fill-opacity:1;fill-rule:nonzero;stroke:#ff7f0e;stroke-width:1.25;stroke-linecap:butt;stroke-linejoin:round;stroke-miterlimit:10;stroke-dasharray:none;stroke-opacity:1"
       d="m 352.16514,288.80239 c 0.99451,0 1.94842,-0.39512 2.65165,-1.09835 0.70323,-0.70323 1.09835,-1.65714 1.09835,-2.65165 0,-0.99451 -0.39512,-1.94842 -1.09835,-2.65165 -0.70323,-0.70323 -1.65714,-1.09835 -2.65165,-1.09835 -0.99451,0 -1.94842,0.39512 -2.65165,1.09835 -0.70323,0.70323 -1.09835,1.65714 -1.09835,2.65165 0,0.99451 0.39512,1.94842 1.09835,2.65165 0.70323,0.70323 1.65714,1.09835 2.65165,1.09835 z" />
    <path
       d="m 409.37774,341.65119 c 0.99451,0 1.94842,-0.39512 2.65165,-1.09835 0.70323,-0.70323 1.09835,-1.65714 1.09835,-2.65165 0,-0.99451 -0.39512,-1.94843 -1.09835,-2.65165 -0.70323,-0.70323 -1.65714,-1.09835 -2.65165,-1.09835 -0.99451,0 -1.94842,0.39512 -2.65165,1.09835 -0.70323,0.70322 -1.09835,1.65714 -1.09835,2.65165 0,0.99451 0.39512,1.94842 1.09835,2.65165 0.70323,0.70323 1.65714,1.09835 2.65165,1.09835 z"
       style="fill:#ff7f0e;fill-opacity:1;fill-rule:nonzero;stroke:#ff7f0e;stroke-width:1.25;stroke-linecap:butt;stroke-linejoin:round;stroke-miterlimit:10;stroke-dasharray:none;stroke-opacity:1"
       id="path29840"
       inkscape:connector-curvature="0" />
    <path
       inkscape:connector-curvature="0"
       id="path29852"
       style="fill:#ff7f0e;fill-opacity:1;fill-rule:nonzero;stroke:#ff7f0e;stroke-width:1.25;stroke-linecap:butt;stroke-linejoin:round;stroke-miterlimit:10;stroke-dasharray:none;stroke-opacity:1"
       d="m 466.59034,389.19409 c 0.99451,0 1.94842,-0.39512 2.65165,-1.09835 0.70323,-0.70323 1.09835,-1.65714 1.09835,-2.65165 0,-0.99451 -0.39512,-1.94842 -1.09835,-2.65165 -0.70323,-0.70323 -1.65714,-1.09835 -2.65165,-1.09835 -0.99451,0 -1.94842,0.39512 -2.65165,1.09835 -0.70323,0.70323 -1.09835,1.65714 -1.09835,2.65165 0,0.99451 0.39512,1.94842 1.09835,2.65165 0.70323,0.70323 1.65714,1.09835 2.65165,1.09835 z" />
    <g
       transform="matrix(1.25,0,0,-1.25,523.80294,421.88386)"
       clip-path="url(#clipPath29860)"
       id="g29858">
      <path
         inkscape:connector-curvature="0"
         id="path29864"
         style="fill:#ff7f0e;fill-opacity:1;fill-rule:nonzero;stroke:#ff7f0e;stroke-width:1;stroke-linecap:butt;stroke-linejoin:round;stroke-miterlimit:10;stroke-dasharray:none;stroke-opacity:1"
         d="m 0,-3 c 0.795609,0 1.55874,0.316099 2.12132,0.87868 C 2.683901,-1.55874 3,-0.795609 3,0 3,0.795609 2.683901,1.55874 2.12132,2.12132 1.55874,2.683901 0.795609,3 0,3 -0.795609,3 -1.55874,2.683901 -2.12132,2.12132 -2.683901,1.55874 -3,0.795609 -3,0 -3,-0.795609 -2.683901,-1.55874 -2.12132,-2.12132 -1.55874,-2.683901 -0.795609,-3 0,-3 Z" />
    </g>
    <g
       transform="matrix(1.25,0,0,-1.25,581.01554,450.41728)"
       id="g29868">
      <g
         clip-path="url(#clipPath29872)"
         id="g29870">
        <path
           inkscape:connector-curvature="0"
           id="path29876"
           style="fill:#ff7f0e;fill-opacity:1;fill-rule:nonzero;stroke:#ff7f0e;stroke-width:1;stroke-linecap:butt;stroke-linejoin:round;stroke-miterlimit:10;stroke-dasharray:none;stroke-opacity:1"
           d="m 0,-3 c 0.795609,0 1.55874,0.316099 2.12132,0.87868 C 2.683901,-1.55874 3,-0.795609 3,0 3,0.795609 2.683901,1.55874 2.12132,2.12132 1.55874,2.683901 0.795609,3 0,3 -0.795609,3 -1.55874,2.683901 -2.12132,2.12132 -2.683901,1.55874 -3,0.795609 -3,0 -3,-0.795609 -2.683901,-1.55874 -2.12132,-2.12132 -1.55874,-2.683901 -0.795609,-3 0,-3 Z" />
      </g>
    </g>
    <path
       d="m 180.52734,472.27077 0,4.375"
       style="fill:#000000;fill-opacity:1;fill-rule:nonzero;stroke:#000000;stroke-width:1;stroke-linecap:butt;stroke-linejoin:round;stroke-miterlimit:10;stroke-dasharray:none;stroke-opacity:1"
       id="path29880"
       inkscape:connector-curvature="0" />
    <path
       d="m 294.95253,472.27077 0,4.375"
       style="fill:#000000;fill-opacity:1;fill-rule:nonzero;stroke:#000000;stroke-width:1;stroke-linecap:butt;stroke-linejoin:round;stroke-miterlimit:10;stroke-dasharray:none;stroke-opacity:1"
       id="path29892"
       inkscape:connector-curvature="0" />
    <path
       d="m 466.59033,472.27077 0,4.375"
       style="fill:#000000;fill-opacity:1;fill-rule:nonzero;stroke:#000000;stroke-width:1;stroke-linecap:butt;stroke-linejoin:round;stroke-miterlimit:10;stroke-dasharray:none;stroke-opacity:1"
       id="path29910"
       inkscape:connector-curvature="0" />
    <path
       d="m 581.01552,472.27077 0,4.375"
       style="fill:#000000;fill-opacity:1;fill-rule:nonzero;stroke:#000000;stroke-width:1;stroke-linecap:butt;stroke-linejoin:round;stroke-miterlimit:10;stroke-dasharray:none;stroke-opacity:1"
       id="path29922"
       inkscape:connector-curvature="0" />
    <path
       d="m 157.57143,458.27699 -4.375,0"
       style="fill:#000000;fill-opacity:1;fill-rule:nonzero;stroke:#000000;stroke-width:1;stroke-linecap:butt;stroke-linejoin:round;stroke-miterlimit:10;stroke-dasharray:none;stroke-opacity:1"
       id="path29932"
       inkscape:connector-curvature="0" />
    <path
       d="m 157.57143,371.08372 -4.375,0"
       style="fill:#000000;fill-opacity:1;fill-rule:nonzero;stroke:#000000;stroke-width:1;stroke-linecap:butt;stroke-linejoin:round;stroke-miterlimit:10;stroke-dasharray:none;stroke-opacity:1"
       id="path29944"
       inkscape:connector-curvature="0" />
    <path
       d="m 157.57143,240.29382 -4.375,0"
       style="fill:#000000;fill-opacity:1;fill-rule:nonzero;stroke:#000000;stroke-width:1;stroke-linecap:butt;stroke-linejoin:round;stroke-miterlimit:10;stroke-dasharray:none;stroke-opacity:1"
       id="path29962"
       inkscape:connector-curvature="0" />
    <path
       d="m 157.57143,153.10054 -4.375,0"
       style="fill:#000000;fill-opacity:1;fill-rule:nonzero;stroke:#000000;stroke-width:1;stroke-linecap:butt;stroke-linejoin:round;stroke-miterlimit:10;stroke-dasharray:none;stroke-opacity:1"
       id="path29974"
       inkscape:connector-curvature="0" />
    <path
       d="m 157.57143,472.27077 0,-332.64"
       style="fill:none;stroke:#000000;stroke-width:1;stroke-linecap:square;stroke-linejoin:miter;stroke-miterlimit:10;stroke-dasharray:none;stroke-opacity:1"
       id="path29984"
       inkscape:connector-curvature="0" />
    <path
       d="m 157.57143,472.27077 446.4,0"
       style="fill:none;stroke:#000000;stroke-width:1;stroke-linecap:square;stroke-linejoin:miter;stroke-miterlimit:10;stroke-dasharray:none;stroke-opacity:1"
       id="path29988"
       inkscape:connector-curvature="0" />
    <path
       d="m 486.52001,166.35444 c 0.99451,0 1.94842,-0.39512 2.65165,-1.09835 0.70323,-0.70323 1.09835,-1.65714 1.09835,-2.65165 0,-0.99451 -0.39512,-1.94843 -1.09835,-2.65165 -0.70323,-0.70323 -1.65714,-1.09835 -2.65165,-1.09835 -0.99451,0 -1.94843,0.39512 -2.65165,1.09835 -0.70323,0.70322 -1.09835,1.65714 -1.09835,2.65165 0,0.99451 0.39512,1.94842 1.09835,2.65165 0.70322,0.70323 1.65714,1.09835 2.65165,1.09835 z"
       style="fill:#1f77b4;fill-opacity:1;fill-rule:nonzero;stroke:#1f77b4;stroke-width:1.25;stroke-linecap:butt;stroke-linejoin:round;stroke-miterlimit:10;stroke-dasharray:none;stroke-opacity:1"
       id="path30781"
       inkscape:connector-curvature="0" />
    <path
       d="m 486.52001,186.33125 c 0.99451,0 1.94842,-0.39512 2.65165,-1.09835 0.70323,-0.70323 1.09835,-1.65714 1.09835,-2.65165 0,-0.99451 -0.39512,-1.94843 -1.09835,-2.65165 -0.70323,-0.70323 -1.65714,-1.09835 -2.65165,-1.09835 -0.99451,0 -1.94843,0.39512 -2.65165,1.09835 -0.70323,0.70322 -1.09835,1.65714 -1.09835,2.65165 0,0.99451 0.39512,1.94842 1.09835,2.65165 0.70322,0.70323 1.65714,1.09835 2.65165,1.09835 z"
       style="fill:#ff7f0e;fill-opacity:1;fill-rule:nonzero;stroke:#ff7f0e;stroke-width:1.25;stroke-linecap:butt;stroke-linejoin:round;stroke-miterlimit:10;stroke-dasharray:none;stroke-opacity:1"
       id="path30783"
       inkscape:connector-curvature="0" />
    <text
       sodipodi:linespacing="125%"
       id="text30785"
       y="167.38879"
       x="495.66107"
       style="font-style:normal;font-variant:normal;font-weight:normal;font-stretch:normal;font-size:20px;line-height:125%;font-family:'Latin Modern Roman';-inkscape-font-specification:'Latin Modern Roman, Normal';text-align:start;letter-spacing:0px;word-spacing:0px;writing-mode:lr-tb;text-anchor:start;fill:#000000;fill-opacity:1;stroke:none;stroke-width:1px;stroke-linecap:butt;stroke-linejoin:miter;stroke-opacity:1"
       xml:space="preserve"><tspan
         y="167.38879"
         x="495.66107"
         id="tspan30787"
         sodipodi:role="line">North-North</tspan></text>
    <text
       sodipodi:linespacing="125%"
       id="text30789"
       y="189.12737"
       x="495.66107"
       style="font-style:normal;font-variant:normal;font-weight:normal;font-stretch:normal;font-size:20px;line-height:125%;font-family:'Latin Modern Roman';-inkscape-font-specification:'Latin Modern Roman, Normal';text-align:start;letter-spacing:0px;word-spacing:0px;writing-mode:lr-tb;text-anchor:start;fill:#000000;fill-opacity:1;stroke:none;stroke-width:1px;stroke-linecap:butt;stroke-linejoin:miter;stroke-opacity:1"
       xml:space="preserve"><tspan
         y="189.12737"
         x="495.66107"
         id="tspan30791"
         sodipodi:role="line">North-South</tspan></text>
    <text
       sodipodi:linespacing="125%"
       id="text30793"
       y="114.94936"
       x="-358.70438"
       style="font-style:normal;font-variant:normal;font-weight:normal;font-stretch:normal;font-size:20px;line-height:125%;font-family:'Latin Modern Roman';-inkscape-font-specification:'Latin Modern Roman, Normal';text-align:start;letter-spacing:0px;word-spacing:0px;writing-mode:lr-tb;text-anchor:start;fill:#000000;fill-opacity:1;stroke:none;stroke-width:1px;stroke-linecap:butt;stroke-linejoin:miter;stroke-opacity:1"
       xml:space="preserve"
       transform="matrix(0,-1,1,0,0,0)"><tspan
         y="114.94936"
         x="-358.70438"
         id="tspan30795"
         sodipodi:role="line">Energy (eV)</tspan></text>
    <g
       id="g30922"
       ns0:preamble="/Users/peacenick36/header.txt"
       ns0:text="$r_0$ (nm)"
       transform="matrix(2,0,0,2,-99.251862,239.13263)">
      <defs
         id="defs30924">
        <g
           id="g30926">
          <symbol
             id="textext-86baa474-0"
             overflow="visible"
             style="overflow:visible">
            <path
               id="path30929"
               d=""
               style="stroke:none"
               inkscape:connector-curvature="0" />
          </symbol>
          <symbol
             id="textext-86baa474-1"
             overflow="visible"
             style="overflow:visible">
            <path
               id="path30932"
               d="m 0.875,-0.59375 c -0.03125,0.15625 -0.09375,0.390625 -0.09375,0.4375 0,0.171875 0.140625,0.265625 0.296875,0.265625 0.125,0 0.296875,-0.078125 0.375,-0.28125 C 1.46875,-0.203125 1.796875,-1.5625 1.84375,-1.75 c 0.078125,-0.328125 0.265625,-1.015625 0.3125,-1.296875 0.046875,-0.125 0.328125,-0.59375 0.5625,-0.8125 0.078125,-0.0625 0.375,-0.328125 0.796875,-0.328125 0.265625,0 0.40625,0.125 0.421875,0.125 -0.296875,0.046875 -0.515625,0.28125 -0.515625,0.546875 0,0.15625 0.109375,0.34375 0.375,0.34375 0.265625,0 0.546875,-0.234375 0.546875,-0.59375 0,-0.34375 -0.3125,-0.640625 -0.828125,-0.640625 C 2.875,-4.40625 2.4375,-3.921875 2.25,-3.640625 2.15625,-4.09375 1.796875,-4.40625 1.328125,-4.40625 0.875,-4.40625 0.6875,-4.015625 0.59375,-3.84375 0.421875,-3.5 0.296875,-2.90625 0.296875,-2.875 c 0,0.109375 0.09375,0.109375 0.109375,0.109375 0.109375,0 0.109375,-0.015625 0.171875,-0.234375 0.171875,-0.703125 0.375,-1.1875 0.734375,-1.1875 0.15625,0 0.296875,0.078125 0.296875,0.453125 0,0.21875 -0.03125,0.328125 -0.15625,0.84375 z m 0,0"
               style="stroke:none"
               inkscape:connector-curvature="0" />
          </symbol>
          <symbol
             id="textext-86baa474-2"
             overflow="visible"
             style="overflow:visible">
            <path
               id="path30935"
               d=""
               style="stroke:none"
               inkscape:connector-curvature="0" />
          </symbol>
          <symbol
             id="textext-86baa474-3"
             overflow="visible"
             style="overflow:visible">
            <path
               id="path30938"
               d="M 3.59375,-2.21875 C 3.59375,-2.984375 3.5,-3.546875 3.1875,-4.03125 2.96875,-4.34375 2.53125,-4.625 1.984375,-4.625 c -1.625,0 -1.625,1.90625 -1.625,2.40625 0,0.5 0,2.359375 1.625,2.359375 1.609375,0 1.609375,-1.859375 1.609375,-2.359375 z M 1.984375,-0.0625 c -0.328125,0 -0.75,-0.1875 -0.890625,-0.75 C 1,-1.21875 1,-1.796875 1,-2.3125 1,-2.828125 1,-3.359375 1.09375,-3.734375 1.25,-4.28125 1.6875,-4.4375 1.984375,-4.4375 c 0.375,0 0.734375,0.234375 0.859375,0.640625 0.109375,0.375 0.125,0.875 0.125,1.484375 0,0.515625 0,1.03125 -0.09375,1.46875 -0.140625,0.640625 -0.609375,0.78125 -0.890625,0.78125 z m 0,0"
               style="stroke:none"
               inkscape:connector-curvature="0" />
          </symbol>
          <symbol
             id="textext-86baa474-4"
             overflow="visible"
             style="overflow:visible">
            <path
               id="path30941"
               d=""
               style="stroke:none"
               inkscape:connector-curvature="0" />
          </symbol>
          <symbol
             id="textext-86baa474-5"
             overflow="visible"
             style="overflow:visible">
            <path
               id="path30944"
               d="m 3.296875,2.390625 c 0,-0.03125 0,-0.046875 -0.171875,-0.21875 C 1.890625,0.921875 1.5625,-0.96875 1.5625,-2.5 c 0,-1.734375 0.375,-3.46875 1.609375,-4.703125 0.125,-0.125 0.125,-0.140625 0.125,-0.171875 0,-0.078125 -0.03125,-0.109375 -0.09375,-0.109375 -0.109375,0 -1,0.6875 -1.59375,1.953125 -0.5,1.09375 -0.625,2.203125 -0.625,3.03125 0,0.78125 0.109375,1.984375 0.65625,3.125 C 2.25,1.84375 3.09375,2.5 3.203125,2.5 c 0.0625,0 0.09375,-0.03125 0.09375,-0.109375 z m 0,0"
               style="stroke:none"
               inkscape:connector-curvature="0" />
          </symbol>
          <symbol
             id="textext-86baa474-6"
             overflow="visible"
             style="overflow:visible">
            <path
               id="path30947"
               d="m 1.09375,-3.421875 0,2.671875 c 0,0.4375 -0.109375,0.4375 -0.78125,0.4375 l 0,0.3125 c 0.359375,-0.015625 0.859375,-0.03125 1.140625,-0.03125 0.25,0 0.765625,0.015625 1.109375,0.03125 l 0,-0.3125 c -0.671875,0 -0.78125,0 -0.78125,-0.4375 l 0,-1.84375 C 1.78125,-3.625 2.5,-4.1875 3.125,-4.1875 c 0.640625,0 0.75,0.53125 0.75,1.109375 l 0,2.328125 c 0,0.4375 -0.109375,0.4375 -0.78125,0.4375 l 0,0.3125 c 0.34375,-0.015625 0.859375,-0.03125 1.125,-0.03125 0.25,0 0.78125,0.015625 1.109375,0.03125 l 0,-0.3125 c -0.515625,0 -0.765625,0 -0.765625,-0.296875 l 0,-1.90625 c 0,-0.859375 0,-1.15625 -0.3125,-1.515625 -0.140625,-0.171875 -0.46875,-0.375 -1.046875,-0.375 C 2.46875,-4.40625 2,-3.984375 1.71875,-3.359375 l 0,-1.046875 -1.40625,0.109375 0,0.3125 c 0.703125,0 0.78125,0.0625 0.78125,0.5625 z m 0,0"
               style="stroke:none"
               inkscape:connector-curvature="0" />
          </symbol>
          <symbol
             id="textext-86baa474-7"
             overflow="visible"
             style="overflow:visible">
            <path
               id="path30950"
               d="m 1.09375,-3.421875 0,2.671875 c 0,0.4375 -0.109375,0.4375 -0.78125,0.4375 l 0,0.3125 c 0.359375,-0.015625 0.859375,-0.03125 1.140625,-0.03125 0.25,0 0.765625,0.015625 1.109375,0.03125 l 0,-0.3125 c -0.671875,0 -0.78125,0 -0.78125,-0.4375 l 0,-1.84375 C 1.78125,-3.625 2.5,-4.1875 3.125,-4.1875 c 0.640625,0 0.75,0.53125 0.75,1.109375 l 0,2.328125 c 0,0.4375 -0.109375,0.4375 -0.78125,0.4375 l 0,0.3125 c 0.34375,-0.015625 0.859375,-0.03125 1.125,-0.03125 0.25,0 0.78125,0.015625 1.109375,0.03125 l 0,-0.3125 c -0.65625,0 -0.765625,0 -0.765625,-0.4375 l 0,-1.84375 c 0,-1.03125 0.703125,-1.59375 1.34375,-1.59375 0.625,0 0.734375,0.53125 0.734375,1.109375 l 0,2.328125 c 0,0.4375 -0.109375,0.4375 -0.78125,0.4375 l 0,0.3125 c 0.34375,-0.015625 0.859375,-0.03125 1.125,-0.03125 0.265625,0 0.78125,0.015625 1.125,0.03125 l 0,-0.3125 c -0.515625,0 -0.765625,0 -0.78125,-0.296875 l 0,-1.90625 c 0,-0.859375 0,-1.15625 -0.3125,-1.515625 -0.140625,-0.171875 -0.46875,-0.375 -1.046875,-0.375 -0.828125,0 -1.28125,0.59375 -1.4375,0.984375 C 4.390625,-4.296875 3.65625,-4.40625 3.203125,-4.40625 2.46875,-4.40625 2,-3.984375 1.71875,-3.359375 l 0,-1.046875 -1.40625,0.109375 0,0.3125 c 0.703125,0 0.78125,0.0625 0.78125,0.5625 z m 0,0"
               style="stroke:none"
               inkscape:connector-curvature="0" />
          </symbol>
          <symbol
             id="textext-86baa474-8"
             overflow="visible"
             style="overflow:visible">
            <path
               id="path30953"
               d="m 2.875,-2.5 c 0,-0.765625 -0.109375,-1.96875 -0.65625,-3.109375 -0.59375,-1.21875 -1.453125,-1.875 -1.546875,-1.875 -0.0625,0 -0.109375,0.046875 -0.109375,0.109375 0,0.03125 0,0.046875 0.1875,0.234375 0.984375,0.984375 1.546875,2.5625 1.546875,4.640625 0,1.71875 -0.359375,3.46875 -1.59375,4.71875 C 0.5625,2.34375 0.5625,2.359375 0.5625,2.390625 0.5625,2.453125 0.609375,2.5 0.671875,2.5 0.765625,2.5 1.671875,1.8125 2.25,0.546875 2.765625,-0.546875 2.875,-1.65625 2.875,-2.5 Z m 0,0"
               style="stroke:none"
               inkscape:connector-curvature="0" />
          </symbol>
        </g>
      </defs>
      <g
         id="textext-86baa474-9">
        <g
           id="g30956"
           style="fill:#000000;fill-opacity:1">
          <use
             id="use30958"
             y="134.765"
             x="223.43201"
             xlink:href="#textext-86baa474-1"
             width="100%"
             height="100%" />
        </g>
        <g
           id="g30960"
           style="fill:#000000;fill-opacity:1">
          <use
             id="use30962"
             y="136.259"
             x="227.927"
             xlink:href="#textext-86baa474-3"
             width="100%"
             height="100%" />
        </g>
        <g
           id="g30964"
           style="fill:#000000;fill-opacity:1">
          <use
             id="use30966"
             y="134.765"
             x="235.717"
             xlink:href="#textext-86baa474-5"
             width="100%"
             height="100%" />
          <use
             id="use30968"
             y="134.765"
             x="239.59146"
             xlink:href="#textext-86baa474-6"
             width="100%"
             height="100%" />
          <use
             id="use30970"
             y="134.765"
             x="245.12668"
             xlink:href="#textext-86baa474-7"
             width="100%"
             height="100%" />
          <use
             id="use30972"
             y="134.765"
             x="253.42851"
             xlink:href="#textext-86baa474-8"
             width="100%"
             height="100%" />
        </g>
      </g>
    </g>
    <text
       xml:space="preserve"
       style="font-style:normal;font-variant:normal;font-weight:normal;font-stretch:normal;font-size:20px;line-height:125%;font-family:'Latin Modern Roman';-inkscape-font-specification:'Latin Modern Roman, Normal';text-align:start;letter-spacing:0px;word-spacing:0px;writing-mode:lr-tb;text-anchor:start;fill:#000000;fill-opacity:1;stroke:none;stroke-width:1px;stroke-linecap:butt;stroke-linejoin:miter;stroke-opacity:1"
       x="117.14971"
       y="159.73647"
       id="text31128"
       sodipodi:linespacing="125%"><tspan
         sodipodi:role="line"
         id="tspan31130"
         x="117.14971"
         y="159.73647">3.25</tspan></text>
    <text
       xml:space="preserve"
       style="font-style:normal;font-variant:normal;font-weight:normal;font-stretch:normal;font-size:20px;line-height:125%;font-family:'Latin Modern Roman';-inkscape-font-specification:'Latin Modern Roman, Normal';text-align:start;letter-spacing:0px;word-spacing:0px;writing-mode:lr-tb;text-anchor:start;fill:#000000;fill-opacity:1;stroke:none;stroke-width:1px;stroke-linecap:butt;stroke-linejoin:miter;stroke-opacity:1"
       x="117.0514"
       y="247.02974"
       id="text31132"
       sodipodi:linespacing="125%"><tspan
         sodipodi:role="line"
         id="tspan31134"
         x="117.0514"
         y="247.02974">2.75</tspan></text>
    <text
       xml:space="preserve"
       style="font-style:normal;font-variant:normal;font-weight:normal;font-stretch:normal;font-size:20px;line-height:125%;font-family:'Latin Modern Roman';-inkscape-font-specification:'Latin Modern Roman, Normal';text-align:start;letter-spacing:0px;word-spacing:0px;writing-mode:lr-tb;text-anchor:start;fill:#000000;fill-opacity:1;stroke:none;stroke-width:1px;stroke-linecap:butt;stroke-linejoin:miter;stroke-opacity:1"
       x="117.07262"
       y="377.71967"
       id="text31136"
       sodipodi:linespacing="125%"><tspan
         sodipodi:role="line"
         id="tspan31138"
         x="117.07262"
         y="377.71967">2.00</tspan></text>
    <text
       xml:space="preserve"
       style="font-style:normal;font-variant:normal;font-weight:normal;font-stretch:normal;font-size:20px;line-height:125%;font-family:'Latin Modern Roman';-inkscape-font-specification:'Latin Modern Roman, Normal';text-align:start;letter-spacing:0px;word-spacing:0px;writing-mode:lr-tb;text-anchor:start;fill:#000000;fill-opacity:1;stroke:none;stroke-width:1px;stroke-linecap:butt;stroke-linejoin:miter;stroke-opacity:1"
       x="116.91151"
       y="464.91293"
       id="text31140"
       sodipodi:linespacing="125%"><tspan
         sodipodi:role="line"
         id="tspan31142"
         x="116.91151"
         y="464.91293">1.50</tspan></text>
    <text
       xml:space="preserve"
       style="font-style:normal;font-variant:normal;font-weight:normal;font-stretch:normal;font-size:20px;line-height:125%;font-family:'Latin Modern Roman';-inkscape-font-specification:'Latin Modern Roman, Normal';text-align:start;letter-spacing:0px;word-spacing:0px;writing-mode:lr-tb;text-anchor:start;fill:#000000;fill-opacity:1;stroke:none;stroke-width:1px;stroke-linecap:butt;stroke-linejoin:miter;stroke-opacity:1"
       x="170.5706"
       y="492.4028"
       id="text31144"
       sodipodi:linespacing="125%"><tspan
         sodipodi:role="line"
         id="tspan31146"
         x="170.5706"
         y="492.4028">30</tspan></text>
    <text
       xml:space="preserve"
       style="font-style:normal;font-variant:normal;font-weight:normal;font-stretch:normal;font-size:20px;line-height:125%;font-family:'Latin Modern Roman';-inkscape-font-specification:'Latin Modern Roman, Normal';text-align:start;letter-spacing:0px;word-spacing:0px;writing-mode:lr-tb;text-anchor:start;fill:#000000;fill-opacity:1;stroke:none;stroke-width:1px;stroke-linecap:butt;stroke-linejoin:miter;stroke-opacity:1"
       x="284.92191"
       y="492.4028"
       id="text31148"
       sodipodi:linespacing="125%"><tspan
         sodipodi:role="line"
         id="tspan31150"
         x="284.92191"
         y="492.4028">50</tspan></text>
    <text
       xml:space="preserve"
       style="font-style:normal;font-variant:normal;font-weight:normal;font-stretch:normal;font-size:20px;line-height:125%;font-family:'Latin Modern Roman';-inkscape-font-specification:'Latin Modern Roman, Normal';text-align:start;letter-spacing:0px;word-spacing:0px;writing-mode:lr-tb;text-anchor:start;fill:#000000;fill-opacity:1;stroke:none;stroke-width:1px;stroke-linecap:butt;stroke-linejoin:miter;stroke-opacity:1"
       x="456.5817"
       y="492.4028"
       id="text31152"
       sodipodi:linespacing="125%"><tspan
         sodipodi:role="line"
         id="tspan31154"
         x="456.5817"
         y="492.4028">80</tspan></text>
    <text
       xml:space="preserve"
       style="font-style:normal;font-variant:normal;font-weight:normal;font-stretch:normal;font-size:20px;line-height:125%;font-family:'Latin Modern Roman';-inkscape-font-specification:'Latin Modern Roman, Normal';text-align:start;letter-spacing:0px;word-spacing:0px;writing-mode:lr-tb;text-anchor:start;fill:#000000;fill-opacity:1;stroke:none;stroke-width:1px;stroke-linecap:butt;stroke-linejoin:miter;stroke-opacity:1"
       x="565.79974"
       y="492.4028"
       id="text31156"
       sodipodi:linespacing="125%"><tspan
         sodipodi:role="line"
         id="tspan31158"
         x="565.79974"
         y="492.4028">100</tspan></text>
    <text
       xml:space="preserve"
       style="font-style:normal;font-variant:normal;font-weight:normal;font-stretch:normal;font-size:26.8864975px;line-height:125%;font-family:'Latin Modern Roman';-inkscape-font-specification:'Latin Modern Roman, Normal';text-align:start;letter-spacing:0px;word-spacing:0px;writing-mode:lr-tb;text-anchor:start;fill:#000000;fill-opacity:1;stroke:none;stroke-width:1px;stroke-linecap:butt;stroke-linejoin:miter;stroke-opacity:1"
       x="200.49086"
       y="117.9472"
       id="text31160"
       sodipodi:linespacing="125%"><tspan
         sodipodi:role="line"
         id="tspan31162"
         x="200.49086"
         y="117.9472">Bigger constituent nanoparticles</tspan></text>
  </g>
</svg>
