<?xml version="1.0" encoding="UTF-8" standalone="no"?>
<!-- Created with Inkscape (http://www.inkscape.org/) -->

<svg
   xmlns:ns0="http://www.iki.fi/pav/software/textext/"
   xmlns:dc="http://purl.org/dc/elements/1.1/"
   xmlns:cc="http://creativecommons.org/ns#"
   xmlns:rdf="http://www.w3.org/1999/02/22-rdf-syntax-ns#"
   xmlns:svg="http://www.w3.org/2000/svg"
   xmlns="http://www.w3.org/2000/svg"
   xmlns:xlink="http://www.w3.org/1999/xlink"
   xmlns:sodipodi="http://sodipodi.sourceforge.net/DTD/sodipodi-0.dtd"
   xmlns:inkscape="http://www.inkscape.org/namespaces/inkscape"
   width="141.74103mm"
   height="239.6151mm"
   viewBox="0 0 502.23199 849.02987"
   id="svg28859"
   version="1.1"
   inkscape:version="0.91 r13725"
   sodipodi:docname="CL_spectra_TGM.svg">
  <sodipodi:namedview
     id="base"
     pagecolor="#ffffff"
     bordercolor="#666666"
     borderopacity="1.0"
     inkscape:pageopacity="0.0"
     inkscape:pageshadow="2"
     inkscape:zoom="1.0304605"
     inkscape:cx="264.99003"
     inkscape:cy="722.58628"
     inkscape:document-units="px"
     inkscape:current-layer="layer1"
     showgrid="false"
     inkscape:window-width="1280"
     inkscape:window-height="712"
     inkscape:window-x="0"
     inkscape:window-y="1"
     inkscape:window-maximized="1"
     fit-margin-top="0"
     fit-margin-left="0"
     fit-margin-right="0"
     fit-margin-bottom="0" />
  <defs
     id="defs28861">
    <clipPath
       id="clipPath29510"
       clipPathUnits="userSpaceOnUse">
      <path
         inkscape:connector-curvature="0"
         id="path29512"
         d="m 57.6,183.168 357.12,0 0,120.96 -357.12,0 0,-120.96 z" />
    </clipPath>
    <clipPath
       id="clipPath29520"
       clipPathUnits="userSpaceOnUse">
      <path
         inkscape:connector-curvature="0"
         id="path29522"
         d="m 57.6,183.168 357.12,0 0,120.96 -357.12,0 0,-120.96 z" />
    </clipPath>
    <clipPath
       id="clipPath29628"
       clipPathUnits="userSpaceOnUse">
      <path
         inkscape:connector-curvature="0"
         id="path29630"
         d="m 57.6,38.016 357.12,0 0,120.96 -357.12,0 0,-120.96 z" />
    </clipPath>
    <clipPath
       id="clipPath29638"
       clipPathUnits="userSpaceOnUse">
      <path
         inkscape:connector-curvature="0"
         id="path29640"
         d="m 57.6,38.016 357.12,0 0,120.96 -357.12,0 0,-120.96 z" />
    </clipPath>
    <clipPath
       id="clipPath29869"
       clipPathUnits="userSpaceOnUse">
      <path
         inkscape:connector-curvature="0"
         id="path29871"
         d="m 57.6,183.168 357.12,0 0,120.96 -357.12,0 0,-120.96 z" />
    </clipPath>
    <clipPath
       id="clipPath29879"
       clipPathUnits="userSpaceOnUse">
      <path
         inkscape:connector-curvature="0"
         id="path29881"
         d="m 57.6,183.168 357.12,0 0,120.96 -357.12,0 0,-120.96 z" />
    </clipPath>
    <clipPath
       id="clipPath29975"
       clipPathUnits="userSpaceOnUse">
      <path
         inkscape:connector-curvature="0"
         id="path29977"
         d="m 57.6,38.016 357.12,0 0,120.96 -357.12,0 0,-120.96 z" />
    </clipPath>
    <clipPath
       id="clipPath29985"
       clipPathUnits="userSpaceOnUse">
      <path
         inkscape:connector-curvature="0"
         id="path29987"
         d="m 57.6,38.016 357.12,0 0,120.96 -357.12,0 0,-120.96 z" />
    </clipPath>
  </defs>
  <metadata
     id="metadata28864">
    <rdf:RDF>
      <cc:Work
         rdf:about="">
        <dc:format>image/svg+xml</dc:format>
        <dc:type
           rdf:resource="http://purl.org/dc/dcmitype/StillImage" />
        <dc:title></dc:title>
      </cc:Work>
    </rdf:RDF>
  </metadata>
  <g
     inkscape:label="Layer 1"
     inkscape:groupmode="layer"
     id="layer1"
     transform="translate(-120.67694,-85.267129)">
    <g
       clip-path="url(#clipPath29510)"
       id="g29508"
       transform="matrix(1.25,0,0,-1.25,102.71428,504.07649)">
      <path
         inkscape:connector-curvature="0"
         id="path29514"
         style="fill:none;stroke:#1f2db4;stroke-width:3;stroke-linecap:square;stroke-linejoin:round;stroke-miterlimit:10;stroke-dasharray:none;stroke-opacity:1"
         d="m 73.832727,197.79875 10.821818,1.24246 10.821819,1.36696 10.821816,1.50983 10.82182,1.67469 10.82182,1.86602 10.82182,2.09043 10.82181,2.35502 10.82182,2.66999 10.82182,3.04992 10.82182,3.5118 10.82182,4.08196 10.82181,4.79355 10.82182,5.6946 10.82182,6.84588 10.82182,8.32075 10.82182,10.16589 10.82182,12.26414 10.82181,13.8392 10.82182,12.14959 10.82182,1.33839 10.82182,-19.39942 10.82182,-30.56681 10.82181,-21.24534 10.82182,-7.36229 10.82182,1.60924 10.82182,6.2859 10.82182,8.6665 10.82182,9.90155 10.82181,10.48972 10.82182,10.59879" />
    </g>
    <path
       inkscape:connector-curvature="0"
       id="path29528"
       style="fill:none;stroke:#000000;stroke-width:1.875;stroke-linecap:square;stroke-linejoin:miter;stroke-miterlimit:10;stroke-dasharray:none;stroke-opacity:1"
       d="m 174.71428,275.11649 0,-151.2" />
    <path
       inkscape:connector-curvature="0"
       id="path29530"
       style="fill:none;stroke:#000000;stroke-width:1.875;stroke-linecap:square;stroke-linejoin:miter;stroke-miterlimit:10;stroke-dasharray:none;stroke-opacity:1"
       d="m 621.11428,275.11649 0,-151.2" />
    <path
       inkscape:connector-curvature="0"
       id="path29534"
       style="fill:none;stroke:#000000;stroke-width:1.875;stroke-linecap:square;stroke-linejoin:miter;stroke-miterlimit:10;stroke-dasharray:none;stroke-opacity:1"
       d="m 174.71428,123.91649 446.4,0" />
    <path
       inkscape:connector-curvature="0"
       id="path29538"
       style="fill:none;stroke:#1f2db4;stroke-width:1.875;stroke-linecap:square;stroke-linejoin:round;stroke-miterlimit:10;stroke-dasharray:none;stroke-opacity:1"
       d="m 185.96428,140.28368 25,0" />
    <text
       id="text29540"
       style="font-variant:normal;font-weight:normal;font-size:12.5px;font-family:DejaVuSans;-inkscape-font-specification:DejaVuSans;writing-mode:lr-tb;fill:#000000;fill-opacity:1;fill-rule:nonzero;stroke:none"
       x="220.96428"
       y="144.65869">
      <tspan
         id="tspan29542"
         sodipodi:role="line"
         y="144.65869"
         x="220.96428 230.31429 238.25179 242.22678 249.62679">NS xz</tspan>
    </text>
    <path
       inkscape:connector-curvature="0"
       id="path29552"
       style="fill:#000000;fill-opacity:1;fill-rule:nonzero;stroke:#000000;stroke-width:1;stroke-linecap:butt;stroke-linejoin:round;stroke-miterlimit:10;stroke-dasharray:none;stroke-opacity:1"
       d="m 195.00519,426.55649 0,4.375" />
    <text
       id="text29554"
       style="font-variant:normal;font-weight:normal;font-size:12.5px;font-family:DejaVuSans;-inkscape-font-specification:DejaVuSans;writing-mode:lr-tb;fill:#000000;fill-opacity:1;fill-rule:nonzero;stroke:none"
       x="181.08917"
       y="444.79868">
      <tspan
         id="tspan29556"
         sodipodi:role="line"
         y="444.79868"
         x="181.08917 189.03917 193.01418 200.96417">3.30</tspan>
    </text>
    <path
       inkscape:connector-curvature="0"
       id="path29558"
       style="fill:#000000;fill-opacity:1;fill-rule:nonzero;stroke:#000000;stroke-width:1;stroke-linecap:butt;stroke-linejoin:round;stroke-miterlimit:10;stroke-dasharray:none;stroke-opacity:1"
       d="m 262.64156,426.55649 0,4.375" />
    <text
       id="text29560"
       style="font-variant:normal;font-weight:normal;font-size:12.5px;font-family:DejaVuSans;-inkscape-font-specification:DejaVuSans;writing-mode:lr-tb;fill:#000000;fill-opacity:1;fill-rule:nonzero;stroke:none"
       x="248.72554"
       y="444.79868">
      <tspan
         id="tspan29562"
         sodipodi:role="line"
         y="444.79868"
         x="248.72554 256.67554 260.65054 268.60052">3.35</tspan>
    </text>
    <path
       inkscape:connector-curvature="0"
       id="path29564"
       style="fill:#000000;fill-opacity:1;fill-rule:nonzero;stroke:#000000;stroke-width:1;stroke-linecap:butt;stroke-linejoin:round;stroke-miterlimit:10;stroke-dasharray:none;stroke-opacity:1"
       d="m 330.27792,426.55649 0,4.375" />
    <text
       id="text29566"
       style="font-variant:normal;font-weight:normal;font-size:12.5px;font-family:DejaVuSans;-inkscape-font-specification:DejaVuSans;writing-mode:lr-tb;fill:#000000;fill-opacity:1;fill-rule:nonzero;stroke:none"
       x="316.36191"
       y="444.79868">
      <tspan
         id="tspan29568"
         sodipodi:role="line"
         y="444.79868"
         x="316.36191 324.31189 328.2869 336.23691">3.40</tspan>
    </text>
    <path
       inkscape:connector-curvature="0"
       id="path29570"
       style="fill:#000000;fill-opacity:1;fill-rule:nonzero;stroke:#000000;stroke-width:1;stroke-linecap:butt;stroke-linejoin:round;stroke-miterlimit:10;stroke-dasharray:none;stroke-opacity:1"
       d="m 397.91428,426.55649 0,4.375" />
    <text
       id="text29572"
       style="font-variant:normal;font-weight:normal;font-size:12.5px;font-family:DejaVuSans;-inkscape-font-specification:DejaVuSans;writing-mode:lr-tb;fill:#000000;fill-opacity:1;fill-rule:nonzero;stroke:none"
       x="383.99826"
       y="444.79868">
      <tspan
         id="tspan29574"
         sodipodi:role="line"
         y="444.79868"
         x="383.99826 391.94827 395.92328 403.87326">3.45</tspan>
    </text>
    <path
       inkscape:connector-curvature="0"
       id="path29576"
       style="fill:#000000;fill-opacity:1;fill-rule:nonzero;stroke:#000000;stroke-width:1;stroke-linecap:butt;stroke-linejoin:round;stroke-miterlimit:10;stroke-dasharray:none;stroke-opacity:1"
       d="m 465.55064,426.55649 0,4.375" />
    <text
       id="text29578"
       style="font-variant:normal;font-weight:normal;font-size:12.5px;font-family:DejaVuSans;-inkscape-font-specification:DejaVuSans;writing-mode:lr-tb;fill:#000000;fill-opacity:1;fill-rule:nonzero;stroke:none"
       x="451.63464"
       y="444.79868">
      <tspan
         id="tspan29580"
         sodipodi:role="line"
         y="444.79868"
         x="451.63464 459.58463 463.55963 471.50964">3.50</tspan>
    </text>
    <path
       inkscape:connector-curvature="0"
       id="path29582"
       style="fill:#000000;fill-opacity:1;fill-rule:nonzero;stroke:#000000;stroke-width:1;stroke-linecap:butt;stroke-linejoin:round;stroke-miterlimit:10;stroke-dasharray:none;stroke-opacity:1"
       d="m 533.187,426.55649 0,4.375" />
    <text
       id="text29584"
       style="font-variant:normal;font-weight:normal;font-size:12.5px;font-family:DejaVuSans;-inkscape-font-specification:DejaVuSans;writing-mode:lr-tb;fill:#000000;fill-opacity:1;fill-rule:nonzero;stroke:none"
       x="519.271"
       y="444.79868">
      <tspan
         id="tspan29586"
         sodipodi:role="line"
         y="444.79868"
         x="519.271 527.22101 531.19598 539.146">3.55</tspan>
    </text>
    <path
       inkscape:connector-curvature="0"
       id="path29588"
       style="fill:#000000;fill-opacity:1;fill-rule:nonzero;stroke:#000000;stroke-width:1;stroke-linecap:butt;stroke-linejoin:round;stroke-miterlimit:10;stroke-dasharray:none;stroke-opacity:1"
       d="m 600.82337,426.55649 0,4.375" />
    <text
       id="text29590"
       style="font-variant:normal;font-weight:normal;font-size:12.5px;font-family:DejaVuSans;-inkscape-font-specification:DejaVuSans;writing-mode:lr-tb;fill:#000000;fill-opacity:1;fill-rule:nonzero;stroke:none"
       x="586.90735"
       y="444.79868">
      <tspan
         id="tspan29592"
         sodipodi:role="line"
         y="444.79868"
         x="586.90735 594.85736 598.83234 606.78235">3.60</tspan>
    </text>
    <g
       clip-path="url(#clipPath29638)"
       id="g29636"
       transform="matrix(1.25,0,0,-1.25,102.71428,474.07649)">
      <path
         inkscape:connector-curvature="0"
         id="path29642"
         style="fill:none;stroke:#8100ad;stroke-width:3;stroke-linecap:square;stroke-linejoin:round;stroke-miterlimit:10;stroke-dasharray:none;stroke-opacity:1"
         d="m 73.832727,49.859124 10.821818,0.681226 10.821819,0.756791 10.821816,0.843214 10.82182,0.942318 10.82182,1.056191 10.82182,1.187008 10.82181,1.337497 10.82182,1.509262 10.82182,1.704523 10.82182,1.922259 10.82182,2.157652 10.82181,2.396403 10.82182,2.607278 10.82182,2.728405 10.82182,2.652665 10.82182,2.231349 10.82182,1.33954 10.82181,0.05808 10.82182,-1.145445 10.82182,-1.600034 10.82182,-0.994111 10.82182,0.379723 10.82181,1.94809 10.82182,3.313021 10.82182,4.362296 10.82182,5.092264 10.82182,5.456518 10.82182,5.282423 10.82181,4.29881 10.82182,2.42836" />
    </g>
    <path
       inkscape:connector-curvature="0"
       id="path29646"
       style="fill:none;stroke:#000000;stroke-width:1.875;stroke-linecap:square;stroke-linejoin:miter;stroke-miterlimit:10;stroke-dasharray:none;stroke-opacity:1"
       d="m 174.71428,426.55649 0,-151.2" />
    <path
       inkscape:connector-curvature="0"
       id="path29648"
       style="fill:none;stroke:#000000;stroke-width:1.875;stroke-linecap:square;stroke-linejoin:miter;stroke-miterlimit:10;stroke-dasharray:none;stroke-opacity:1"
       d="m 621.11428,426.55649 0,-151.2" />
    <path
       inkscape:connector-curvature="0"
       id="path29650"
       style="fill:none;stroke:#000000;stroke-width:1.875;stroke-linecap:square;stroke-linejoin:miter;stroke-miterlimit:10;stroke-dasharray:none;stroke-opacity:1"
       d="m 174.71428,426.55649 446.4,0" />
    <path
       inkscape:connector-curvature="0"
       id="path29652"
       style="fill:none;stroke:#000000;stroke-width:1.875;stroke-linecap:square;stroke-linejoin:miter;stroke-miterlimit:10;stroke-dasharray:none;stroke-opacity:1"
       d="m 174.71428,275.35649 446.4,0" />
    <path
       inkscape:connector-curvature="0"
       id="path29656"
       style="fill:none;stroke:#8100ad;stroke-width:1.875;stroke-linecap:square;stroke-linejoin:round;stroke-miterlimit:10;stroke-dasharray:none;stroke-opacity:1"
       d="m 185.96428,291.72368 25,0" />
    <text
       id="text29658"
       style="font-variant:normal;font-weight:normal;font-size:12.5px;font-family:DejaVuSans;-inkscape-font-specification:DejaVuSans;writing-mode:lr-tb;fill:#000000;fill-opacity:1;fill-rule:nonzero;stroke:none"
       x="220.96428"
       y="296.09869">
      <tspan
         id="tspan29660"
         sodipodi:role="line"
         y="296.09869"
         x="220.96428 230.31429 239.66428 243.63928 251.03928">NN xz</tspan>
    </text>
    <g
       clip-path="url(#clipPath29869)"
       id="g29867"
       transform="matrix(1.25,0,0,-1.25,103.57142,948.64793)">
      <path
         inkscape:connector-curvature="0"
         id="path29873"
         style="fill:none;stroke:#1f2db4;stroke-width:3;stroke-linecap:square;stroke-linejoin:round;stroke-miterlimit:10;stroke-dasharray:none;stroke-opacity:1"
         d="m 73.832727,279.44782 10.821818,3.77707 10.821819,3.64075 10.821816,3.39621 10.82182,3.02283 10.82182,2.50298 10.82182,1.82626 10.82181,0.99345 10.82182,0.0224 10.82182,-1.05064 10.82182,-2.17051 10.82182,-3.26818 10.82181,-4.26857 10.82182,-5.1022 10.82182,-5.71691 10.82182,-6.08388 10.82182,-6.19934 10.82182,-6.08361 10.82181,-5.7709 10.82182,-5.30505 10.82182,-4.72882 10.82182,-4.08175 10.82182,-3.39514 10.82181,-2.69275 10.82182,-1.99063 10.82182,-1.29706 10.82182,-0.61659 10.82182,0.0508 10.82182,0.70746 10.82181,1.35587 10.82182,1.99945" />
    </g>
    <path
       inkscape:connector-curvature="0"
       id="path29887"
       style="fill:none;stroke:#000000;stroke-width:1.875;stroke-linecap:square;stroke-linejoin:miter;stroke-miterlimit:10;stroke-dasharray:none;stroke-opacity:1"
       d="m 175.57142,719.68793 0,-151.2" />
    <path
       inkscape:connector-curvature="0"
       id="path29889"
       style="fill:none;stroke:#000000;stroke-width:1.875;stroke-linecap:square;stroke-linejoin:miter;stroke-miterlimit:10;stroke-dasharray:none;stroke-opacity:1"
       d="m 621.97142,719.68793 0,-151.2" />
    <path
       inkscape:connector-curvature="0"
       id="path29893"
       style="fill:none;stroke:#000000;stroke-width:1.875;stroke-linecap:square;stroke-linejoin:miter;stroke-miterlimit:10;stroke-dasharray:none;stroke-opacity:1"
       d="m 175.57142,568.48793 446.4,0" />
    <path
       inkscape:connector-curvature="0"
       id="path29897"
       style="fill:none;stroke:#1f2db4;stroke-width:1.875;stroke-linecap:square;stroke-linejoin:round;stroke-miterlimit:10;stroke-dasharray:none;stroke-opacity:1"
       d="m 540.48705,584.85512 25,0" />
    <text
       id="text29899"
       style="font-variant:normal;font-weight:normal;font-size:12.5px;font-family:DejaVuSans;-inkscape-font-specification:DejaVuSans;writing-mode:lr-tb;fill:#000000;fill-opacity:1;fill-rule:nonzero;stroke:none"
       x="575.48706"
       y="589.2301">
      <tspan
         id="tspan29901"
         sodipodi:role="line"
         y="589.2301"
         x="575.48706 584.83704 592.77454 596.74957 604.14954">NS xz</tspan>
    </text>
    <path
       inkscape:connector-curvature="0"
       id="path29911"
       style="fill:#000000;fill-opacity:1;fill-rule:nonzero;stroke:#000000;stroke-width:1;stroke-linecap:butt;stroke-linejoin:round;stroke-miterlimit:10;stroke-dasharray:none;stroke-opacity:1"
       d="m 195.86233,871.12793 0,4.375" />
    <text
       id="text29913"
       style="font-variant:normal;font-weight:normal;font-size:12.5px;font-family:DejaVuSans;-inkscape-font-specification:DejaVuSans;writing-mode:lr-tb;fill:#000000;fill-opacity:1;fill-rule:nonzero;stroke:none"
       x="181.9463"
       y="889.37012">
      <tspan
         id="tspan29915"
         sodipodi:role="line"
         y="889.37012"
         x="181.9463 189.89632 193.87131 201.8213">3.00</tspan>
    </text>
    <path
       inkscape:connector-curvature="0"
       id="path29917"
       style="fill:#000000;fill-opacity:1;fill-rule:nonzero;stroke:#000000;stroke-width:1;stroke-linecap:butt;stroke-linejoin:round;stroke-miterlimit:10;stroke-dasharray:none;stroke-opacity:1"
       d="m 263.49869,871.12793 0,4.375" />
    <text
       id="text29919"
       style="font-variant:normal;font-weight:normal;font-size:12.5px;font-family:DejaVuSans;-inkscape-font-specification:DejaVuSans;writing-mode:lr-tb;fill:#000000;fill-opacity:1;fill-rule:nonzero;stroke:none"
       x="249.58269"
       y="889.37012">
      <tspan
         id="tspan29921"
         sodipodi:role="line"
         y="889.37012"
         x="249.58269 257.53268 261.50769 269.45767">3.05</tspan>
    </text>
    <path
       inkscape:connector-curvature="0"
       id="path29923"
       style="fill:#000000;fill-opacity:1;fill-rule:nonzero;stroke:#000000;stroke-width:1;stroke-linecap:butt;stroke-linejoin:round;stroke-miterlimit:10;stroke-dasharray:none;stroke-opacity:1"
       d="m 331.13506,871.12793 0,4.375" />
    <text
       id="text29925"
       style="font-variant:normal;font-weight:normal;font-size:12.5px;font-family:DejaVuSans;-inkscape-font-specification:DejaVuSans;writing-mode:lr-tb;fill:#000000;fill-opacity:1;fill-rule:nonzero;stroke:none"
       x="317.21906"
       y="889.37012">
      <tspan
         id="tspan29927"
         sodipodi:role="line"
         y="889.37012"
         x="317.21906 325.16904 329.14404 337.09402">3.10</tspan>
    </text>
    <path
       inkscape:connector-curvature="0"
       id="path29929"
       style="fill:#000000;fill-opacity:1;fill-rule:nonzero;stroke:#000000;stroke-width:1;stroke-linecap:butt;stroke-linejoin:round;stroke-miterlimit:10;stroke-dasharray:none;stroke-opacity:1"
       d="m 398.77142,871.12793 0,4.375" />
    <text
       id="text29931"
       style="font-variant:normal;font-weight:normal;font-size:12.5px;font-family:DejaVuSans;-inkscape-font-specification:DejaVuSans;writing-mode:lr-tb;fill:#000000;fill-opacity:1;fill-rule:nonzero;stroke:none"
       x="384.85541"
       y="889.37012">
      <tspan
         id="tspan29933"
         sodipodi:role="line"
         y="889.37012"
         x="384.85541 392.80542 396.7804 404.73041">3.15</tspan>
    </text>
    <path
       inkscape:connector-curvature="0"
       id="path29935"
       style="fill:#000000;fill-opacity:1;fill-rule:nonzero;stroke:#000000;stroke-width:1;stroke-linecap:butt;stroke-linejoin:round;stroke-miterlimit:10;stroke-dasharray:none;stroke-opacity:1"
       d="m 466.40778,871.12793 0,4.375" />
    <text
       id="text29937"
       style="font-variant:normal;font-weight:normal;font-size:12.5px;font-family:DejaVuSans;-inkscape-font-specification:DejaVuSans;writing-mode:lr-tb;fill:#000000;fill-opacity:1;fill-rule:nonzero;stroke:none"
       x="452.49176"
       y="889.37012">
      <tspan
         id="tspan29939"
         sodipodi:role="line"
         y="889.37012"
         x="452.49176 460.44177 464.41678 472.36676">3.20</tspan>
    </text>
    <path
       inkscape:connector-curvature="0"
       id="path29941"
       style="fill:#000000;fill-opacity:1;fill-rule:nonzero;stroke:#000000;stroke-width:1;stroke-linecap:butt;stroke-linejoin:round;stroke-miterlimit:10;stroke-dasharray:none;stroke-opacity:1"
       d="m 534.04414,871.12793 0,4.375" />
    <text
       id="text29943"
       style="font-variant:normal;font-weight:normal;font-size:12.5px;font-family:DejaVuSans;-inkscape-font-specification:DejaVuSans;writing-mode:lr-tb;fill:#000000;fill-opacity:1;fill-rule:nonzero;stroke:none"
       x="520.12811"
       y="889.37012">
      <tspan
         id="tspan29945"
         sodipodi:role="line"
         y="889.37012"
         x="520.12811 528.07812 532.0531 540.00311">3.25</tspan>
    </text>
    <path
       inkscape:connector-curvature="0"
       id="path29947"
       style="fill:#000000;fill-opacity:1;fill-rule:nonzero;stroke:#000000;stroke-width:1;stroke-linecap:butt;stroke-linejoin:round;stroke-miterlimit:10;stroke-dasharray:none;stroke-opacity:1"
       d="m 601.68051,871.12793 0,4.375" />
    <text
       id="text29949"
       style="font-variant:normal;font-weight:normal;font-size:12.5px;font-family:DejaVuSans;-inkscape-font-specification:DejaVuSans;writing-mode:lr-tb;fill:#000000;fill-opacity:1;fill-rule:nonzero;stroke:none"
       x="587.76447"
       y="889.37012">
      <tspan
         id="tspan29951"
         sodipodi:role="line"
         y="889.37012"
         x="587.76447 595.71448 599.68951 607.63947">3.30</tspan>
    </text>
    <g
       clip-path="url(#clipPath29985)"
       id="g29983"
       transform="matrix(1.25,0,0,-1.25,103.57142,918.64793)">
      <path
         inkscape:connector-curvature="0"
         id="path29989"
         style="fill:none;stroke:#8100ad;stroke-width:3;stroke-linecap:square;stroke-linejoin:round;stroke-miterlimit:10;stroke-dasharray:none;stroke-opacity:1"
         d="m 73.832727,97.470691 10.821818,1.679437 10.821819,1.663182 10.821816,1.63938 10.82182,1.60687 10.82182,1.56562 10.82182,1.51526 10.82181,1.45578 10.82182,1.38756 10.82182,1.30984 10.82182,1.22419 10.82182,1.13139 10.82181,1.03145 10.82182,0.92716 10.82182,0.81851 10.82182,0.70865 10.82182,0.59841 10.82182,0.49094 10.82181,0.38705 10.82182,0.28909 10.82182,0.19907 10.82182,0.11659 10.82182,0.0432 10.82181,-0.0234 10.82182,-0.0845 10.82182,-0.14514 10.82182,-0.21057 10.82182,-0.2887 10.82182,-0.38903 10.82181,-0.52028 10.82182,-0.69319" />
    </g>
    <path
       inkscape:connector-curvature="0"
       id="path29993"
       style="fill:none;stroke:#000000;stroke-width:1.875;stroke-linecap:square;stroke-linejoin:miter;stroke-miterlimit:10;stroke-dasharray:none;stroke-opacity:1"
       d="m 175.57142,871.12793 0,-151.2" />
    <path
       inkscape:connector-curvature="0"
       id="path29995"
       style="fill:none;stroke:#000000;stroke-width:1.875;stroke-linecap:square;stroke-linejoin:miter;stroke-miterlimit:10;stroke-dasharray:none;stroke-opacity:1"
       d="m 621.97142,871.12793 0,-151.2" />
    <path
       inkscape:connector-curvature="0"
       id="path29997"
       style="fill:none;stroke:#000000;stroke-width:1.875;stroke-linecap:square;stroke-linejoin:miter;stroke-miterlimit:10;stroke-dasharray:none;stroke-opacity:1"
       d="m 175.57142,871.12793 446.4,0" />
    <path
       inkscape:connector-curvature="0"
       id="path29999"
       style="fill:none;stroke:#000000;stroke-width:1.875;stroke-linecap:square;stroke-linejoin:miter;stroke-miterlimit:10;stroke-dasharray:none;stroke-opacity:1"
       d="m 175.57142,719.92793 446.4,0" />
    <path
       inkscape:connector-curvature="0"
       id="path30003"
       style="fill:none;stroke:#8100ad;stroke-width:1.875;stroke-linecap:square;stroke-linejoin:round;stroke-miterlimit:10;stroke-dasharray:none;stroke-opacity:1"
       d="m 186.82142,736.29512 25,0" />
    <text
       id="text30005"
       style="font-variant:normal;font-weight:normal;font-size:12.5px;font-family:DejaVuSans;-inkscape-font-specification:DejaVuSans;writing-mode:lr-tb;fill:#000000;fill-opacity:1;fill-rule:nonzero;stroke:none"
       x="221.82143"
       y="740.6701">
      <tspan
         id="tspan30007"
         sodipodi:role="line"
         y="740.6701"
         x="221.82143 231.17142 240.52142 244.49641 251.89642">NN xz</tspan>
    </text>
    <text
       xml:space="preserve"
       style="font-style:normal;font-variant:normal;font-weight:normal;font-stretch:normal;font-size:27.5px;line-height:125%;font-family:'Latin Modern Roman';-inkscape-font-specification:'Latin Modern Roman, Normal';text-align:start;letter-spacing:0px;word-spacing:0px;writing-mode:lr-tb;text-anchor:start;fill:#000000;fill-opacity:1;stroke:none;stroke-width:1px;stroke-linecap:butt;stroke-linejoin:miter;stroke-opacity:1"
       x="-433.64581"
       y="141.30194"
       id="text30464"
       sodipodi:linespacing="125%"
       transform="matrix(0,-1,1,0,0,0)"><tspan
         sodipodi:role="line"
         id="tspan30466"
         x="-433.64581"
         y="141.30194">CL Probability (arb. units)</tspan></text>
    <text
       transform="matrix(0,-1,1,0,0,0)"
       sodipodi:linespacing="125%"
       id="text30468"
       y="141.30194"
       x="-883.64581"
       style="font-style:normal;font-variant:normal;font-weight:normal;font-stretch:normal;font-size:27.5px;line-height:125%;font-family:'Latin Modern Roman';-inkscape-font-specification:'Latin Modern Roman, Normal';text-align:start;letter-spacing:0px;word-spacing:0px;writing-mode:lr-tb;text-anchor:start;fill:#000000;fill-opacity:1;stroke:none;stroke-width:1px;stroke-linecap:butt;stroke-linejoin:miter;stroke-opacity:1"
       xml:space="preserve"><tspan
         y="141.30194"
         x="-883.64581"
         id="tspan30470"
         sodipodi:role="line">CL Probability (arb. units)</tspan></text>
    <text
       xml:space="preserve"
       style="font-style:normal;font-variant:normal;font-weight:normal;font-stretch:normal;font-size:27.5px;line-height:125%;font-family:'Latin Modern Roman';-inkscape-font-specification:'Latin Modern Roman, Normal';text-align:start;letter-spacing:0px;word-spacing:0px;writing-mode:lr-tb;text-anchor:start;fill:#000000;fill-opacity:1;stroke:none;stroke-width:1px;stroke-linecap:butt;stroke-linejoin:miter;stroke-opacity:1"
       x="326.24518"
       y="927.422"
       id="text30472"
       sodipodi:linespacing="125%"><tspan
         sodipodi:role="line"
         id="tspan30474"
         x="326.24518"
         y="927.422">Energy (eV)</tspan></text>
    <text
       sodipodi:linespacing="125%"
       id="text30476"
       y="474.8913"
       x="327.09738"
       style="font-style:normal;font-variant:normal;font-weight:normal;font-stretch:normal;font-size:27.5px;line-height:125%;font-family:'Latin Modern Roman';-inkscape-font-specification:'Latin Modern Roman, Normal';text-align:start;letter-spacing:0px;word-spacing:0px;writing-mode:lr-tb;text-anchor:start;fill:#000000;fill-opacity:1;stroke:none;stroke-width:1px;stroke-linecap:butt;stroke-linejoin:miter;stroke-opacity:1"
       xml:space="preserve"><tspan
         y="474.8913"
         x="327.09738"
         id="tspan30478"
         sodipodi:role="line">Energy (eV)</tspan></text>
    <g
       transform="matrix(3.4295013,0,0,3.4295013,-457.04209,-354.13558)"
       ns0:text="$r_0 = 15$ nm"
       ns0:preamble="/Users/peacenick36/header.txt"
       id="g30609">
      <defs
         id="defs30611">
        <g
           id="g30613">
          <symbol
             style="overflow:visible"
             overflow="visible"
             id="textext-592ed2f6-0">
            <path
               inkscape:connector-curvature="0"
               style="stroke:none"
               d=""
               id="path30616" />
          </symbol>
          <symbol
             style="overflow:visible"
             overflow="visible"
             id="textext-592ed2f6-1">
            <path
               inkscape:connector-curvature="0"
               style="stroke:none"
               d="m 0.875,-0.59375 c -0.03125,0.15625 -0.09375,0.390625 -0.09375,0.4375 0,0.171875 0.140625,0.265625 0.296875,0.265625 0.125,0 0.296875,-0.078125 0.375,-0.28125 C 1.46875,-0.203125 1.796875,-1.5625 1.84375,-1.75 c 0.078125,-0.328125 0.265625,-1.015625 0.3125,-1.296875 0.046875,-0.125 0.328125,-0.59375 0.5625,-0.8125 0.078125,-0.0625 0.375,-0.328125 0.796875,-0.328125 0.265625,0 0.40625,0.125 0.421875,0.125 -0.296875,0.046875 -0.515625,0.28125 -0.515625,0.546875 0,0.15625 0.109375,0.34375 0.375,0.34375 0.265625,0 0.546875,-0.234375 0.546875,-0.59375 0,-0.34375 -0.3125,-0.640625 -0.828125,-0.640625 C 2.875,-4.40625 2.4375,-3.921875 2.25,-3.640625 2.15625,-4.09375 1.796875,-4.40625 1.328125,-4.40625 0.875,-4.40625 0.6875,-4.015625 0.59375,-3.84375 0.421875,-3.5 0.296875,-2.90625 0.296875,-2.875 c 0,0.109375 0.09375,0.109375 0.109375,0.109375 0.109375,0 0.109375,-0.015625 0.171875,-0.234375 0.171875,-0.703125 0.375,-1.1875 0.734375,-1.1875 0.15625,0 0.296875,0.078125 0.296875,0.453125 0,0.21875 -0.03125,0.328125 -0.15625,0.84375 z m 0,0"
               id="path30619" />
          </symbol>
          <symbol
             style="overflow:visible"
             overflow="visible"
             id="textext-592ed2f6-2">
            <path
               inkscape:connector-curvature="0"
               style="stroke:none"
               d=""
               id="path30622" />
          </symbol>
          <symbol
             style="overflow:visible"
             overflow="visible"
             id="textext-592ed2f6-3">
            <path
               inkscape:connector-curvature="0"
               style="stroke:none"
               d="M 3.59375,-2.21875 C 3.59375,-2.984375 3.5,-3.546875 3.1875,-4.03125 2.96875,-4.34375 2.53125,-4.625 1.984375,-4.625 c -1.625,0 -1.625,1.90625 -1.625,2.40625 0,0.5 0,2.359375 1.625,2.359375 1.609375,0 1.609375,-1.859375 1.609375,-2.359375 z M 1.984375,-0.0625 c -0.328125,0 -0.75,-0.1875 -0.890625,-0.75 C 1,-1.21875 1,-1.796875 1,-2.3125 1,-2.828125 1,-3.359375 1.09375,-3.734375 1.25,-4.28125 1.6875,-4.4375 1.984375,-4.4375 c 0.375,0 0.734375,0.234375 0.859375,0.640625 0.109375,0.375 0.125,0.875 0.125,1.484375 0,0.515625 0,1.03125 -0.09375,1.46875 -0.140625,0.640625 -0.609375,0.78125 -0.890625,0.78125 z m 0,0"
               id="path30625" />
          </symbol>
          <symbol
             style="overflow:visible"
             overflow="visible"
             id="textext-592ed2f6-4">
            <path
               inkscape:connector-curvature="0"
               style="stroke:none"
               d=""
               id="path30628" />
          </symbol>
          <symbol
             style="overflow:visible"
             overflow="visible"
             id="textext-592ed2f6-5">
            <path
               inkscape:connector-curvature="0"
               style="stroke:none"
               d="m 6.84375,-3.265625 c 0.15625,0 0.34375,0 0.34375,-0.1875 C 7.1875,-3.65625 7,-3.65625 6.859375,-3.65625 l -5.96875,0 c -0.140625,0 -0.328125,0 -0.328125,0.203125 0,0.1875 0.1875,0.1875 0.328125,0.1875 z m 0.015625,1.9375 c 0.140625,0 0.328125,0 0.328125,-0.203125 0,-0.1875 -0.1875,-0.1875 -0.34375,-0.1875 l -5.953125,0 c -0.140625,0 -0.328125,0 -0.328125,0.1875 0,0.203125 0.1875,0.203125 0.328125,0.203125 z m 0,0"
               id="path30631" />
          </symbol>
          <symbol
             style="overflow:visible"
             overflow="visible"
             id="textext-592ed2f6-6">
            <path
               inkscape:connector-curvature="0"
               style="stroke:none"
               d="m 2.9375,-6.375 c 0,-0.25 0,-0.265625 -0.234375,-0.265625 C 2.078125,-6 1.203125,-6 0.890625,-6 l 0,0.3125 c 0.203125,0 0.78125,0 1.296875,-0.265625 l 0,5.171875 c 0,0.359375 -0.03125,0.46875 -0.921875,0.46875 l -0.3125,0 0,0.3125 c 0.34375,-0.03125 1.203125,-0.03125 1.609375,-0.03125 0.390625,0 1.265625,0 1.609375,0.03125 l 0,-0.3125 -0.3125,0 c -0.90625,0 -0.921875,-0.109375 -0.921875,-0.46875 z m 0,0"
               id="path30634" />
          </symbol>
          <symbol
             style="overflow:visible"
             overflow="visible"
             id="textext-592ed2f6-7">
            <path
               inkscape:connector-curvature="0"
               style="stroke:none"
               d="m 4.46875,-2 c 0,-1.1875 -0.8125,-2.1875 -1.890625,-2.1875 -0.46875,0 -0.90625,0.15625 -1.265625,0.515625 l 0,-1.953125 c 0.203125,0.0625 0.53125,0.125 0.84375,0.125 1.234375,0 1.9375,-0.90625 1.9375,-1.03125 0,-0.0625 -0.03125,-0.109375 -0.109375,-0.109375 0,0 -0.03125,0 -0.078125,0.03125 C 3.703125,-6.515625 3.21875,-6.3125 2.546875,-6.3125 2.15625,-6.3125 1.6875,-6.390625 1.21875,-6.59375 1.140625,-6.625 1.125,-6.625 1.109375,-6.625 1,-6.625 1,-6.546875 1,-6.390625 L 1,-3.4375 c 0,0.171875 0,0.25 0.140625,0.25 0.078125,0 0.09375,-0.015625 0.140625,-0.078125 C 1.390625,-3.421875 1.75,-3.96875 2.5625,-3.96875 c 0.515625,0 0.765625,0.453125 0.84375,0.640625 0.15625,0.375 0.1875,0.75 0.1875,1.25 0,0.359375 0,0.953125 -0.25,1.375 C 3.109375,-0.3125 2.734375,-0.0625 2.28125,-0.0625 c -0.71875,0 -1.296875,-0.53125 -1.46875,-1.109375 0.03125,0 0.0625,0.015625 0.171875,0.015625 0.328125,0 0.5,-0.25 0.5,-0.484375 0,-0.25 -0.171875,-0.5 -0.5,-0.5 C 0.84375,-2.140625 0.5,-2.0625 0.5,-1.609375 0.5,-0.75 1.1875,0.21875 2.296875,0.21875 3.453125,0.21875 4.46875,-0.734375 4.46875,-2 Z m 0,0"
               id="path30637" />
          </symbol>
          <symbol
             style="overflow:visible"
             overflow="visible"
             id="textext-592ed2f6-8">
            <path
               inkscape:connector-curvature="0"
               style="stroke:none"
               d="m 1.09375,-3.421875 0,2.671875 c 0,0.4375 -0.109375,0.4375 -0.78125,0.4375 l 0,0.3125 c 0.359375,-0.015625 0.859375,-0.03125 1.140625,-0.03125 0.25,0 0.765625,0.015625 1.109375,0.03125 l 0,-0.3125 c -0.671875,0 -0.78125,0 -0.78125,-0.4375 l 0,-1.84375 C 1.78125,-3.625 2.5,-4.1875 3.125,-4.1875 c 0.640625,0 0.75,0.53125 0.75,1.109375 l 0,2.328125 c 0,0.4375 -0.109375,0.4375 -0.78125,0.4375 l 0,0.3125 c 0.34375,-0.015625 0.859375,-0.03125 1.125,-0.03125 0.25,0 0.78125,0.015625 1.109375,0.03125 l 0,-0.3125 c -0.515625,0 -0.765625,0 -0.765625,-0.296875 l 0,-1.90625 c 0,-0.859375 0,-1.15625 -0.3125,-1.515625 -0.140625,-0.171875 -0.46875,-0.375 -1.046875,-0.375 C 2.46875,-4.40625 2,-3.984375 1.71875,-3.359375 l 0,-1.046875 -1.40625,0.109375 0,0.3125 c 0.703125,0 0.78125,0.0625 0.78125,0.5625 z m 0,0"
               id="path30640" />
          </symbol>
          <symbol
             style="overflow:visible"
             overflow="visible"
             id="textext-592ed2f6-9">
            <path
               inkscape:connector-curvature="0"
               style="stroke:none"
               d="m 1.09375,-3.421875 0,2.671875 c 0,0.4375 -0.109375,0.4375 -0.78125,0.4375 l 0,0.3125 c 0.359375,-0.015625 0.859375,-0.03125 1.140625,-0.03125 0.25,0 0.765625,0.015625 1.109375,0.03125 l 0,-0.3125 c -0.671875,0 -0.78125,0 -0.78125,-0.4375 l 0,-1.84375 C 1.78125,-3.625 2.5,-4.1875 3.125,-4.1875 c 0.640625,0 0.75,0.53125 0.75,1.109375 l 0,2.328125 c 0,0.4375 -0.109375,0.4375 -0.78125,0.4375 l 0,0.3125 c 0.34375,-0.015625 0.859375,-0.03125 1.125,-0.03125 0.25,0 0.78125,0.015625 1.109375,0.03125 l 0,-0.3125 c -0.65625,0 -0.765625,0 -0.765625,-0.4375 l 0,-1.84375 c 0,-1.03125 0.703125,-1.59375 1.34375,-1.59375 0.625,0 0.734375,0.53125 0.734375,1.109375 l 0,2.328125 c 0,0.4375 -0.109375,0.4375 -0.78125,0.4375 l 0,0.3125 c 0.34375,-0.015625 0.859375,-0.03125 1.125,-0.03125 0.265625,0 0.78125,0.015625 1.125,0.03125 l 0,-0.3125 c -0.515625,0 -0.765625,0 -0.78125,-0.296875 l 0,-1.90625 c 0,-0.859375 0,-1.15625 -0.3125,-1.515625 -0.140625,-0.171875 -0.46875,-0.375 -1.046875,-0.375 -0.828125,0 -1.28125,0.59375 -1.4375,0.984375 C 4.390625,-4.296875 3.65625,-4.40625 3.203125,-4.40625 2.46875,-4.40625 2,-3.984375 1.71875,-3.359375 l 0,-1.046875 -1.40625,0.109375 0,0.3125 c 0.703125,0 0.78125,0.0625 0.78125,0.5625 z m 0,0"
               id="path30643" />
          </symbol>
        </g>
      </defs>
      <g
         id="textext-592ed2f6-10">
        <g
           style="fill:#000000;fill-opacity:1"
           id="g30646">
          <use
             height="100%"
             width="100%"
             xlink:href="#textext-592ed2f6-1"
             x="223.43201"
             y="134.765"
             id="use30648" />
        </g>
        <g
           style="fill:#000000;fill-opacity:1"
           id="g30650">
          <use
             height="100%"
             width="100%"
             xlink:href="#textext-592ed2f6-3"
             x="227.927"
             y="136.259"
             id="use30652" />
        </g>
        <g
           style="fill:#000000;fill-opacity:1"
           id="g30654">
          <use
             height="100%"
             width="100%"
             xlink:href="#textext-592ed2f6-5"
             x="235.164"
             y="134.765"
             id="use30656" />
        </g>
        <g
           style="fill:#000000;fill-opacity:1"
           id="g30658">
          <use
             height="100%"
             width="100%"
             xlink:href="#textext-592ed2f6-6"
             x="245.68251"
             y="134.765"
             id="use30660" />
          <use
             height="100%"
             width="100%"
             xlink:href="#textext-592ed2f6-7"
             x="250.66382"
             y="134.765"
             id="use30662" />
        </g>
        <g
           style="fill:#000000;fill-opacity:1"
           id="g30664">
          <use
             height="100%"
             width="100%"
             xlink:href="#textext-592ed2f6-8"
             x="258.96265"
             y="134.765"
             id="use30666" />
          <use
             height="100%"
             width="100%"
             xlink:href="#textext-592ed2f6-9"
             x="264.49786"
             y="134.765"
             id="use30668" />
        </g>
      </g>
    </g>
    <g
       id="g31070"
       transform="matrix(3.4295013,0,0,3.4295013,-453.04209,89.86442)"
       ns0:preamble="/Users/peacenick36/header.txt"
       ns0:text="$r_0 = 30$ nm">
      <defs
         id="defs31072">
        <g
           id="g31074">
          <symbol
             id="textext-8c3e2381-0"
             overflow="visible"
             style="overflow:visible">
            <path
               id="path31077"
               d=""
               style="stroke:none"
               inkscape:connector-curvature="0" />
          </symbol>
          <symbol
             id="textext-8c3e2381-1"
             overflow="visible"
             style="overflow:visible">
            <path
               id="path31080"
               d="m 0.875,-0.59375 c -0.03125,0.15625 -0.09375,0.390625 -0.09375,0.4375 0,0.171875 0.140625,0.265625 0.296875,0.265625 0.125,0 0.296875,-0.078125 0.375,-0.28125 C 1.46875,-0.203125 1.796875,-1.5625 1.84375,-1.75 c 0.078125,-0.328125 0.265625,-1.015625 0.3125,-1.296875 0.046875,-0.125 0.328125,-0.59375 0.5625,-0.8125 0.078125,-0.0625 0.375,-0.328125 0.796875,-0.328125 0.265625,0 0.40625,0.125 0.421875,0.125 -0.296875,0.046875 -0.515625,0.28125 -0.515625,0.546875 0,0.15625 0.109375,0.34375 0.375,0.34375 0.265625,0 0.546875,-0.234375 0.546875,-0.59375 0,-0.34375 -0.3125,-0.640625 -0.828125,-0.640625 C 2.875,-4.40625 2.4375,-3.921875 2.25,-3.640625 2.15625,-4.09375 1.796875,-4.40625 1.328125,-4.40625 0.875,-4.40625 0.6875,-4.015625 0.59375,-3.84375 0.421875,-3.5 0.296875,-2.90625 0.296875,-2.875 c 0,0.109375 0.09375,0.109375 0.109375,0.109375 0.109375,0 0.109375,-0.015625 0.171875,-0.234375 0.171875,-0.703125 0.375,-1.1875 0.734375,-1.1875 0.15625,0 0.296875,0.078125 0.296875,0.453125 0,0.21875 -0.03125,0.328125 -0.15625,0.84375 z m 0,0"
               style="stroke:none"
               inkscape:connector-curvature="0" />
          </symbol>
          <symbol
             id="textext-8c3e2381-2"
             overflow="visible"
             style="overflow:visible">
            <path
               id="path31083"
               d=""
               style="stroke:none"
               inkscape:connector-curvature="0" />
          </symbol>
          <symbol
             id="textext-8c3e2381-3"
             overflow="visible"
             style="overflow:visible">
            <path
               id="path31086"
               d="M 3.59375,-2.21875 C 3.59375,-2.984375 3.5,-3.546875 3.1875,-4.03125 2.96875,-4.34375 2.53125,-4.625 1.984375,-4.625 c -1.625,0 -1.625,1.90625 -1.625,2.40625 0,0.5 0,2.359375 1.625,2.359375 1.609375,0 1.609375,-1.859375 1.609375,-2.359375 z M 1.984375,-0.0625 c -0.328125,0 -0.75,-0.1875 -0.890625,-0.75 C 1,-1.21875 1,-1.796875 1,-2.3125 1,-2.828125 1,-3.359375 1.09375,-3.734375 1.25,-4.28125 1.6875,-4.4375 1.984375,-4.4375 c 0.375,0 0.734375,0.234375 0.859375,0.640625 0.109375,0.375 0.125,0.875 0.125,1.484375 0,0.515625 0,1.03125 -0.09375,1.46875 -0.140625,0.640625 -0.609375,0.78125 -0.890625,0.78125 z m 0,0"
               style="stroke:none"
               inkscape:connector-curvature="0" />
          </symbol>
          <symbol
             id="textext-8c3e2381-4"
             overflow="visible"
             style="overflow:visible">
            <path
               id="path31089"
               d=""
               style="stroke:none"
               inkscape:connector-curvature="0" />
          </symbol>
          <symbol
             id="textext-8c3e2381-5"
             overflow="visible"
             style="overflow:visible">
            <path
               id="path31092"
               d="m 6.84375,-3.265625 c 0.15625,0 0.34375,0 0.34375,-0.1875 C 7.1875,-3.65625 7,-3.65625 6.859375,-3.65625 l -5.96875,0 c -0.140625,0 -0.328125,0 -0.328125,0.203125 0,0.1875 0.1875,0.1875 0.328125,0.1875 z m 0.015625,1.9375 c 0.140625,0 0.328125,0 0.328125,-0.203125 0,-0.1875 -0.1875,-0.1875 -0.34375,-0.1875 l -5.953125,0 c -0.140625,0 -0.328125,0 -0.328125,0.1875 0,0.203125 0.1875,0.203125 0.328125,0.203125 z m 0,0"
               style="stroke:none"
               inkscape:connector-curvature="0" />
          </symbol>
          <symbol
             id="textext-8c3e2381-6"
             overflow="visible"
             style="overflow:visible">
            <path
               id="path31095"
               d="m 2.890625,-3.515625 c 0.8125,-0.265625 1.390625,-0.953125 1.390625,-1.75 0,-0.8125 -0.875,-1.375 -1.828125,-1.375 -1,0 -1.765625,0.59375 -1.765625,1.359375 0,0.328125 0.21875,0.515625 0.515625,0.515625 0.296875,0 0.5,-0.21875 0.5,-0.515625 0,-0.484375 -0.46875,-0.484375 -0.609375,-0.484375 0.296875,-0.5 0.953125,-0.625 1.3125,-0.625 0.421875,0 0.96875,0.21875 0.96875,1.109375 0,0.125 -0.03125,0.703125 -0.28125,1.140625 C 2.796875,-3.65625 2.453125,-3.625 2.203125,-3.625 2.125,-3.609375 1.890625,-3.59375 1.8125,-3.59375 c -0.078125,0.015625 -0.140625,0.03125 -0.140625,0.125 0,0.109375 0.0625,0.109375 0.234375,0.109375 l 0.4375,0 c 0.8125,0 1.1875,0.671875 1.1875,1.65625 0,1.359375 -0.6875,1.640625 -1.125,1.640625 -0.4375,0 -1.1875,-0.171875 -1.53125,-0.75 0.34375,0.046875 0.65625,-0.171875 0.65625,-0.546875 0,-0.359375 -0.265625,-0.5625 -0.546875,-0.5625 -0.25,0 -0.5625,0.140625 -0.5625,0.578125 0,0.90625 0.921875,1.5625 2.015625,1.5625 1.21875,0 2.125,-0.90625 2.125,-1.921875 0,-0.8125 -0.640625,-1.59375 -1.671875,-1.8125 z m 0,0"
               style="stroke:none"
               inkscape:connector-curvature="0" />
          </symbol>
          <symbol
             id="textext-8c3e2381-7"
             overflow="visible"
             style="overflow:visible">
            <path
               id="path31098"
               d="m 4.578125,-3.1875 c 0,-0.796875 -0.046875,-1.59375 -0.390625,-2.328125 -0.453125,-0.96875 -1.28125,-1.125 -1.6875,-1.125 -0.609375,0 -1.328125,0.265625 -1.75,1.1875 -0.3125,0.6875 -0.359375,1.46875 -0.359375,2.265625 0,0.75 0.03125,1.640625 0.453125,2.40625 0.421875,0.796875 1.15625,1 1.640625,1 0.53125,0 1.296875,-0.203125 1.734375,-1.15625 0.3125,-0.6875 0.359375,-1.46875 0.359375,-2.25 z M 2.484375,0 C 2.09375,0 1.5,-0.25 1.328125,-1.203125 1.21875,-1.796875 1.21875,-2.71875 1.21875,-3.3125 c 0,-0.640625 0,-1.296875 0.078125,-1.828125 0.1875,-1.1875 0.9375,-1.28125 1.1875,-1.28125 0.328125,0 0.984375,0.1875 1.171875,1.171875 0.109375,0.5625 0.109375,1.3125 0.109375,1.9375 0,0.75 0,1.421875 -0.109375,2.0625 C 3.5,-0.296875 2.9375,0 2.484375,0 Z m 0,0"
               style="stroke:none"
               inkscape:connector-curvature="0" />
          </symbol>
          <symbol
             id="textext-8c3e2381-8"
             overflow="visible"
             style="overflow:visible">
            <path
               id="path31101"
               d="m 1.09375,-3.421875 0,2.671875 c 0,0.4375 -0.109375,0.4375 -0.78125,0.4375 l 0,0.3125 c 0.359375,-0.015625 0.859375,-0.03125 1.140625,-0.03125 0.25,0 0.765625,0.015625 1.109375,0.03125 l 0,-0.3125 c -0.671875,0 -0.78125,0 -0.78125,-0.4375 l 0,-1.84375 C 1.78125,-3.625 2.5,-4.1875 3.125,-4.1875 c 0.640625,0 0.75,0.53125 0.75,1.109375 l 0,2.328125 c 0,0.4375 -0.109375,0.4375 -0.78125,0.4375 l 0,0.3125 c 0.34375,-0.015625 0.859375,-0.03125 1.125,-0.03125 0.25,0 0.78125,0.015625 1.109375,0.03125 l 0,-0.3125 c -0.515625,0 -0.765625,0 -0.765625,-0.296875 l 0,-1.90625 c 0,-0.859375 0,-1.15625 -0.3125,-1.515625 -0.140625,-0.171875 -0.46875,-0.375 -1.046875,-0.375 C 2.46875,-4.40625 2,-3.984375 1.71875,-3.359375 l 0,-1.046875 -1.40625,0.109375 0,0.3125 c 0.703125,0 0.78125,0.0625 0.78125,0.5625 z m 0,0"
               style="stroke:none"
               inkscape:connector-curvature="0" />
          </symbol>
          <symbol
             id="textext-8c3e2381-9"
             overflow="visible"
             style="overflow:visible">
            <path
               id="path31104"
               d="m 1.09375,-3.421875 0,2.671875 c 0,0.4375 -0.109375,0.4375 -0.78125,0.4375 l 0,0.3125 c 0.359375,-0.015625 0.859375,-0.03125 1.140625,-0.03125 0.25,0 0.765625,0.015625 1.109375,0.03125 l 0,-0.3125 c -0.671875,0 -0.78125,0 -0.78125,-0.4375 l 0,-1.84375 C 1.78125,-3.625 2.5,-4.1875 3.125,-4.1875 c 0.640625,0 0.75,0.53125 0.75,1.109375 l 0,2.328125 c 0,0.4375 -0.109375,0.4375 -0.78125,0.4375 l 0,0.3125 c 0.34375,-0.015625 0.859375,-0.03125 1.125,-0.03125 0.25,0 0.78125,0.015625 1.109375,0.03125 l 0,-0.3125 c -0.65625,0 -0.765625,0 -0.765625,-0.4375 l 0,-1.84375 c 0,-1.03125 0.703125,-1.59375 1.34375,-1.59375 0.625,0 0.734375,0.53125 0.734375,1.109375 l 0,2.328125 c 0,0.4375 -0.109375,0.4375 -0.78125,0.4375 l 0,0.3125 c 0.34375,-0.015625 0.859375,-0.03125 1.125,-0.03125 0.265625,0 0.78125,0.015625 1.125,0.03125 l 0,-0.3125 c -0.515625,0 -0.765625,0 -0.78125,-0.296875 l 0,-1.90625 c 0,-0.859375 0,-1.15625 -0.3125,-1.515625 -0.140625,-0.171875 -0.46875,-0.375 -1.046875,-0.375 -0.828125,0 -1.28125,0.59375 -1.4375,0.984375 C 4.390625,-4.296875 3.65625,-4.40625 3.203125,-4.40625 2.46875,-4.40625 2,-3.984375 1.71875,-3.359375 l 0,-1.046875 -1.40625,0.109375 0,0.3125 c 0.703125,0 0.78125,0.0625 0.78125,0.5625 z m 0,0"
               style="stroke:none"
               inkscape:connector-curvature="0" />
          </symbol>
        </g>
      </defs>
      <g
         id="textext-8c3e2381-10">
        <g
           id="g31107"
           style="fill:#000000;fill-opacity:1">
          <use
             id="use31109"
             y="134.765"
             x="223.43201"
             xlink:href="#textext-8c3e2381-1"
             width="100%"
             height="100%" />
        </g>
        <g
           id="g31111"
           style="fill:#000000;fill-opacity:1">
          <use
             id="use31113"
             y="136.259"
             x="227.927"
             xlink:href="#textext-8c3e2381-3"
             width="100%"
             height="100%" />
        </g>
        <g
           id="g31115"
           style="fill:#000000;fill-opacity:1">
          <use
             id="use31117"
             y="134.765"
             x="235.164"
             xlink:href="#textext-8c3e2381-5"
             width="100%"
             height="100%" />
        </g>
        <g
           id="g31119"
           style="fill:#000000;fill-opacity:1">
          <use
             id="use31121"
             y="134.765"
             x="245.68251"
             xlink:href="#textext-8c3e2381-6"
             width="100%"
             height="100%" />
          <use
             id="use31123"
             y="134.765"
             x="250.66382"
             xlink:href="#textext-8c3e2381-7"
             width="100%"
             height="100%" />
        </g>
        <g
           id="g31125"
           style="fill:#000000;fill-opacity:1">
          <use
             id="use31127"
             y="134.765"
             x="258.96265"
             xlink:href="#textext-8c3e2381-8"
             width="100%"
             height="100%" />
          <use
             id="use31129"
             y="134.765"
             x="264.49786"
             xlink:href="#textext-8c3e2381-9"
             width="100%"
             height="100%" />
        </g>
      </g>
    </g>
  </g>
</svg>
