<?xml version="1.0" encoding="UTF-8" standalone="no"?>
<!-- Created with Inkscape (http://www.inkscape.org/) -->

<svg
   xmlns:ns0="http://www.iki.fi/pav/software/textext/"
   xmlns:dc="http://purl.org/dc/elements/1.1/"
   xmlns:cc="http://creativecommons.org/ns#"
   xmlns:rdf="http://www.w3.org/1999/02/22-rdf-syntax-ns#"
   xmlns:svg="http://www.w3.org/2000/svg"
   xmlns="http://www.w3.org/2000/svg"
   xmlns:xlink="http://www.w3.org/1999/xlink"
   xmlns:sodipodi="http://sodipodi.sourceforge.net/DTD/sodipodi-0.dtd"
   xmlns:inkscape="http://www.inkscape.org/namespaces/inkscape"
   width="329.3298mm"
   height="138.51105mm"
   viewBox="0 0 1166.9166 490.78721"
   id="svg27517"
   version="1.1"
   inkscape:version="0.91 r13725"
   sodipodi:docname="quasistatic_twomer.svg">
  <sodipodi:namedview
     id="base"
     pagecolor="#ffffff"
     bordercolor="#666666"
     borderopacity="1.0"
     inkscape:pageopacity="0.0"
     inkscape:pageshadow="2"
     inkscape:zoom="0.42166024"
     inkscape:cx="582.36594"
     inkscape:cy="82.57936"
     inkscape:document-units="px"
     inkscape:current-layer="layer1"
     showgrid="false"
     inkscape:window-width="1280"
     inkscape:window-height="712"
     inkscape:window-x="0"
     inkscape:window-y="1"
     inkscape:window-maximized="1"
     fit-margin-top="0"
     fit-margin-left="0"
     fit-margin-right="0"
     fit-margin-bottom="0" />
  <defs
     id="defs27519">
    <clipPath
       clipPathUnits="userSpaceOnUse"
       id="clipPath28194">
      <path
         d="m 57.6,38.016 357.12,0 0,266.112 -357.12,0 0,-266.112 z"
         id="path28196"
         inkscape:connector-curvature="0" />
    </clipPath>
    <clipPath
       clipPathUnits="userSpaceOnUse"
       id="clipPath28204">
      <path
         d="m 57.6,38.016 357.12,0 0,266.112 -357.12,0 0,-266.112 z"
         id="path28206"
         inkscape:connector-curvature="0" />
    </clipPath>
    <clipPath
       clipPathUnits="userSpaceOnUse"
       id="clipPath28403">
      <path
         d="m 57.6,38.016 357.12,0 0,266.112 -357.12,0 0,-266.112 z"
         id="path28405"
         inkscape:connector-curvature="0" />
    </clipPath>
    <clipPath
       clipPathUnits="userSpaceOnUse"
       id="clipPath28413">
      <path
         d="m 57.6,38.016 357.12,0 0,266.112 -357.12,0 0,-266.112 z"
         id="path28415"
         inkscape:connector-curvature="0" />
    </clipPath>
  </defs>
  <metadata
     id="metadata27522">
    <rdf:RDF>
      <cc:Work
         rdf:about="">
        <dc:format>image/svg+xml</dc:format>
        <dc:type
           rdf:resource="http://purl.org/dc/dcmitype/StillImage" />
        <dc:title></dc:title>
      </cc:Work>
    </rdf:RDF>
  </metadata>
  <g
     id="layer1"
     inkscape:groupmode="layer"
     inkscape:label="Layer 1"
     transform="translate(86.191006,-7.8322431)">
    <path
       inkscape:connector-curvature="0"
       id="path28098"
       style="fill:#000000;fill-opacity:1;fill-rule:nonzero;stroke:#000000;stroke-width:3.75;stroke-linecap:butt;stroke-linejoin:round;stroke-miterlimit:10;stroke-dasharray:none;stroke-opacity:1"
       d="m 2.7281838,432.97086 0,4.375" />
    <path
       inkscape:connector-curvature="0"
       id="path28116"
       style="fill:#000000;fill-opacity:1;fill-rule:nonzero;stroke:#000000;stroke-width:3.75;stroke-linecap:butt;stroke-linejoin:round;stroke-miterlimit:10;stroke-dasharray:none;stroke-opacity:1"
       d="m 212.63414,432.97086 0,4.375" />
    <path
       inkscape:connector-curvature="0"
       id="path28134"
       style="fill:#000000;fill-opacity:1;fill-rule:nonzero;stroke:#000000;stroke-width:3.75;stroke-linecap:butt;stroke-linejoin:round;stroke-miterlimit:10;stroke-dasharray:none;stroke-opacity:1"
       d="m 422.54009,432.97086 0,4.375" />
    <path
       inkscape:connector-curvature="0"
       id="path28150"
       style="fill:#000000;fill-opacity:1;fill-rule:nonzero;stroke:#000000;stroke-width:3.75;stroke-linecap:butt;stroke-linejoin:round;stroke-miterlimit:10;stroke-dasharray:none;stroke-opacity:1"
       d="m -3.5689962,385.94938 -4.375,0" />
    <path
       inkscape:connector-curvature="0"
       id="path28174"
       style="fill:#000000;fill-opacity:1;fill-rule:nonzero;stroke:#000000;stroke-width:3.75;stroke-linecap:butt;stroke-linejoin:round;stroke-miterlimit:10;stroke-dasharray:none;stroke-opacity:1"
       d="m -3.5689962,154.48016 -4.375,0" />
    <g
       transform="matrix(1.25,0,0,-1.25,-75.568996,480.49086)"
       id="g28192"
       clip-path="url(#clipPath28194)">
      <path
         d="m 73.832727,292.032 11.194985,-0.69981 11.194984,-1.16799 11.194984,-1.63859 11.19499,-2.11258 11.19498,-2.59095 11.19498,-3.07461 11.19499,-3.56452 11.19498,-4.06162 11.19499,-4.56678 11.19498,-5.0809 11.19498,-5.60482 11.19499,-6.13932 11.19498,-6.68514 11.19499,-7.24294 11.19498,-7.81329 11.19499,-8.39668 11.19498,-8.9934 11.19499,-9.60368 11.19498,-10.22751 11.19498,-10.8647 11.19499,-11.51483 11.19498,-12.17724 11.19499,-12.85098 11.19498,-13.53478 11.19498,-14.22707 11.19499,-14.92596 11.19498,-15.629151 11.19499,-16.334083 11.19498,-17.037804"
         style="fill:none;stroke:#1f77b4;stroke-width:3;stroke-linecap:square;stroke-linejoin:round;stroke-miterlimit:10;stroke-dasharray:none;stroke-opacity:1"
         id="path28198"
         inkscape:connector-curvature="0" />
    </g>
    <g
       transform="matrix(1.25,0,0,-1.25,-75.568996,480.49086)"
       id="g28202"
       clip-path="url(#clipPath28204)">
      <path
         d="m 73.832727,288.16048 11.194985,-0.69892 11.194984,-1.1665 11.194984,-1.63651 11.19499,-2.1099 11.19498,-2.58765 11.19498,-3.0707 11.19499,-3.56 11.19498,-4.05645 11.19499,-4.56096 11.19498,-5.07443 11.19498,-5.59767 11.19499,-6.13148 11.19498,-6.67658 11.19499,-7.23365 11.19498,-7.80326 11.19499,-8.38585 11.19498,-8.98178 11.19499,-9.59123 11.19498,-10.21419 11.19498,-10.8505 11.19499,-11.49972 11.19498,-12.1612 11.19499,-12.83396 11.19498,-13.51677 11.19498,-14.20806 L 364.90232,99.046645 376.0973,83.438572 387.29229,67.126621 398.48727,50.112"
         style="fill:none;stroke:#ff7f0e;stroke-width:3;stroke-linecap:square;stroke-linejoin:round;stroke-miterlimit:10;stroke-dasharray:none;stroke-opacity:1"
         id="path28208"
         inkscape:connector-curvature="0" />
    </g>
    <path
       d="m -3.5689962,432.97086 0,-332.64"
       style="fill:none;stroke:#000000;stroke-width:3.75;stroke-linecap:square;stroke-linejoin:miter;stroke-miterlimit:10;stroke-dasharray:none;stroke-opacity:1"
       id="path28212"
       inkscape:connector-curvature="0" />
    <path
       d="m -3.5689962,432.97086 446.3999962,0"
       style="fill:none;stroke:#000000;stroke-width:3.75;stroke-linecap:square;stroke-linejoin:miter;stroke-miterlimit:10;stroke-dasharray:none;stroke-opacity:1"
       id="path28216"
       inkscape:connector-curvature="0" />
    <path
       d="m 22.941764,390.3777 25,0"
       style="fill:none;stroke:#1f77b4;stroke-width:3.75;stroke-linecap:square;stroke-linejoin:round;stroke-miterlimit:10;stroke-dasharray:none;stroke-opacity:1"
       id="path28222"
       inkscape:connector-curvature="0" />
    <path
       d="m 22.941764,408.71755 25,0"
       style="fill:none;stroke:#ff7f0e;stroke-width:3.75;stroke-linecap:square;stroke-linejoin:round;stroke-miterlimit:10;stroke-dasharray:none;stroke-opacity:1"
       id="path28228"
       inkscape:connector-curvature="0" />
    <path
       inkscape:connector-curvature="0"
       id="path28319"
       style="fill:#000000;fill-opacity:1;fill-rule:nonzero;stroke:#000000;stroke-width:3.75;stroke-linecap:butt;stroke-linejoin:round;stroke-miterlimit:10;stroke-dasharray:none;stroke-opacity:1"
       d="m 601.01147,431.41363 0,4.375" />
    <path
       inkscape:connector-curvature="0"
       id="path28337"
       style="fill:#000000;fill-opacity:1;fill-rule:nonzero;stroke:#000000;stroke-width:3.75;stroke-linecap:butt;stroke-linejoin:round;stroke-miterlimit:10;stroke-dasharray:none;stroke-opacity:1"
       d="m 810.91743,431.41363 0,4.375" />
    <path
       inkscape:connector-curvature="0"
       id="path28355"
       style="fill:#000000;fill-opacity:1;fill-rule:nonzero;stroke:#000000;stroke-width:3.75;stroke-linecap:butt;stroke-linejoin:round;stroke-miterlimit:10;stroke-dasharray:none;stroke-opacity:1"
       d="m 1020.8234,431.41363 0,4.375" />
    <path
       inkscape:connector-curvature="0"
       id="path28365"
       style="fill:#000000;fill-opacity:1;fill-rule:nonzero;stroke:#000000;stroke-width:3.75;stroke-linecap:butt;stroke-linejoin:round;stroke-miterlimit:10;stroke-dasharray:none;stroke-opacity:1"
       d="m 594.71429,420.62414 -4.375,0" />
    <path
       inkscape:connector-curvature="0"
       id="path28389"
       style="fill:#000000;fill-opacity:1;fill-rule:nonzero;stroke:#000000;stroke-width:3.75;stroke-linecap:butt;stroke-linejoin:round;stroke-miterlimit:10;stroke-dasharray:none;stroke-opacity:1"
       d="m 594.71429,113.66195 -4.375,0" />
    <g
       transform="matrix(1.25,0,0,-1.25,522.71429,478.93363)"
       id="g28401"
       clip-path="url(#clipPath28403)">
      <path
         d="m 73.832727,292.032 11.194985,0 11.194984,0 11.194984,0 11.19499,0 11.19498,0 11.19498,0 11.19499,0 11.19498,0 11.19499,0 11.19498,0 11.19498,0 11.19499,0 11.19498,0 11.19499,0 11.19498,0 11.19499,0 11.19498,0 11.19499,0 11.19498,0 11.19498,0 11.19499,0 11.19498,0 11.19499,0 11.19498,0 11.19498,0 11.19499,0 11.19498,0 11.19499,0 11.19498,0"
         style="fill:none;stroke:#1f77b4;stroke-width:3;stroke-linecap:square;stroke-linejoin:round;stroke-miterlimit:10;stroke-dasharray:none;stroke-opacity:1"
         id="path28407"
         inkscape:connector-curvature="0" />
    </g>
    <g
       transform="matrix(1.25,0,0,-1.25,522.71429,478.93363)"
       id="g28411"
       clip-path="url(#clipPath28413)">
      <path
         d="m 73.832727,50.112 11.194985,0 11.194984,0 11.194984,0 11.19499,0 11.19498,0 11.19498,0 11.19499,0 11.19498,0 11.19499,0 11.19498,0 11.19498,0 11.19499,0 11.19498,0 11.19499,0 11.19498,0 11.19499,0 11.19498,0 11.19499,0 11.19498,0 11.19498,0 11.19499,0 11.19498,0 11.19499,0 11.19498,0 11.19498,0 11.19499,0 11.19498,0 11.19499,0 11.19498,0"
         style="fill:none;stroke:#ff7f0e;stroke-width:3;stroke-linecap:square;stroke-linejoin:round;stroke-miterlimit:10;stroke-dasharray:none;stroke-opacity:1"
         id="path28417"
         inkscape:connector-curvature="0" />
    </g>
    <path
       d="m 594.71429,431.41363 0,-332.64"
       style="fill:none;stroke:#000000;stroke-width:3.75;stroke-linecap:square;stroke-linejoin:miter;stroke-miterlimit:10;stroke-dasharray:none;stroke-opacity:1"
       id="path28421"
       inkscape:connector-curvature="0" />
    <path
       d="m 594.71429,431.41363 446.40001,0"
       style="fill:none;stroke:#000000;stroke-width:3.75;stroke-linecap:square;stroke-linejoin:miter;stroke-miterlimit:10;stroke-dasharray:none;stroke-opacity:1"
       id="path28425"
       inkscape:connector-curvature="0" />
    <path
       d="m 614.81069,357.62585 25.00005,0"
       style="fill:none;stroke:#1f77b4;stroke-width:3.75;stroke-linecap:square;stroke-linejoin:round;stroke-miterlimit:10;stroke-dasharray:none;stroke-opacity:1"
       id="path28431"
       inkscape:connector-curvature="0" />
    <path
       d="m 614.81069,375.96569 25.00005,0"
       style="fill:none;stroke:#ff7f0e;stroke-width:3.75;stroke-linecap:square;stroke-linejoin:round;stroke-miterlimit:10;stroke-dasharray:none;stroke-opacity:1"
       id="path28437"
       inkscape:connector-curvature="0" />
    <text
       sodipodi:linespacing="125%"
       id="text28664"
       y="560.64301"
       x="-344.11545"
       style="font-style:normal;font-variant:normal;font-weight:normal;font-stretch:normal;font-size:30px;line-height:125%;font-family:'Latin Modern Roman';-inkscape-font-specification:'Latin Modern Roman, Normal';text-align:start;letter-spacing:0px;word-spacing:0px;writing-mode:lr-tb;text-anchor:start;fill:#000000;fill-opacity:1;stroke:none;stroke-width:1px;stroke-linecap:butt;stroke-linejoin:miter;stroke-opacity:1"
       xml:space="preserve"
       transform="matrix(0,-1,1,0,0,0)"><tspan
         y="560.64301"
         x="-344.11545"
         id="tspan28666"
         sodipodi:role="line">Energy (eV)</tspan></text>
    <g
       id="g28751"
       ns0:preamble="/Users/peacenick36/header.txt"
       ns0:text="$r_0$ (nm)"
       transform="matrix(3,0,0,3,-500.15634,86.824426)">
      <defs
         id="defs28753">
        <g
           id="g28755">
          <symbol
             id="textext-86baa474-0"
             overflow="visible"
             style="overflow:visible">
            <path
               id="path28758"
               d=""
               style="stroke:none"
               inkscape:connector-curvature="0" />
          </symbol>
          <symbol
             id="textext-86baa474-1"
             overflow="visible"
             style="overflow:visible">
            <path
               id="path28761"
               d="m 0.875,-0.59375 c -0.03125,0.15625 -0.09375,0.390625 -0.09375,0.4375 0,0.171875 0.140625,0.265625 0.296875,0.265625 0.125,0 0.296875,-0.078125 0.375,-0.28125 C 1.46875,-0.203125 1.796875,-1.5625 1.84375,-1.75 c 0.078125,-0.328125 0.265625,-1.015625 0.3125,-1.296875 0.046875,-0.125 0.328125,-0.59375 0.5625,-0.8125 0.078125,-0.0625 0.375,-0.328125 0.796875,-0.328125 0.265625,0 0.40625,0.125 0.421875,0.125 -0.296875,0.046875 -0.515625,0.28125 -0.515625,0.546875 0,0.15625 0.109375,0.34375 0.375,0.34375 0.265625,0 0.546875,-0.234375 0.546875,-0.59375 0,-0.34375 -0.3125,-0.640625 -0.828125,-0.640625 C 2.875,-4.40625 2.4375,-3.921875 2.25,-3.640625 2.15625,-4.09375 1.796875,-4.40625 1.328125,-4.40625 0.875,-4.40625 0.6875,-4.015625 0.59375,-3.84375 0.421875,-3.5 0.296875,-2.90625 0.296875,-2.875 c 0,0.109375 0.09375,0.109375 0.109375,0.109375 0.109375,0 0.109375,-0.015625 0.171875,-0.234375 0.171875,-0.703125 0.375,-1.1875 0.734375,-1.1875 0.15625,0 0.296875,0.078125 0.296875,0.453125 0,0.21875 -0.03125,0.328125 -0.15625,0.84375 z m 0,0"
               style="stroke:none"
               inkscape:connector-curvature="0" />
          </symbol>
          <symbol
             id="textext-86baa474-2"
             overflow="visible"
             style="overflow:visible">
            <path
               id="path28764"
               d=""
               style="stroke:none"
               inkscape:connector-curvature="0" />
          </symbol>
          <symbol
             id="textext-86baa474-3"
             overflow="visible"
             style="overflow:visible">
            <path
               id="path28767"
               d="M 3.59375,-2.21875 C 3.59375,-2.984375 3.5,-3.546875 3.1875,-4.03125 2.96875,-4.34375 2.53125,-4.625 1.984375,-4.625 c -1.625,0 -1.625,1.90625 -1.625,2.40625 0,0.5 0,2.359375 1.625,2.359375 1.609375,0 1.609375,-1.859375 1.609375,-2.359375 z M 1.984375,-0.0625 c -0.328125,0 -0.75,-0.1875 -0.890625,-0.75 C 1,-1.21875 1,-1.796875 1,-2.3125 1,-2.828125 1,-3.359375 1.09375,-3.734375 1.25,-4.28125 1.6875,-4.4375 1.984375,-4.4375 c 0.375,0 0.734375,0.234375 0.859375,0.640625 0.109375,0.375 0.125,0.875 0.125,1.484375 0,0.515625 0,1.03125 -0.09375,1.46875 -0.140625,0.640625 -0.609375,0.78125 -0.890625,0.78125 z m 0,0"
               style="stroke:none"
               inkscape:connector-curvature="0" />
          </symbol>
          <symbol
             id="textext-86baa474-4"
             overflow="visible"
             style="overflow:visible">
            <path
               id="path28770"
               d=""
               style="stroke:none"
               inkscape:connector-curvature="0" />
          </symbol>
          <symbol
             id="textext-86baa474-5"
             overflow="visible"
             style="overflow:visible">
            <path
               id="path28773"
               d="m 3.296875,2.390625 c 0,-0.03125 0,-0.046875 -0.171875,-0.21875 C 1.890625,0.921875 1.5625,-0.96875 1.5625,-2.5 c 0,-1.734375 0.375,-3.46875 1.609375,-4.703125 0.125,-0.125 0.125,-0.140625 0.125,-0.171875 0,-0.078125 -0.03125,-0.109375 -0.09375,-0.109375 -0.109375,0 -1,0.6875 -1.59375,1.953125 -0.5,1.09375 -0.625,2.203125 -0.625,3.03125 0,0.78125 0.109375,1.984375 0.65625,3.125 C 2.25,1.84375 3.09375,2.5 3.203125,2.5 c 0.0625,0 0.09375,-0.03125 0.09375,-0.109375 z m 0,0"
               style="stroke:none"
               inkscape:connector-curvature="0" />
          </symbol>
          <symbol
             id="textext-86baa474-6"
             overflow="visible"
             style="overflow:visible">
            <path
               id="path28776"
               d="m 1.09375,-3.421875 0,2.671875 c 0,0.4375 -0.109375,0.4375 -0.78125,0.4375 l 0,0.3125 c 0.359375,-0.015625 0.859375,-0.03125 1.140625,-0.03125 0.25,0 0.765625,0.015625 1.109375,0.03125 l 0,-0.3125 c -0.671875,0 -0.78125,0 -0.78125,-0.4375 l 0,-1.84375 C 1.78125,-3.625 2.5,-4.1875 3.125,-4.1875 c 0.640625,0 0.75,0.53125 0.75,1.109375 l 0,2.328125 c 0,0.4375 -0.109375,0.4375 -0.78125,0.4375 l 0,0.3125 c 0.34375,-0.015625 0.859375,-0.03125 1.125,-0.03125 0.25,0 0.78125,0.015625 1.109375,0.03125 l 0,-0.3125 c -0.515625,0 -0.765625,0 -0.765625,-0.296875 l 0,-1.90625 c 0,-0.859375 0,-1.15625 -0.3125,-1.515625 -0.140625,-0.171875 -0.46875,-0.375 -1.046875,-0.375 C 2.46875,-4.40625 2,-3.984375 1.71875,-3.359375 l 0,-1.046875 -1.40625,0.109375 0,0.3125 c 0.703125,0 0.78125,0.0625 0.78125,0.5625 z m 0,0"
               style="stroke:none"
               inkscape:connector-curvature="0" />
          </symbol>
          <symbol
             id="textext-86baa474-7"
             overflow="visible"
             style="overflow:visible">
            <path
               id="path28779"
               d="m 1.09375,-3.421875 0,2.671875 c 0,0.4375 -0.109375,0.4375 -0.78125,0.4375 l 0,0.3125 c 0.359375,-0.015625 0.859375,-0.03125 1.140625,-0.03125 0.25,0 0.765625,0.015625 1.109375,0.03125 l 0,-0.3125 c -0.671875,0 -0.78125,0 -0.78125,-0.4375 l 0,-1.84375 C 1.78125,-3.625 2.5,-4.1875 3.125,-4.1875 c 0.640625,0 0.75,0.53125 0.75,1.109375 l 0,2.328125 c 0,0.4375 -0.109375,0.4375 -0.78125,0.4375 l 0,0.3125 c 0.34375,-0.015625 0.859375,-0.03125 1.125,-0.03125 0.25,0 0.78125,0.015625 1.109375,0.03125 l 0,-0.3125 c -0.65625,0 -0.765625,0 -0.765625,-0.4375 l 0,-1.84375 c 0,-1.03125 0.703125,-1.59375 1.34375,-1.59375 0.625,0 0.734375,0.53125 0.734375,1.109375 l 0,2.328125 c 0,0.4375 -0.109375,0.4375 -0.78125,0.4375 l 0,0.3125 c 0.34375,-0.015625 0.859375,-0.03125 1.125,-0.03125 0.265625,0 0.78125,0.015625 1.125,0.03125 l 0,-0.3125 c -0.515625,0 -0.765625,0 -0.78125,-0.296875 l 0,-1.90625 c 0,-0.859375 0,-1.15625 -0.3125,-1.515625 -0.140625,-0.171875 -0.46875,-0.375 -1.046875,-0.375 -0.828125,0 -1.28125,0.59375 -1.4375,0.984375 C 4.390625,-4.296875 3.65625,-4.40625 3.203125,-4.40625 2.46875,-4.40625 2,-3.984375 1.71875,-3.359375 l 0,-1.046875 -1.40625,0.109375 0,0.3125 c 0.703125,0 0.78125,0.0625 0.78125,0.5625 z m 0,0"
               style="stroke:none"
               inkscape:connector-curvature="0" />
          </symbol>
          <symbol
             id="textext-86baa474-8"
             overflow="visible"
             style="overflow:visible">
            <path
               id="path28782"
               d="m 2.875,-2.5 c 0,-0.765625 -0.109375,-1.96875 -0.65625,-3.109375 -0.59375,-1.21875 -1.453125,-1.875 -1.546875,-1.875 -0.0625,0 -0.109375,0.046875 -0.109375,0.109375 0,0.03125 0,0.046875 0.1875,0.234375 0.984375,0.984375 1.546875,2.5625 1.546875,4.640625 0,1.71875 -0.359375,3.46875 -1.59375,4.71875 C 0.5625,2.34375 0.5625,2.359375 0.5625,2.390625 0.5625,2.453125 0.609375,2.5 0.671875,2.5 0.765625,2.5 1.671875,1.8125 2.25,0.546875 2.765625,-0.546875 2.875,-1.65625 2.875,-2.5 Z m 0,0"
               style="stroke:none"
               inkscape:connector-curvature="0" />
          </symbol>
        </g>
      </defs>
      <g
         id="textext-86baa474-9">
        <g
           id="g28785"
           style="fill:#000000;fill-opacity:1">
          <use
             id="use28787"
             y="134.765"
             x="223.43201"
             xlink:href="#textext-86baa474-1"
             width="100%"
             height="100%" />
        </g>
        <g
           id="g28789"
           style="fill:#000000;fill-opacity:1">
          <use
             id="use28791"
             y="136.259"
             x="227.927"
             xlink:href="#textext-86baa474-3"
             width="100%"
             height="100%" />
        </g>
        <g
           id="g28793"
           style="fill:#000000;fill-opacity:1">
          <use
             id="use28795"
             y="134.765"
             x="235.717"
             xlink:href="#textext-86baa474-5"
             width="100%"
             height="100%" />
          <use
             id="use28797"
             y="134.765"
             x="239.59146"
             xlink:href="#textext-86baa474-6"
             width="100%"
             height="100%" />
          <use
             id="use28799"
             y="134.765"
             x="245.12668"
             xlink:href="#textext-86baa474-7"
             width="100%"
             height="100%" />
          <use
             id="use28801"
             y="134.765"
             x="253.42851"
             xlink:href="#textext-86baa474-8"
             width="100%"
             height="100%" />
        </g>
      </g>
    </g>
    <text
       xml:space="preserve"
       style="font-style:normal;font-variant:normal;font-weight:normal;font-stretch:normal;font-size:30px;line-height:125%;font-family:'Latin Modern Roman';-inkscape-font-specification:'Latin Modern Roman, Normal';text-align:start;letter-spacing:0px;word-spacing:0px;writing-mode:lr-tb;text-anchor:start;fill:#000000;fill-opacity:1;stroke:none;stroke-width:1px;stroke-linecap:butt;stroke-linejoin:miter;stroke-opacity:1"
       x="-345.67267"
       y="-63.691067"
       id="text28915"
       sodipodi:linespacing="125%"
       transform="matrix(0,-1,1,0,0,0)"><tspan
         sodipodi:role="line"
         id="tspan28917"
         x="-345.67267"
         y="-63.691067">Energy (eV)</tspan></text>
    <g
       transform="matrix(3,0,0,3,98.126973,83.267209)"
       ns0:text="$r_0$ (nm)"
       ns0:preamble="/Users/peacenick36/header.txt"
       id="g28919">
      <defs
         id="defs28921">
        <g
           id="g28923">
          <symbol
             style="overflow:visible"
             overflow="visible"
             id="symbol28925">
            <path
               inkscape:connector-curvature="0"
               style="stroke:none"
               d=""
               id="path28927" />
          </symbol>
          <symbol
             style="overflow:visible"
             overflow="visible"
             id="symbol28929">
            <path
               inkscape:connector-curvature="0"
               style="stroke:none"
               d="m 0.875,-0.59375 c -0.03125,0.15625 -0.09375,0.390625 -0.09375,0.4375 0,0.171875 0.140625,0.265625 0.296875,0.265625 0.125,0 0.296875,-0.078125 0.375,-0.28125 C 1.46875,-0.203125 1.796875,-1.5625 1.84375,-1.75 c 0.078125,-0.328125 0.265625,-1.015625 0.3125,-1.296875 0.046875,-0.125 0.328125,-0.59375 0.5625,-0.8125 0.078125,-0.0625 0.375,-0.328125 0.796875,-0.328125 0.265625,0 0.40625,0.125 0.421875,0.125 -0.296875,0.046875 -0.515625,0.28125 -0.515625,0.546875 0,0.15625 0.109375,0.34375 0.375,0.34375 0.265625,0 0.546875,-0.234375 0.546875,-0.59375 0,-0.34375 -0.3125,-0.640625 -0.828125,-0.640625 C 2.875,-4.40625 2.4375,-3.921875 2.25,-3.640625 2.15625,-4.09375 1.796875,-4.40625 1.328125,-4.40625 0.875,-4.40625 0.6875,-4.015625 0.59375,-3.84375 0.421875,-3.5 0.296875,-2.90625 0.296875,-2.875 c 0,0.109375 0.09375,0.109375 0.109375,0.109375 0.109375,0 0.109375,-0.015625 0.171875,-0.234375 0.171875,-0.703125 0.375,-1.1875 0.734375,-1.1875 0.15625,0 0.296875,0.078125 0.296875,0.453125 0,0.21875 -0.03125,0.328125 -0.15625,0.84375 z m 0,0"
               id="path28931" />
          </symbol>
          <symbol
             style="overflow:visible"
             overflow="visible"
             id="symbol28933">
            <path
               inkscape:connector-curvature="0"
               style="stroke:none"
               d=""
               id="path28935" />
          </symbol>
          <symbol
             style="overflow:visible"
             overflow="visible"
             id="symbol28937">
            <path
               inkscape:connector-curvature="0"
               style="stroke:none"
               d="M 3.59375,-2.21875 C 3.59375,-2.984375 3.5,-3.546875 3.1875,-4.03125 2.96875,-4.34375 2.53125,-4.625 1.984375,-4.625 c -1.625,0 -1.625,1.90625 -1.625,2.40625 0,0.5 0,2.359375 1.625,2.359375 1.609375,0 1.609375,-1.859375 1.609375,-2.359375 z M 1.984375,-0.0625 c -0.328125,0 -0.75,-0.1875 -0.890625,-0.75 C 1,-1.21875 1,-1.796875 1,-2.3125 1,-2.828125 1,-3.359375 1.09375,-3.734375 1.25,-4.28125 1.6875,-4.4375 1.984375,-4.4375 c 0.375,0 0.734375,0.234375 0.859375,0.640625 0.109375,0.375 0.125,0.875 0.125,1.484375 0,0.515625 0,1.03125 -0.09375,1.46875 -0.140625,0.640625 -0.609375,0.78125 -0.890625,0.78125 z m 0,0"
               id="path28939" />
          </symbol>
          <symbol
             style="overflow:visible"
             overflow="visible"
             id="symbol28941">
            <path
               inkscape:connector-curvature="0"
               style="stroke:none"
               d=""
               id="path28943" />
          </symbol>
          <symbol
             style="overflow:visible"
             overflow="visible"
             id="symbol28945">
            <path
               inkscape:connector-curvature="0"
               style="stroke:none"
               d="m 3.296875,2.390625 c 0,-0.03125 0,-0.046875 -0.171875,-0.21875 C 1.890625,0.921875 1.5625,-0.96875 1.5625,-2.5 c 0,-1.734375 0.375,-3.46875 1.609375,-4.703125 0.125,-0.125 0.125,-0.140625 0.125,-0.171875 0,-0.078125 -0.03125,-0.109375 -0.09375,-0.109375 -0.109375,0 -1,0.6875 -1.59375,1.953125 -0.5,1.09375 -0.625,2.203125 -0.625,3.03125 0,0.78125 0.109375,1.984375 0.65625,3.125 C 2.25,1.84375 3.09375,2.5 3.203125,2.5 c 0.0625,0 0.09375,-0.03125 0.09375,-0.109375 z m 0,0"
               id="path28947" />
          </symbol>
          <symbol
             style="overflow:visible"
             overflow="visible"
             id="symbol28949">
            <path
               inkscape:connector-curvature="0"
               style="stroke:none"
               d="m 1.09375,-3.421875 0,2.671875 c 0,0.4375 -0.109375,0.4375 -0.78125,0.4375 l 0,0.3125 c 0.359375,-0.015625 0.859375,-0.03125 1.140625,-0.03125 0.25,0 0.765625,0.015625 1.109375,0.03125 l 0,-0.3125 c -0.671875,0 -0.78125,0 -0.78125,-0.4375 l 0,-1.84375 C 1.78125,-3.625 2.5,-4.1875 3.125,-4.1875 c 0.640625,0 0.75,0.53125 0.75,1.109375 l 0,2.328125 c 0,0.4375 -0.109375,0.4375 -0.78125,0.4375 l 0,0.3125 c 0.34375,-0.015625 0.859375,-0.03125 1.125,-0.03125 0.25,0 0.78125,0.015625 1.109375,0.03125 l 0,-0.3125 c -0.515625,0 -0.765625,0 -0.765625,-0.296875 l 0,-1.90625 c 0,-0.859375 0,-1.15625 -0.3125,-1.515625 -0.140625,-0.171875 -0.46875,-0.375 -1.046875,-0.375 C 2.46875,-4.40625 2,-3.984375 1.71875,-3.359375 l 0,-1.046875 -1.40625,0.109375 0,0.3125 c 0.703125,0 0.78125,0.0625 0.78125,0.5625 z m 0,0"
               id="path28951" />
          </symbol>
          <symbol
             style="overflow:visible"
             overflow="visible"
             id="symbol28953">
            <path
               inkscape:connector-curvature="0"
               style="stroke:none"
               d="m 1.09375,-3.421875 0,2.671875 c 0,0.4375 -0.109375,0.4375 -0.78125,0.4375 l 0,0.3125 c 0.359375,-0.015625 0.859375,-0.03125 1.140625,-0.03125 0.25,0 0.765625,0.015625 1.109375,0.03125 l 0,-0.3125 c -0.671875,0 -0.78125,0 -0.78125,-0.4375 l 0,-1.84375 C 1.78125,-3.625 2.5,-4.1875 3.125,-4.1875 c 0.640625,0 0.75,0.53125 0.75,1.109375 l 0,2.328125 c 0,0.4375 -0.109375,0.4375 -0.78125,0.4375 l 0,0.3125 c 0.34375,-0.015625 0.859375,-0.03125 1.125,-0.03125 0.25,0 0.78125,0.015625 1.109375,0.03125 l 0,-0.3125 c -0.65625,0 -0.765625,0 -0.765625,-0.4375 l 0,-1.84375 c 0,-1.03125 0.703125,-1.59375 1.34375,-1.59375 0.625,0 0.734375,0.53125 0.734375,1.109375 l 0,2.328125 c 0,0.4375 -0.109375,0.4375 -0.78125,0.4375 l 0,0.3125 c 0.34375,-0.015625 0.859375,-0.03125 1.125,-0.03125 0.265625,0 0.78125,0.015625 1.125,0.03125 l 0,-0.3125 c -0.515625,0 -0.765625,0 -0.78125,-0.296875 l 0,-1.90625 c 0,-0.859375 0,-1.15625 -0.3125,-1.515625 -0.140625,-0.171875 -0.46875,-0.375 -1.046875,-0.375 -0.828125,0 -1.28125,0.59375 -1.4375,0.984375 C 4.390625,-4.296875 3.65625,-4.40625 3.203125,-4.40625 2.46875,-4.40625 2,-3.984375 1.71875,-3.359375 l 0,-1.046875 -1.40625,0.109375 0,0.3125 c 0.703125,0 0.78125,0.0625 0.78125,0.5625 z m 0,0"
               id="path28955" />
          </symbol>
          <symbol
             style="overflow:visible"
             overflow="visible"
             id="symbol28957">
            <path
               inkscape:connector-curvature="0"
               style="stroke:none"
               d="m 2.875,-2.5 c 0,-0.765625 -0.109375,-1.96875 -0.65625,-3.109375 -0.59375,-1.21875 -1.453125,-1.875 -1.546875,-1.875 -0.0625,0 -0.109375,0.046875 -0.109375,0.109375 0,0.03125 0,0.046875 0.1875,0.234375 0.984375,0.984375 1.546875,2.5625 1.546875,4.640625 0,1.71875 -0.359375,3.46875 -1.59375,4.71875 C 0.5625,2.34375 0.5625,2.359375 0.5625,2.390625 0.5625,2.453125 0.609375,2.5 0.671875,2.5 0.765625,2.5 1.671875,1.8125 2.25,0.546875 2.765625,-0.546875 2.875,-1.65625 2.875,-2.5 Z m 0,0"
               id="path28959" />
          </symbol>
        </g>
      </defs>
      <g
         id="g28961">
        <g
           style="fill:#000000;fill-opacity:1"
           id="g28963">
          <use
             height="100%"
             width="100%"
             xlink:href="#textext-86baa474-1"
             x="223.43201"
             y="134.765"
             id="use28965" />
        </g>
        <g
           style="fill:#000000;fill-opacity:1"
           id="g28967">
          <use
             height="100%"
             width="100%"
             xlink:href="#textext-86baa474-3"
             x="227.927"
             y="136.259"
             id="use28969" />
        </g>
        <g
           style="fill:#000000;fill-opacity:1"
           id="g28971">
          <use
             height="100%"
             width="100%"
             xlink:href="#textext-86baa474-5"
             x="235.717"
             y="134.765"
             id="use28973" />
          <use
             height="100%"
             width="100%"
             xlink:href="#textext-86baa474-6"
             x="239.59146"
             y="134.765"
             id="use28975" />
          <use
             height="100%"
             width="100%"
             xlink:href="#textext-86baa474-7"
             x="245.12668"
             y="134.765"
             id="use28977" />
          <use
             height="100%"
             width="100%"
             xlink:href="#textext-86baa474-8"
             x="253.42851"
             y="134.765"
             id="use28979" />
        </g>
      </g>
    </g>
    <text
       xml:space="preserve"
       style="font-style:normal;font-variant:normal;font-weight:normal;font-stretch:normal;font-size:30px;line-height:125%;font-family:'Latin Modern Roman';-inkscape-font-specification:'Latin Modern Roman, Normal';text-align:start;letter-spacing:0px;word-spacing:0px;writing-mode:lr-tb;text-anchor:start;fill:#000000;fill-opacity:1;stroke:none;stroke-width:1px;stroke-linecap:butt;stroke-linejoin:miter;stroke-opacity:1"
       x="-4.7580371"
       y="462.32288"
       id="text28981"
       sodipodi:linespacing="125%"><tspan
         sodipodi:role="line"
         id="tspan28983"
         x="-4.7580371"
         y="462.32288">0</tspan></text>
    <text
       xml:space="preserve"
       style="font-style:normal;font-variant:normal;font-weight:normal;font-stretch:normal;font-size:30px;line-height:125%;font-family:'Latin Modern Roman';-inkscape-font-specification:'Latin Modern Roman, Normal';text-align:start;letter-spacing:0px;word-spacing:0px;writing-mode:lr-tb;text-anchor:start;fill:#000000;fill-opacity:1;stroke:none;stroke-width:1px;stroke-linecap:butt;stroke-linejoin:miter;stroke-opacity:1"
       x="197.20674"
       y="462.40527"
       id="text28985"
       sodipodi:linespacing="125%"><tspan
         sodipodi:role="line"
         id="tspan28987"
         x="197.20674"
         y="462.40527">15</tspan></text>
    <text
       xml:space="preserve"
       style="font-style:normal;font-variant:normal;font-weight:normal;font-stretch:normal;font-size:30px;line-height:125%;font-family:'Latin Modern Roman';-inkscape-font-specification:'Latin Modern Roman, Normal';text-align:start;letter-spacing:0px;word-spacing:0px;writing-mode:lr-tb;text-anchor:start;fill:#000000;fill-opacity:1;stroke:none;stroke-width:1px;stroke-linecap:butt;stroke-linejoin:miter;stroke-opacity:1"
       x="1005.8567"
       y="460.76566"
       id="text28989"
       sodipodi:linespacing="125%"><tspan
         sodipodi:role="line"
         id="tspan28991"
         x="1005.8567"
         y="460.76566">30</tspan></text>
    <text
       sodipodi:linespacing="125%"
       id="text28993"
       y="460.76566"
       x="593.52527"
       style="font-style:normal;font-variant:normal;font-weight:normal;font-stretch:normal;font-size:30px;line-height:125%;font-family:'Latin Modern Roman';-inkscape-font-specification:'Latin Modern Roman, Normal';text-align:start;letter-spacing:0px;word-spacing:0px;writing-mode:lr-tb;text-anchor:start;fill:#000000;fill-opacity:1;stroke:none;stroke-width:1px;stroke-linecap:butt;stroke-linejoin:miter;stroke-opacity:1"
       xml:space="preserve"><tspan
         y="460.76566"
         x="593.52527"
         id="tspan28995"
         sodipodi:role="line">0</tspan></text>
    <text
       sodipodi:linespacing="125%"
       id="text28997"
       y="460.84805"
       x="795.49005"
       style="font-style:normal;font-variant:normal;font-weight:normal;font-stretch:normal;font-size:30px;line-height:125%;font-family:'Latin Modern Roman';-inkscape-font-specification:'Latin Modern Roman, Normal';text-align:start;letter-spacing:0px;word-spacing:0px;writing-mode:lr-tb;text-anchor:start;fill:#000000;fill-opacity:1;stroke:none;stroke-width:1px;stroke-linecap:butt;stroke-linejoin:miter;stroke-opacity:1"
       xml:space="preserve"><tspan
         y="460.84805"
         x="795.49005"
         id="tspan28999"
         sodipodi:role="line">15</tspan></text>
    <text
       sodipodi:linespacing="125%"
       id="text29001"
       y="462.32288"
       x="407.57336"
       style="font-style:normal;font-variant:normal;font-weight:normal;font-stretch:normal;font-size:30px;line-height:125%;font-family:'Latin Modern Roman';-inkscape-font-specification:'Latin Modern Roman, Normal';text-align:start;letter-spacing:0px;word-spacing:0px;writing-mode:lr-tb;text-anchor:start;fill:#000000;fill-opacity:1;stroke:none;stroke-width:1px;stroke-linecap:butt;stroke-linejoin:miter;stroke-opacity:1"
       xml:space="preserve"><tspan
         y="462.32288"
         x="407.57336"
         id="tspan29003"
         sodipodi:role="line">30</tspan></text>
    <text
       xml:space="preserve"
       style="font-style:normal;font-variant:normal;font-weight:normal;font-stretch:normal;font-size:30px;line-height:125%;font-family:'Latin Modern Roman';-inkscape-font-specification:'Latin Modern Roman, Normal';text-align:start;letter-spacing:0px;word-spacing:0px;writing-mode:lr-tb;text-anchor:start;fill:#000000;fill-opacity:1;stroke:none;stroke-width:1px;stroke-linecap:butt;stroke-linejoin:miter;stroke-opacity:1"
       x="-65.32119"
       y="164.33609"
       id="text29005"
       sodipodi:linespacing="125%"><tspan
         sodipodi:role="line"
         id="tspan29007"
         x="-65.32119"
         y="164.33609">3.6</tspan></text>
    <text
       xml:space="preserve"
       style="font-style:normal;font-variant:normal;font-weight:normal;font-stretch:normal;font-size:30px;line-height:125%;font-family:'Latin Modern Roman';-inkscape-font-specification:'Latin Modern Roman, Normal';text-align:start;letter-spacing:0px;word-spacing:0px;writing-mode:lr-tb;text-anchor:start;fill:#000000;fill-opacity:1;stroke:none;stroke-width:1px;stroke-linecap:butt;stroke-linejoin:miter;stroke-opacity:1"
       x="-65.531212"
       y="395.97031"
       id="text29009"
       sodipodi:linespacing="125%"><tspan
         sodipodi:role="line"
         id="tspan29011"
         x="-65.531212"
         y="395.97031">3.4</tspan></text>
    <text
       xml:space="preserve"
       style="font-style:normal;font-variant:normal;font-weight:normal;font-stretch:normal;font-size:30px;line-height:125%;font-family:'Latin Modern Roman';-inkscape-font-specification:'Latin Modern Roman, Normal';text-align:start;letter-spacing:0px;word-spacing:0px;writing-mode:lr-tb;text-anchor:start;fill:#000000;fill-opacity:1;stroke:none;stroke-width:1px;stroke-linecap:butt;stroke-linejoin:miter;stroke-opacity:1"
       x="511.84198"
       y="430.64508"
       id="text29013"
       sodipodi:linespacing="125%"><tspan
         sodipodi:role="line"
         id="tspan29015"
         x="511.84198"
         y="430.64508">3.644</tspan></text>
    <text
       xml:space="preserve"
       style="font-style:normal;font-variant:normal;font-weight:normal;font-stretch:normal;font-size:30px;line-height:125%;font-family:'Latin Modern Roman';-inkscape-font-specification:'Latin Modern Roman, Normal';text-align:start;letter-spacing:0px;word-spacing:0px;writing-mode:lr-tb;text-anchor:start;fill:#000000;fill-opacity:1;stroke:none;stroke-width:1px;stroke-linecap:butt;stroke-linejoin:miter;stroke-opacity:1"
       x="511.97565"
       y="123.68289"
       id="text29017"
       sodipodi:linespacing="125%"><tspan
         sodipodi:role="line"
         id="tspan29019"
         x="511.97565"
         y="123.68289">3.650</tspan></text>
    <text
       xml:space="preserve"
       style="font-style:normal;font-variant:normal;font-weight:normal;font-stretch:normal;font-size:30px;line-height:125%;font-family:'Latin Modern Roman';-inkscape-font-specification:'Latin Modern Roman, Normal';text-align:start;letter-spacing:0px;word-spacing:0px;writing-mode:lr-tb;text-anchor:start;fill:#000000;fill-opacity:1;stroke:none;stroke-width:1px;stroke-linecap:butt;stroke-linejoin:miter;stroke-opacity:1"
       x="56.830906"
       y="392.18182"
       id="text29021"
       sodipodi:linespacing="125%"><tspan
         sodipodi:role="line"
         id="tspan29023"
         x="56.830906"
         y="392.18182">North-North</tspan></text>
    <text
       xml:space="preserve"
       style="font-style:normal;font-variant:normal;font-weight:normal;font-stretch:normal;font-size:30px;line-height:125%;font-family:'Latin Modern Roman';-inkscape-font-specification:'Latin Modern Roman, Normal';text-align:start;letter-spacing:0px;word-spacing:0px;writing-mode:lr-tb;text-anchor:start;fill:#000000;fill-opacity:1;stroke:none;stroke-width:1px;stroke-linecap:butt;stroke-linejoin:miter;stroke-opacity:1"
       x="58.095051"
       y="421.37134"
       id="text29025"
       sodipodi:linespacing="125%"><tspan
         sodipodi:role="line"
         id="tspan29027"
         x="58.095051"
         y="421.37134">North-South</tspan></text>
    <text
       sodipodi:linespacing="125%"
       id="text29029"
       y="362.83124"
       x="648.21613"
       style="font-style:normal;font-variant:normal;font-weight:normal;font-stretch:normal;font-size:30px;line-height:125%;font-family:'Latin Modern Roman';-inkscape-font-specification:'Latin Modern Roman, Normal';text-align:start;letter-spacing:0px;word-spacing:0px;writing-mode:lr-tb;text-anchor:start;fill:#000000;fill-opacity:1;stroke:none;stroke-width:1px;stroke-linecap:butt;stroke-linejoin:miter;stroke-opacity:1"
       xml:space="preserve"><tspan
         y="362.83124"
         x="648.21613"
         id="tspan29031"
         sodipodi:role="line">North-North</tspan></text>
    <text
       sodipodi:linespacing="125%"
       id="text29033"
       y="392.86212"
       x="648.60553"
       style="font-style:normal;font-variant:normal;font-weight:normal;font-stretch:normal;font-size:30px;line-height:125%;font-family:'Latin Modern Roman';-inkscape-font-specification:'Latin Modern Roman, Normal';text-align:start;letter-spacing:0px;word-spacing:0px;writing-mode:lr-tb;text-anchor:start;fill:#000000;fill-opacity:1;stroke:none;stroke-width:1px;stroke-linecap:butt;stroke-linejoin:miter;stroke-opacity:1"
       xml:space="preserve"><tspan
         y="392.86212"
         x="648.60553"
         id="tspan29035"
         sodipodi:role="line">North-South</tspan></text>
    <text
       xml:space="preserve"
       style="font-style:normal;font-variant:normal;font-weight:normal;font-stretch:normal;font-size:39.03531265px;line-height:125%;font-family:'Latin Modern Roman';-inkscape-font-specification:'Latin Modern Roman, Normal';text-align:center;letter-spacing:0px;word-spacing:0px;writing-mode:lr-tb;text-anchor:middle;fill:#000000;fill-opacity:1;stroke:none;stroke-width:1px;stroke-linecap:butt;stroke-linejoin:miter;stroke-opacity:1"
       x="208.35735"
       y="37.352139"
       id="text29037"
       sodipodi:linespacing="125%"><tspan
         sodipodi:role="line"
         id="tspan29039"
         x="208.35735"
         y="37.352139">Quasistatic fields;</tspan><tspan
         sodipodi:role="line"
         x="208.35735"
         y="86.146278"
         id="tspan29041">fully retarded particles</tspan></text>
    <text
       sodipodi:linespacing="125%"
       id="text29043"
       y="54.32476"
       x="818.22443"
       style="font-style:normal;font-variant:normal;font-weight:normal;font-stretch:normal;font-size:39.03531265px;line-height:125%;font-family:'Latin Modern Roman';-inkscape-font-specification:'Latin Modern Roman, Normal';text-align:center;letter-spacing:0px;word-spacing:0px;writing-mode:lr-tb;text-anchor:middle;fill:#000000;fill-opacity:1;stroke:none;stroke-width:1px;stroke-linecap:butt;stroke-linejoin:miter;stroke-opacity:1"
       xml:space="preserve"><tspan
         id="tspan29047"
         y="54.32476"
         x="818.22443"
         sodipodi:role="line">Quasistatic fields and particles</tspan></text>
  </g>
</svg>
