<?xml version="1.0" encoding="UTF-8" standalone="no"?>
<!-- Created with Inkscape (http://www.inkscape.org/) -->

<svg
   xmlns:ns0="http://www.iki.fi/pav/software/textext/"
   xmlns:dc="http://purl.org/dc/elements/1.1/"
   xmlns:cc="http://creativecommons.org/ns#"
   xmlns:rdf="http://www.w3.org/1999/02/22-rdf-syntax-ns#"
   xmlns:svg="http://www.w3.org/2000/svg"
   xmlns="http://www.w3.org/2000/svg"
   xmlns:xlink="http://www.w3.org/1999/xlink"
   xmlns:sodipodi="http://sodipodi.sourceforge.net/DTD/sodipodi-0.dtd"
   xmlns:inkscape="http://www.inkscape.org/namespaces/inkscape"
   width="185.9753mm"
   height="153.01106mm"
   viewBox="0 0 658.96758 542.16517"
   id="svg11189"
   version="1.1"
   inkscape:version="0.91 r13725"
   sodipodi:docname="scaling_wavelength.svg">
  <sodipodi:namedview
     id="base"
     pagecolor="#ffffff"
     bordercolor="#666666"
     borderopacity="1.0"
     inkscape:pageopacity="0.0"
     inkscape:pageshadow="2"
     inkscape:zoom="0.72204156"
     inkscape:cx="447.24944"
     inkscape:cy="306.61412"
     inkscape:document-units="px"
     inkscape:current-layer="layer1"
     showgrid="false"
     inkscape:window-width="1280"
     inkscape:window-height="712"
     inkscape:window-x="0"
     inkscape:window-y="1"
     inkscape:window-maximized="1"
     fit-margin-top="0"
     fit-margin-left="0"
     fit-margin-right="0"
     fit-margin-bottom="0" />
  <defs
     id="defs11191">
    <clipPath
       clipPathUnits="userSpaceOnUse"
       id="clipPath11878">
      <path
         d="m 57.6,38.016 357.12,0 0,266.112 -357.12,0 0,-266.112 z"
         id="path11880"
         inkscape:connector-curvature="0" />
    </clipPath>
    <clipPath
       clipPathUnits="userSpaceOnUse"
       id="clipPath11888">
      <path
         d="m 57.6,38.016 357.12,0 0,266.112 -357.12,0 0,-266.112 z"
         id="path11890"
         inkscape:connector-curvature="0" />
    </clipPath>
    <clipPath
       clipPathUnits="userSpaceOnUse"
       id="clipPath11898">
      <path
         d="m 57.6,38.016 357.12,0 0,266.112 -357.12,0 0,-266.112 z"
         id="path11900"
         inkscape:connector-curvature="0" />
    </clipPath>
  </defs>
  <metadata
     id="metadata11194">
    <rdf:RDF>
      <cc:Work
         rdf:about="">
        <dc:format>image/svg+xml</dc:format>
        <dc:type
           rdf:resource="http://purl.org/dc/dcmitype/StillImage" />
        <dc:title></dc:title>
      </cc:Work>
    </rdf:RDF>
  </metadata>
  <g
     id="layer1"
     inkscape:groupmode="layer"
     inkscape:label="Layer 1"
     transform="translate(-8.0217195,-25.590466)">
    <path
       inkscape:connector-curvature="0"
       id="path11770"
       style="fill:#000000;fill-opacity:1;fill-rule:nonzero;stroke:#000000;stroke-width:3.75;stroke-linecap:butt;stroke-linejoin:round;stroke-miterlimit:10;stroke-dasharray:none;stroke-opacity:1"
       d="m 102.76068,506.38506 0,5.70602" />
    <path
       inkscape:connector-curvature="0"
       id="path11788"
       style="fill:#000000;fill-opacity:1;fill-rule:nonzero;stroke:#000000;stroke-width:3.75;stroke-linecap:butt;stroke-linejoin:round;stroke-miterlimit:10;stroke-dasharray:none;stroke-opacity:1"
       d="m 370.97385,506.38506 0,5.70602" />
    <path
       inkscape:connector-curvature="0"
       id="path11806"
       style="fill:#000000;fill-opacity:1;fill-rule:nonzero;stroke:#000000;stroke-width:3.75;stroke-linecap:butt;stroke-linejoin:round;stroke-miterlimit:10;stroke-dasharray:none;stroke-opacity:1"
       d="m 639.187,506.38506 0,5.70602" />
    <path
       inkscape:connector-curvature="0"
       id="path11828"
       style="fill:#000000;fill-opacity:1;fill-rule:nonzero;stroke:#000000;stroke-width:3.75;stroke-linecap:butt;stroke-linejoin:round;stroke-miterlimit:10;stroke-dasharray:none;stroke-opacity:1"
       d="m 94.714287,393.94594 -5.590277,0" />
    <path
       inkscape:connector-curvature="0"
       id="path11840"
       style="fill:#000000;fill-opacity:1;fill-rule:nonzero;stroke:#000000;stroke-width:3.75;stroke-linecap:butt;stroke-linejoin:round;stroke-miterlimit:10;stroke-dasharray:none;stroke-opacity:1"
       d="m 94.714287,289.98135 -5.590277,0" />
    <path
       inkscape:connector-curvature="0"
       id="path11852"
       style="fill:#000000;fill-opacity:1;fill-rule:nonzero;stroke:#000000;stroke-width:3.75;stroke-linecap:butt;stroke-linejoin:round;stroke-miterlimit:10;stroke-dasharray:none;stroke-opacity:1"
       d="m 94.714287,186.01675 -5.590277,0" />
    <path
       inkscape:connector-curvature="0"
       id="path11864"
       style="fill:#000000;fill-opacity:1;fill-rule:nonzero;stroke:#000000;stroke-width:3.75;stroke-linecap:butt;stroke-linejoin:round;stroke-miterlimit:10;stroke-dasharray:none;stroke-opacity:1"
       d="m 94.714287,82.05215 -5.590277,0" />
    <g
       transform="matrix(1.5972222,0,0,-1.630291,2.7142886,568.3622)"
       id="g11876"
       clip-path="url(#clipPath11878)">
      <path
         d="m 73.832727,260.74835 11.194985,0.0734 11.194984,0.12433 11.194984,0.178 11.19499,0.23531 11.19498,0.29694 11.19498,0.36321 11.19499,0.43412 11.19498,0.50921 11.19499,0.58763 11.19498,0.66801 11.19498,0.74871 11.19499,0.82788 11.19498,0.90362 11.19499,0.97435 11.19498,1.03882 11.19499,1.09641 11.19498,1.14705 11.19499,1.19138 11.19498,1.23052 11.19498,1.26609 11.19499,1.29994 11.19498,1.33394 11.19499,1.36977 11.19498,1.40865 11.19498,1.45128 11.19499,1.49781 11.19498,1.54796 11.19499,1.60134 11.19498,1.65754"
         style="fill:none;stroke:#1f77b4;stroke-width:3.87315416;stroke-linecap:square;stroke-linejoin:round;stroke-miterlimit:10;stroke-dasharray:none;stroke-opacity:1"
         id="path11882"
         inkscape:connector-curvature="0" />
    </g>
    <g
       transform="matrix(1.5972222,0,0,-1.630291,2.7142886,568.3622)"
       id="g11886"
       clip-path="url(#clipPath11888)">
      <path
         d="m 73.832727,261.02143 11.194985,0.0623 11.194984,0.10461 11.194984,0.14811 11.19499,0.19339 11.19498,0.24113 11.19498,0.2921 11.19499,0.3471 11.19498,0.40694 11.19499,0.47218 11.19498,0.54312 11.19498,0.61969 11.19499,0.70149 11.19498,0.78798 11.19499,0.87865 11.19498,0.97307 11.19499,1.0709 11.19498,1.17179 11.19499,1.27525 11.19498,1.38059 11.19498,1.48699 11.19499,1.59343 11.19498,1.69884 11.19499,1.80213 11.19498,1.90233 11.19498,1.99858 11.19499,2.09018 11.19498,2.17668 11.19499,2.25774 11.19498,2.33326"
         style="fill:none;stroke:#ff7f0e;stroke-width:3.87315416;stroke-linecap:square;stroke-linejoin:round;stroke-miterlimit:10;stroke-dasharray:none;stroke-opacity:1"
         id="path11892"
         inkscape:connector-curvature="0" />
    </g>
    <g
       transform="matrix(1.5972222,0,0,-1.630291,2.7142886,568.3622)"
       id="g11896"
       clip-path="url(#clipPath11898)">
      <path
         d="m 73.832727,50.112 11.194985,6.897843 11.194984,6.897842 11.194984,6.897843 11.19499,6.897843 11.19498,6.897842 11.19498,6.897843 11.19499,6.897843 11.19498,6.897841 11.19499,6.89784 11.19498,6.89785 11.19498,6.89784 11.19499,6.89784 11.19498,6.89784 11.19499,6.89785 11.19498,6.89784 11.19499,6.89784 11.19498,6.89784 11.19499,6.89785 11.19498,6.89784 11.19498,6.89784 11.19499,6.89785 11.19498,6.89784 11.19499,6.89784 11.19498,6.89784 11.19498,6.89785 11.19499,6.89784 11.19498,6.89784 11.19499,6.89784 11.19498,6.89785"
         style="fill:none;stroke:#000000;stroke-width:3.87315416;stroke-linecap:square;stroke-linejoin:round;stroke-miterlimit:10;stroke-dasharray:none;stroke-opacity:1"
         id="path11902"
         inkscape:connector-curvature="0" />
    </g>
    <path
       d="m 94.714287,506.38506 0,-433.840001"
       style="fill:none;stroke:#000000;stroke-width:3.75;stroke-linecap:square;stroke-linejoin:miter;stroke-miterlimit:10;stroke-dasharray:none;stroke-opacity:1"
       id="path11906"
       inkscape:connector-curvature="0" />
    <path
       d="m 94.714287,506.38506 570.399993,0"
       style="fill:none;stroke:#000000;stroke-width:3.75;stroke-linecap:square;stroke-linejoin:miter;stroke-miterlimit:10;stroke-dasharray:none;stroke-opacity:1"
       id="path11910"
       inkscape:connector-curvature="0" />
    <path
       d="m 462.44634,437.41156 31.94445,0"
       style="fill:none;stroke:#1f77b4;stroke-width:6.25;stroke-linecap:square;stroke-linejoin:round;stroke-miterlimit:10;stroke-dasharray:none;stroke-opacity:1"
       id="path11916"
       inkscape:connector-curvature="0" />
    <path
       d="m 462.44634,461.33099 31.94445,0"
       style="fill:none;stroke:#ff7f0e;stroke-width:6.25;stroke-linecap:square;stroke-linejoin:round;stroke-miterlimit:10;stroke-dasharray:none;stroke-opacity:1"
       id="path11922"
       inkscape:connector-curvature="0" />
    <path
       d="m 462.44634,485.25041 31.94445,0"
       style="fill:none;stroke:#000000;stroke-width:6.25;stroke-linecap:square;stroke-linejoin:round;stroke-miterlimit:10;stroke-dasharray:none;stroke-opacity:1"
       id="path11928"
       inkscape:connector-curvature="0" />
    <text
       transform="matrix(0,-0.95765295,1.0442196,0,0,0)"
       sodipodi:linespacing="125%"
       id="text12117"
       y="29.89394"
       x="-410.51901"
       style="font-style:normal;font-variant:normal;font-weight:normal;font-stretch:normal;font-size:29.6158886px;line-height:125%;font-family:'Latin Modern Roman';-inkscape-font-specification:'Latin Modern Roman, Normal';text-align:start;letter-spacing:0px;word-spacing:0px;writing-mode:lr-tb;text-anchor:start;fill:#000000;fill-opacity:1;stroke:none;stroke-width:1px;stroke-linecap:butt;stroke-linejoin:miter;stroke-opacity:1"
       xml:space="preserve"><tspan
         y="29.89394"
         x="-410.51901"
         id="tspan12119"
         sodipodi:role="line">Wavelength (nm)</tspan></text>
    <g
       id="g12188"
       ns0:preamble="/Users/peacenick36/header.txt"
       ns0:text="$r_0$ (nm)"
       transform="matrix(2.9582824,0,0,2.9582824,-338.35039,161.68701)">
      <defs
         id="defs12190">
        <g
           id="g12192">
          <symbol
             id="textext-86baa474-0"
             overflow="visible"
             style="overflow:visible">
            <path
               id="path12195"
               d=""
               style="stroke:none"
               inkscape:connector-curvature="0" />
          </symbol>
          <symbol
             id="textext-86baa474-1"
             overflow="visible"
             style="overflow:visible">
            <path
               id="path12198"
               d="m 0.875,-0.59375 c -0.03125,0.15625 -0.09375,0.390625 -0.09375,0.4375 0,0.171875 0.140625,0.265625 0.296875,0.265625 0.125,0 0.296875,-0.078125 0.375,-0.28125 C 1.46875,-0.203125 1.796875,-1.5625 1.84375,-1.75 c 0.078125,-0.328125 0.265625,-1.015625 0.3125,-1.296875 0.046875,-0.125 0.328125,-0.59375 0.5625,-0.8125 0.078125,-0.0625 0.375,-0.328125 0.796875,-0.328125 0.265625,0 0.40625,0.125 0.421875,0.125 -0.296875,0.046875 -0.515625,0.28125 -0.515625,0.546875 0,0.15625 0.109375,0.34375 0.375,0.34375 0.265625,0 0.546875,-0.234375 0.546875,-0.59375 0,-0.34375 -0.3125,-0.640625 -0.828125,-0.640625 C 2.875,-4.40625 2.4375,-3.921875 2.25,-3.640625 2.15625,-4.09375 1.796875,-4.40625 1.328125,-4.40625 0.875,-4.40625 0.6875,-4.015625 0.59375,-3.84375 0.421875,-3.5 0.296875,-2.90625 0.296875,-2.875 c 0,0.109375 0.09375,0.109375 0.109375,0.109375 0.109375,0 0.109375,-0.015625 0.171875,-0.234375 0.171875,-0.703125 0.375,-1.1875 0.734375,-1.1875 0.15625,0 0.296875,0.078125 0.296875,0.453125 0,0.21875 -0.03125,0.328125 -0.15625,0.84375 z m 0,0"
               style="stroke:none"
               inkscape:connector-curvature="0" />
          </symbol>
          <symbol
             id="textext-86baa474-2"
             overflow="visible"
             style="overflow:visible">
            <path
               id="path12201"
               d=""
               style="stroke:none"
               inkscape:connector-curvature="0" />
          </symbol>
          <symbol
             id="textext-86baa474-3"
             overflow="visible"
             style="overflow:visible">
            <path
               id="path12204"
               d="M 3.59375,-2.21875 C 3.59375,-2.984375 3.5,-3.546875 3.1875,-4.03125 2.96875,-4.34375 2.53125,-4.625 1.984375,-4.625 c -1.625,0 -1.625,1.90625 -1.625,2.40625 0,0.5 0,2.359375 1.625,2.359375 1.609375,0 1.609375,-1.859375 1.609375,-2.359375 z M 1.984375,-0.0625 c -0.328125,0 -0.75,-0.1875 -0.890625,-0.75 C 1,-1.21875 1,-1.796875 1,-2.3125 1,-2.828125 1,-3.359375 1.09375,-3.734375 1.25,-4.28125 1.6875,-4.4375 1.984375,-4.4375 c 0.375,0 0.734375,0.234375 0.859375,0.640625 0.109375,0.375 0.125,0.875 0.125,1.484375 0,0.515625 0,1.03125 -0.09375,1.46875 -0.140625,0.640625 -0.609375,0.78125 -0.890625,0.78125 z m 0,0"
               style="stroke:none"
               inkscape:connector-curvature="0" />
          </symbol>
          <symbol
             id="textext-86baa474-4"
             overflow="visible"
             style="overflow:visible">
            <path
               id="path12207"
               d=""
               style="stroke:none"
               inkscape:connector-curvature="0" />
          </symbol>
          <symbol
             id="textext-86baa474-5"
             overflow="visible"
             style="overflow:visible">
            <path
               id="path12210"
               d="m 3.296875,2.390625 c 0,-0.03125 0,-0.046875 -0.171875,-0.21875 C 1.890625,0.921875 1.5625,-0.96875 1.5625,-2.5 c 0,-1.734375 0.375,-3.46875 1.609375,-4.703125 0.125,-0.125 0.125,-0.140625 0.125,-0.171875 0,-0.078125 -0.03125,-0.109375 -0.09375,-0.109375 -0.109375,0 -1,0.6875 -1.59375,1.953125 -0.5,1.09375 -0.625,2.203125 -0.625,3.03125 0,0.78125 0.109375,1.984375 0.65625,3.125 C 2.25,1.84375 3.09375,2.5 3.203125,2.5 c 0.0625,0 0.09375,-0.03125 0.09375,-0.109375 z m 0,0"
               style="stroke:none"
               inkscape:connector-curvature="0" />
          </symbol>
          <symbol
             id="textext-86baa474-6"
             overflow="visible"
             style="overflow:visible">
            <path
               id="path12213"
               d="m 1.09375,-3.421875 0,2.671875 c 0,0.4375 -0.109375,0.4375 -0.78125,0.4375 l 0,0.3125 c 0.359375,-0.015625 0.859375,-0.03125 1.140625,-0.03125 0.25,0 0.765625,0.015625 1.109375,0.03125 l 0,-0.3125 c -0.671875,0 -0.78125,0 -0.78125,-0.4375 l 0,-1.84375 C 1.78125,-3.625 2.5,-4.1875 3.125,-4.1875 c 0.640625,0 0.75,0.53125 0.75,1.109375 l 0,2.328125 c 0,0.4375 -0.109375,0.4375 -0.78125,0.4375 l 0,0.3125 c 0.34375,-0.015625 0.859375,-0.03125 1.125,-0.03125 0.25,0 0.78125,0.015625 1.109375,0.03125 l 0,-0.3125 c -0.515625,0 -0.765625,0 -0.765625,-0.296875 l 0,-1.90625 c 0,-0.859375 0,-1.15625 -0.3125,-1.515625 -0.140625,-0.171875 -0.46875,-0.375 -1.046875,-0.375 C 2.46875,-4.40625 2,-3.984375 1.71875,-3.359375 l 0,-1.046875 -1.40625,0.109375 0,0.3125 c 0.703125,0 0.78125,0.0625 0.78125,0.5625 z m 0,0"
               style="stroke:none"
               inkscape:connector-curvature="0" />
          </symbol>
          <symbol
             id="textext-86baa474-7"
             overflow="visible"
             style="overflow:visible">
            <path
               id="path12216"
               d="m 1.09375,-3.421875 0,2.671875 c 0,0.4375 -0.109375,0.4375 -0.78125,0.4375 l 0,0.3125 c 0.359375,-0.015625 0.859375,-0.03125 1.140625,-0.03125 0.25,0 0.765625,0.015625 1.109375,0.03125 l 0,-0.3125 c -0.671875,0 -0.78125,0 -0.78125,-0.4375 l 0,-1.84375 C 1.78125,-3.625 2.5,-4.1875 3.125,-4.1875 c 0.640625,0 0.75,0.53125 0.75,1.109375 l 0,2.328125 c 0,0.4375 -0.109375,0.4375 -0.78125,0.4375 l 0,0.3125 c 0.34375,-0.015625 0.859375,-0.03125 1.125,-0.03125 0.25,0 0.78125,0.015625 1.109375,0.03125 l 0,-0.3125 c -0.65625,0 -0.765625,0 -0.765625,-0.4375 l 0,-1.84375 c 0,-1.03125 0.703125,-1.59375 1.34375,-1.59375 0.625,0 0.734375,0.53125 0.734375,1.109375 l 0,2.328125 c 0,0.4375 -0.109375,0.4375 -0.78125,0.4375 l 0,0.3125 c 0.34375,-0.015625 0.859375,-0.03125 1.125,-0.03125 0.265625,0 0.78125,0.015625 1.125,0.03125 l 0,-0.3125 c -0.515625,0 -0.765625,0 -0.78125,-0.296875 l 0,-1.90625 c 0,-0.859375 0,-1.15625 -0.3125,-1.515625 -0.140625,-0.171875 -0.46875,-0.375 -1.046875,-0.375 -0.828125,0 -1.28125,0.59375 -1.4375,0.984375 C 4.390625,-4.296875 3.65625,-4.40625 3.203125,-4.40625 2.46875,-4.40625 2,-3.984375 1.71875,-3.359375 l 0,-1.046875 -1.40625,0.109375 0,0.3125 c 0.703125,0 0.78125,0.0625 0.78125,0.5625 z m 0,0"
               style="stroke:none"
               inkscape:connector-curvature="0" />
          </symbol>
          <symbol
             id="textext-86baa474-8"
             overflow="visible"
             style="overflow:visible">
            <path
               id="path12219"
               d="m 2.875,-2.5 c 0,-0.765625 -0.109375,-1.96875 -0.65625,-3.109375 -0.59375,-1.21875 -1.453125,-1.875 -1.546875,-1.875 -0.0625,0 -0.109375,0.046875 -0.109375,0.109375 0,0.03125 0,0.046875 0.1875,0.234375 0.984375,0.984375 1.546875,2.5625 1.546875,4.640625 0,1.71875 -0.359375,3.46875 -1.59375,4.71875 C 0.5625,2.34375 0.5625,2.359375 0.5625,2.390625 0.5625,2.453125 0.609375,2.5 0.671875,2.5 0.765625,2.5 1.671875,1.8125 2.25,0.546875 2.765625,-0.546875 2.875,-1.65625 2.875,-2.5 Z m 0,0"
               style="stroke:none"
               inkscape:connector-curvature="0" />
          </symbol>
        </g>
      </defs>
      <g
         id="textext-86baa474-9">
        <g
           id="g12222"
           style="fill:#000000;fill-opacity:1">
          <use
             id="use12224"
             y="134.765"
             x="223.43201"
             xlink:href="#textext-86baa474-1"
             width="100%"
             height="100%" />
        </g>
        <g
           id="g12226"
           style="fill:#000000;fill-opacity:1">
          <use
             id="use12228"
             y="136.259"
             x="227.927"
             xlink:href="#textext-86baa474-3"
             width="100%"
             height="100%" />
        </g>
        <g
           id="g12230"
           style="fill:#000000;fill-opacity:1">
          <use
             id="use12232"
             y="134.765"
             x="235.717"
             xlink:href="#textext-86baa474-5"
             width="100%"
             height="100%" />
          <use
             id="use12234"
             y="134.765"
             x="239.59146"
             xlink:href="#textext-86baa474-6"
             width="100%"
             height="100%" />
          <use
             id="use12236"
             y="134.765"
             x="245.12668"
             xlink:href="#textext-86baa474-7"
             width="100%"
             height="100%" />
          <use
             id="use12238"
             y="134.765"
             x="253.42851"
             xlink:href="#textext-86baa474-8"
             width="100%"
             height="100%" />
        </g>
      </g>
    </g>
    <text
       xml:space="preserve"
       style="font-style:normal;font-variant:normal;font-weight:normal;font-stretch:normal;font-size:30px;line-height:125%;font-family:'Latin Modern Roman';-inkscape-font-specification:'Latin Modern Roman, Normal';text-align:start;letter-spacing:0px;word-spacing:0px;writing-mode:lr-tb;text-anchor:start;fill:#000000;fill-opacity:1;stroke:none;stroke-width:1px;stroke-linecap:butt;stroke-linejoin:miter;stroke-opacity:1"
       x="43.840691"
       y="92.132698"
       id="text12336"
       sodipodi:linespacing="125%"><tspan
         sodipodi:role="line"
         id="tspan12338"
         x="43.840691"
         y="92.132698">400</tspan></text>
    <text
       xml:space="preserve"
       style="font-style:normal;font-variant:normal;font-weight:normal;font-stretch:normal;font-size:30px;line-height:125%;font-family:'Latin Modern Roman';-inkscape-font-specification:'Latin Modern Roman, Normal';text-align:start;letter-spacing:0px;word-spacing:0px;writing-mode:lr-tb;text-anchor:start;fill:#000000;fill-opacity:1;stroke:none;stroke-width:1px;stroke-linecap:butt;stroke-linejoin:miter;stroke-opacity:1"
       x="43.84906"
       y="195.93228"
       id="text12340"
       sodipodi:linespacing="125%"><tspan
         sodipodi:role="line"
         id="tspan12342"
         x="43.84906"
         y="195.93228">300</tspan></text>
    <text
       xml:space="preserve"
       style="font-style:normal;font-variant:normal;font-weight:normal;font-stretch:normal;font-size:30px;line-height:125%;font-family:'Latin Modern Roman';-inkscape-font-specification:'Latin Modern Roman, Normal';text-align:start;letter-spacing:0px;word-spacing:0px;writing-mode:lr-tb;text-anchor:start;fill:#000000;fill-opacity:1;stroke:none;stroke-width:1px;stroke-linecap:butt;stroke-linejoin:miter;stroke-opacity:1"
       x="43.705662"
       y="299.89685"
       id="text12344"
       sodipodi:linespacing="125%"><tspan
         sodipodi:role="line"
         id="tspan12346"
         x="43.705662"
         y="299.89685">200</tspan></text>
    <text
       xml:space="preserve"
       style="font-style:normal;font-variant:normal;font-weight:normal;font-stretch:normal;font-size:30px;line-height:125%;font-family:'Latin Modern Roman';-inkscape-font-specification:'Latin Modern Roman, Normal';text-align:start;letter-spacing:0px;word-spacing:0px;writing-mode:lr-tb;text-anchor:start;fill:#000000;fill-opacity:1;stroke:none;stroke-width:1px;stroke-linecap:butt;stroke-linejoin:miter;stroke-opacity:1"
       x="43.413124"
       y="403.86148"
       id="text12348"
       sodipodi:linespacing="125%"><tspan
         sodipodi:role="line"
         id="tspan12350"
         x="43.413124"
         y="403.86148">100</tspan></text>
    <text
       xml:space="preserve"
       style="font-style:normal;font-variant:normal;font-weight:normal;font-stretch:normal;font-size:30px;line-height:125%;font-family:'Latin Modern Roman';-inkscape-font-specification:'Latin Modern Roman, Normal';text-align:start;letter-spacing:0px;word-spacing:0px;writing-mode:lr-tb;text-anchor:start;fill:#000000;fill-opacity:1;stroke:none;stroke-width:1px;stroke-linecap:butt;stroke-linejoin:miter;stroke-opacity:1"
       x="95.274117"
       y="533.90265"
       id="text12352"
       sodipodi:linespacing="125%"><tspan
         sodipodi:role="line"
         id="tspan12354"
         x="95.274117"
         y="533.90265">0</tspan></text>
    <text
       xml:space="preserve"
       style="font-style:normal;font-variant:normal;font-weight:normal;font-stretch:normal;font-size:30px;line-height:125%;font-family:'Latin Modern Roman';-inkscape-font-specification:'Latin Modern Roman, Normal';text-align:start;letter-spacing:0px;word-spacing:0px;writing-mode:lr-tb;text-anchor:start;fill:#000000;fill-opacity:1;stroke:none;stroke-width:1px;stroke-linecap:butt;stroke-linejoin:miter;stroke-opacity:1"
       x="355.58606"
       y="534.01013"
       id="text12356"
       sodipodi:linespacing="125%"><tspan
         sodipodi:role="line"
         id="tspan12358"
         x="355.58606"
         y="534.01013">15</tspan></text>
    <text
       xml:space="preserve"
       style="font-style:normal;font-variant:normal;font-weight:normal;font-stretch:normal;font-size:30px;line-height:125%;font-family:'Latin Modern Roman';-inkscape-font-specification:'Latin Modern Roman, Normal';text-align:start;letter-spacing:0px;word-spacing:0px;writing-mode:lr-tb;text-anchor:start;fill:#000000;fill-opacity:1;stroke:none;stroke-width:1px;stroke-linecap:butt;stroke-linejoin:miter;stroke-opacity:1"
       x="624.23785"
       y="533.90265"
       id="text12360"
       sodipodi:linespacing="125%"><tspan
         sodipodi:role="line"
         id="tspan12362"
         x="624.23785"
         y="533.90265">30</tspan></text>
    <text
       xml:space="preserve"
       style="font-style:normal;font-variant:normal;font-weight:normal;font-stretch:normal;font-size:20px;line-height:125%;font-family:'Latin Modern Roman';-inkscape-font-specification:'Latin Modern Roman, Normal';text-align:start;letter-spacing:0px;word-spacing:0px;writing-mode:lr-tb;text-anchor:start;fill:#000000;fill-opacity:1;stroke:none;stroke-width:1px;stroke-linecap:butt;stroke-linejoin:miter;stroke-opacity:1"
       x="501.9635"
       y="444.0051"
       id="text12364"
       sodipodi:linespacing="125%"><tspan
         sodipodi:role="line"
         id="tspan12366"
         x="501.9635"
         y="444.0051">North-North</tspan></text>
    <text
       xml:space="preserve"
       style="font-style:normal;font-variant:normal;font-weight:normal;font-stretch:normal;font-size:20px;line-height:125%;font-family:'Latin Modern Roman';-inkscape-font-specification:'Latin Modern Roman, Normal';text-align:start;letter-spacing:0px;word-spacing:0px;writing-mode:lr-tb;text-anchor:start;fill:#000000;fill-opacity:1;stroke:none;stroke-width:1px;stroke-linecap:butt;stroke-linejoin:miter;stroke-opacity:1"
       x="501.6911"
       y="467.93246"
       id="text12368"
       sodipodi:linespacing="125%"><tspan
         sodipodi:role="line"
         id="tspan12370"
         x="501.6911"
         y="467.93246">North-South</tspan></text>
    <text
       xml:space="preserve"
       style="font-style:normal;font-variant:normal;font-weight:normal;font-stretch:normal;font-size:20px;line-height:125%;font-family:'Latin Modern Roman';-inkscape-font-specification:'Latin Modern Roman, Normal';text-align:start;letter-spacing:0px;word-spacing:0px;writing-mode:lr-tb;text-anchor:start;fill:#000000;fill-opacity:1;stroke:none;stroke-width:1px;stroke-linecap:butt;stroke-linejoin:miter;stroke-opacity:1"
       x="500.90991"
       y="491.22876"
       id="text12372"
       sodipodi:linespacing="125%"><tspan
         sodipodi:role="line"
         id="tspan12374"
         x="500.90991"
         y="491.22876">Longest Distance</tspan></text>
    <text
       xml:space="preserve"
       style="font-style:normal;font-variant:normal;font-weight:normal;font-stretch:normal;font-size:31.07515717px;line-height:125%;font-family:'Latin Modern Roman';-inkscape-font-specification:'Latin Modern Roman, Normal';text-align:start;letter-spacing:0px;word-spacing:0px;writing-mode:lr-tb;text-anchor:start;fill:#000000;fill-opacity:1;stroke:none;stroke-width:1px;stroke-linecap:butt;stroke-linejoin:miter;stroke-opacity:1"
       x="176.36685"
       y="51.498451"
       id="text12688"
       sodipodi:linespacing="125%"><tspan
         sodipodi:role="line"
         id="tspan12690"
         x="176.36685"
         y="51.498451">Comparison of Length Scales</tspan></text>
  </g>
</svg>
